SplineFontDB: 3.0
FontName: boon-700-oblique
FullName: Boon Bold Oblique
FamilyName: Boon
Weight: 700
Copyright: Copyright (C) 2013 Sungsit Sawaiwan <http://sungsit.com/>
UComments: "Created with FontForge 2.0 <http://fontforge.org/>" 
FontLog: "##  Boon v0.6, 2013-09-24+AAoA  - Redesigned Long S, Small Ezh & Small German Eszett+AAoA  - Improved some Latin diacritics compositions+AAoA  - Added **boon-300**, **boon-300-oblique**, **boon-500** & **boon-500-oblique**+AAoACgAA##  Boon v0.5, 2013-09-17+AAoA  - Redraw all glyphs+AAoA  - Match Latin x-height with Thai +DhoA--height+AAoA  - Reduce Latin cap-height+AAoA  - Add more character spacing+AAoA  - Complete **Basic Latin**, **Latin-1 supplement** & **Thai**+AAoA  - Rename all font files+AAoA      1. Boon-Book +AD0A> **boon-400**+AAoA      2. Boon-Book-Italic +AD0A> **boon-400-oblique**+AAoA      3. Boon-Bold +AD0A> **boon-700**+AAoA      4. Boon-Bold-italic +AD0A> **boon-700-oblique**+AAoA  - Move source files to **boon-dev** repository <https://github.com/sungsit/boon-dev>+AAoACgAA##  Boon v0.4, 2013-07-15+AAoA  - Improve kerning+AAoACgAA##  Boon v0.3.1, 2013-07-01+AAoA  - Corrected font version+AAoACgAA##  Boon v0.3, 2013-07-01+AAoA  - Improved Latin kerning+AAoA  - Added HTML/CSS and project page+AAoACgAA##  Boon v0.2, 2013-06-30+AAoA  - Included Boon-Bold and Boon-Bold-Italic (auto-generated)+AAoA  - Renamed Boon-Italic to Boon-Book-Italic+AAoACgAA##  Boon v0.1, 2013-06-27+AAoA  - Released Boon-Book and Boon-Italic (auto-generated)" 
Version: 0.6
ItalicAngle: -13
UnderlinePosition: -60
UnderlineWidth: 20
Ascent: 840
Descent: 360
woffMajor: 0
woffMinor: 6
LayerCount: 2
Layer: 0 0 "Back"  1
Layer: 1 0 "Fore"  0
FSType: 8
OS2Version: 0
OS2_WeightWidthSlopeOnly: 0
OS2_UseTypoMetrics: 1
CreationTime: 1369324892
ModificationTime: 1379947710
PfmFamily: 33
TTFWeight: 700
TTFWidth: 5
LineGap: 108
VLineGap: 0
OS2TypoAscent: 0
OS2TypoAOffset: 1
OS2TypoDescent: 0
OS2TypoDOffset: 1
OS2TypoLinegap: 108
OS2WinAscent: 0

StartChar: uni0E04
Encoding: 3588 3588 0
Width: 670
VWidth: 0
Flags: W
HStem: 0 21G<460 614.617> 220 45<358.008 434.729> 355 45<368.927 444.89> 510 110<355.333 528.723>
LayerCount: 2
Fore
SplineSet
411.958 355 m 0
 386.958 355 362.341 335 356.569 310 c 0
 350.798 285 366.18 265 391.18 265 c 0
 416.18 265 440.798 285 446.569 310 c 0
 452.341 335 436.958 355 411.958 355 c 0
422.348 400 m 0
 472.348 400 503.112 360 491.569 310 c 0
 480.025 260 430.791 220 380.791 220 c 0
 350.791 220 327.254 235 316.333 257 c 1
 287.099 217 266.708 159 253.087 100 c 2
 227.691 -10 l 1
 227.691 -10 59.6152 -6 66.9258 30 c 1
 66.9258 30 98.2383 79 112.321 140 c 0
 135.87 242 108.871 255 140.039 390 c 0
 169.128 516 290.139 620 473.139 620 c 0
 656.139 620 729.128 516 700.039 390 c 2
 610 0 l 1
 460 0 l 1
 550.039 390 l 2
 569.201 473 516.743 510 447.743 510 c 0
 378.743 510 309.2 473 290.039 390 c 0
 282.189 356 277.725 328 274.723 302 c 1
 311.65 358 363.348 400 422.348 400 c 0
EndSplineSet
EndChar

StartChar: uni0E05
Encoding: 3589 3589 2
Width: 670
VWidth: 0
Flags: W
HStem: 0 21G<460 614.617> 220 45<358.008 434.729> 355 45<368.195 444.89> 600 20G<348.639 402.752 534.29 597.639>
LayerCount: 2
Fore
SplineSet
411.958 355 m 0
 386.958 355 362.341 335 356.569 310 c 0
 350.798 285 366.18 265 391.18 265 c 0
 416.18 265 440.798 285 446.569 310 c 0
 452.341 335 436.958 355 411.958 355 c 0
422.348 400 m 0
 472.348 400 503.112 360 491.569 310 c 0
 480.025 260 430.791 220 380.791 220 c 0
 350.791 220 327.254 235 316.333 257 c 1
 287.099 217 266.708 159 253.087 100 c 2
 227.691 -10 l 1
 227.691 -10 59.6152 -6 66.9258 30 c 1
 66.9258 30 98.2383 79 112.321 140 c 0
 135.87 242 113.488 275 144.656 410 c 0
 177.901 554 319.139 620 378.139 620 c 1
 458.132 555 l 1
 568.139 620 l 1
 627.139 620 737.901 554 704.656 410 c 2
 610 0 l 1
 460 0 l 1
 554.656 410 l 2
 572.433 487 532.743 510 532.743 510 c 1
 435.045 455 l 1
 362.743 510 l 1
 362.743 510 312.433 487 294.656 410 c 0
 285.652 371 280.803 337 276.646 306 c 1
 314.112 360 364.348 400 422.348 400 c 0
EndSplineSet
EndChar

StartChar: uni0E14
Encoding: 3604 3604 3
Width: 670
VWidth: 0
Flags: W
HStem: 0 21G<460 614.617> 355 45<368.41 444.89> 510 110<355.333 528.723>
LayerCount: 2
Fore
SplineSet
411.958 355 m 0
 386.958 355 362.341 335 356.569 310 c 0
 350.798 285 366.18 265 391.18 265 c 0
 416.18 265 440.798 285 446.569 310 c 0
 452.341 335 436.958 355 411.958 355 c 0
422.348 400 m 0
 472.348 400 503.112 360 491.569 310 c 0
 459.017 169 257.084 74 237.691 -10 c 1
 237.691 -10 59.6152 -6 66.9258 30 c 1
 66.9258 30 98.2383 79 112.321 140 c 0
 135.87 242 108.871 255 140.039 390 c 0
 169.128 516 290.139 620 473.139 620 c 0
 656.139 620 729.128 516 700.039 390 c 2
 610 0 l 1
 460 0 l 1
 550.039 390 l 2
 569.201 473 516.743 510 447.743 510 c 0
 378.743 510 309.2 473 290.039 390 c 0
 260.719 263 267.713 211 245.626 111 c 1
 286.707 146 335.095 178 371.021 221 c 1
 327.176 226 300.949 264 311.569 310 c 0
 323.112 360 372.348 400 422.348 400 c 0
EndSplineSet
EndChar

StartChar: uni0E15
Encoding: 3605 3605 4
Width: 670
VWidth: 0
Flags: W
HStem: 0 21G<460 614.617> 355 45<368.41 444.89> 600 20G<348.639 402.752 534.29 597.639>
LayerCount: 2
Fore
SplineSet
411.958 355 m 0
 386.958 355 362.341 335 356.569 310 c 0
 350.798 285 366.18 265 391.18 265 c 0
 416.18 265 440.798 285 446.569 310 c 0
 452.341 335 436.958 355 411.958 355 c 0
422.348 400 m 0
 472.348 400 503.112 360 491.569 310 c 0
 459.017 169 257.084 74 237.691 -10 c 1
 237.691 -10 59.6152 -6 66.9258 30 c 1
 66.9258 30 98.2383 79 112.321 140 c 0
 135.87 242 113.488 275 144.656 410 c 0
 177.901 554 319.139 620 378.139 620 c 1
 458.132 555 l 1
 568.139 620 l 1
 627.139 620 737.901 554 704.656 410 c 2
 610 0 l 1
 460 0 l 1
 554.656 410 l 2
 572.433 487 532.743 510 532.743 510 c 1
 435.045 455 l 1
 362.743 510 l 1
 362.743 510 312.433 487 294.656 410 c 0
 265.336 283 267.944 212 245.626 111 c 1
 286.707 146 335.095 178 371.021 221 c 1
 327.176 226 300.949 264 311.569 310 c 0
 323.112 360 372.348 400 422.348 400 c 0
EndSplineSet
EndChar

StartChar: uni0E01
Encoding: 3585 3585 5
Width: 670
VWidth: 0
Flags: W
HStem: 0 21G<100 254.617 460 614.617> 505 115<346.609 533.138>
LayerCount: 2
Fore
SplineSet
250 0 m 1
 100 0 l 1
 162.334 270 l 2
 178.957 342 224.883 372 250.423 383 c 1
 146.965 420 l 1
 183.818 493 304.139 620 483.139 620 c 0
 634.139 620 733.745 536 702.348 400 c 2
 610 0 l 1
 460 0 l 1
 552.348 400 l 2
 569.201 473 522.589 505 456.589 505 c 0
 378.589 505 319.432 474 285.89 437 c 1
 412.348 400 l 1
 407.729 380 l 1
 407.729 380 333.805 363 312.334 270 c 2
 250 0 l 1
EndSplineSet
EndChar

StartChar: uni0E16
Encoding: 3606 3606 6
Width: 670
VWidth: 0
Flags: W
HStem: -10 80<206.727 286.681> 0 21G<460 614.617> 505 115<346.609 533.138>
LayerCount: 2
Fore
SplineSet
261.938 160 m 0xa0
 236.938 160 212.321 140 206.55 115 c 0
 200.778 90 216.161 70 241.161 70 c 0
 266.161 70 290.778 90 296.55 115 c 0
 302.321 140 286.938 160 261.938 160 c 0xa0
126.55 115 m 2
 162.334 270 l 2
 178.957 342 224.883 372 250.423 383 c 1
 146.965 420 l 1
 183.818 493 304.139 620 483.139 620 c 0
 634.139 620 733.745 536 702.348 400 c 2
 610 0 l 1
 460 0 l 1x60
 552.348 400 l 2
 569.201 473 522.589 505 456.589 505 c 0
 378.589 505 319.432 474 285.89 437 c 1
 412.348 400 l 1
 407.729 380 l 1
 407.729 380 333.805 363 312.334 270 c 2
 304.946 238 l 1
 359.176 226 390.402 175 376.55 115 c 0
 360.62 46 291.691 -10 222.691 -10 c 0
 153.691 -10 110.62 46 126.55 115 c 2
EndSplineSet
EndChar

StartChar: uni0E28
Encoding: 3624 3624 7
Width: 680
VWidth: 0
Flags: W
HStem: 0 21G<460 614.617> 220 45<358.008 434.729> 355 45<368.927 444.89> 510 110<355.333 528.566>
VStem: 716.225 120<644.902 720>
LayerCount: 2
Fore
SplineSet
422.348 400 m 0
 472.348 400 503.112 360 491.569 310 c 0
 480.025 260 430.791 220 380.791 220 c 0
 350.791 220 327.254 235 316.333 257 c 1
 287.099 217 266.708 159 253.087 100 c 2
 227.691 -10 l 1
 227.691 -10 59.6152 -6 66.9258 30 c 1
 66.9258 30 98.2383 79 112.321 140 c 0
 135.87 242 108.871 255 140.039 390 c 0
 169.128 516 290.139 620 473.139 620 c 0
 548.139 620 604.214 603 643.287 573 c 1
 678.599 609 699.833 649 716.225 720 c 1
 836.225 720 l 1
 813.139 620 756.669 540 697.203 499 c 1
 707.815 467 709.273 430 700.039 390 c 2
 610 0 l 1
 460 0 l 1
 550.039 390 l 2
 569.201 473 516.743 510 447.743 510 c 0
 378.743 510 309.2 473 290.039 390 c 0
 282.189 356 277.725 328 274.723 302 c 1
 311.65 358 363.348 400 422.348 400 c 0
411.958 355 m 0
 386.958 355 362.341 335 356.569 310 c 0
 350.798 285 366.18 265 391.18 265 c 0
 416.18 265 440.798 285 446.569 310 c 0
 452.341 335 436.958 355 411.958 355 c 0
EndSplineSet
Substitution2: "Ascent Substitute" uni0E28.alt
EndChar

StartChar: uni0E20
Encoding: 3616 3616 8
Width: 690
VWidth: 0
Flags: W
HStem: -10 80<146.727 226.681> 0 21G<480 634.617> 505 115<366.843 553.138>
LayerCount: 2
Fore
SplineSet
201.938 160 m 0xa0
 176.938 160 152.321 140 146.55 115 c 0
 140.778 90 156.161 70 181.161 70 c 0
 206.161 70 230.778 90 236.55 115 c 0
 242.321 140 226.938 160 201.938 160 c 0xa0
306.12 438 m 1
 442.348 400 l 1
 437.729 380 l 1
 437.729 380 373.805 363 352.334 270 c 2
 316.55 115 l 2
 300.62 46 231.691 -10 162.691 -10 c 0xa0
 93.6914 -10 50.6201 46 66.5498 115 c 0
 80.4023 175 135.176 226 194.946 238 c 1
 202.334 270 l 2
 218.265 339 257.421 370 280.191 382 c 1
 166.965 420 l 1
 203.818 493 324.139 620 503.139 620 c 0
 654.139 620 753.745 536 722.348 400 c 2
 630 0 l 1
 480 0 l 1x60
 572.348 400 l 2
 589.201 473 542.589 505 476.589 505 c 0
 399.589 505 339.662 475 306.12 438 c 1
EndSplineSet
EndChar

StartChar: uni0E48
Encoding: 3656 3656 9
Width: 0
VWidth: 0
Flags: W
HStem: 990 250
VStem: 28.4873 167.789
LayerCount: 2
Fore
SplineSet
76.2764 1240 m 1
 196.276 1240 l 1
 138.56 990 l 1
 28.4873 1033 l 1
 76.2764 1240 l 1
EndSplineSet
Position2: "Nikhahit & Tone High-Left" dx=-240 dy=0 dh=0 dv=0
Position2: "Mai Han-Akat & Tone High-Left" dx=-300 dy=0 dh=0 dv=0
Position2: "Tone High-Left" dx=-180 dy=0 dh=0 dv=0
MultipleSubs2: "Tone High-Low" uni0E48.low
EndChar

StartChar: uni0E34
Encoding: 3636 3636 10
Width: 0
VWidth: 0
Flags: W
HStem: 880 100<-226.526 -75.9458>
AnchorPoint: "thai_above" 333.267 630 mark 0
LayerCount: 2
Fore
SplineSet
-407.614 790 m 1
 -396.764 837 -300.749 980 -143.749 980 c 0
 45.251 980 100.77 783 81.6074 700 c 1
 -90.3848 778 -286.614 790 -407.614 790 c 1
-250.61 829 m 1
 -179.765 824 -99.7656 811 -23.0762 788 c 1
 -43.6865 833 -79.8359 880 -156.836 880 c 0
 -194.836 880 -230.453 860 -250.61 829 c 1
EndSplineSet
Substitution2: "Thai Tone & Vowel Above-Narrow" uni0E34.narrow
Position2: "Vowel Above-Left" dx=-140 dy=0 dh=0 dv=0
EndChar

StartChar: uni0E38
Encoding: 3640 3640 11
Width: 0
VWidth: 0
Flags: W
HStem: -350 145<-252.045 -170.87> -115 55<-243.314 -161.883>
VStem: -306.938 200
LayerCount: 2
Fore
SplineSet
-196.55 -115 m 0
 -221.55 -115 -246.167 -135 -251.938 -160 c 0
 -257.711 -185 -242.328 -205 -217.328 -205 c 0
 -192.328 -205 -167.711 -185 -161.938 -160 c 0
 -156.167 -135 -171.55 -115 -196.55 -115 c 0
-258.871 -255 m 1
 -297.101 -243 -317.328 -205 -306.938 -160 c 0
 -294.241 -105 -238.853 -60 -183.853 -60 c 0
 -128.853 -60 -94.2412 -105 -106.938 -160 c 2
 -150.804 -350 l 1
 -280.804 -350 l 1
 -258.871 -255 l 1
EndSplineSet
Position2: "Vowel Below-Low" dx=0 dy=-200 dh=0 dv=0
EndChar

StartChar: uni0E35
Encoding: 3637 3637 12
Width: 0
VWidth: 0
Flags: W
HStem: 860 100<-221.144 -67.6522>
AnchorPoint: "thai_above" 333.267 630 mark 0
LayerCount: 2
Fore
SplineSet
38.5596 990 m 1
 149.325 950 l 1
 86.9902 680 l 1
 -85.002 758 -281.231 770 -402.231 770 c 1
 -391.381 817 -295.366 960 -138.366 960 c 0
 -46.3662 960 0.397461 907 24.0068 849 c 1
 19.9336 879 19.8594 909 24.707 930 c 2
 38.5596 990 l 1
-245.228 809 m 1
 -174.382 804 -94.3828 791 -17.6934 768 c 1
 -38.3037 813 -74.4531 860 -151.453 860 c 0
 -189.453 860 -225.07 840 -245.228 809 c 1
EndSplineSet
Substitution2: "Thai Tone & Vowel Above-Narrow" uni0E35.narrow
Position2: "Vowel Above-Left" dx=-140 dy=0 dh=0 dv=0
EndChar

StartChar: uni0E48.low
Encoding: 63237 63237 13
Width: 0
VWidth: 0
Flags: W
HStem: 700 260<-3.36621 76.6074>
VStem: -63.3926 200.026
AnchorPoint: "thai_above" 333.267 630 mark 0
LayerCount: 2
Fore
SplineSet
-3.36621 960 m 1
 136.634 960 l 1
 76.6074 700 l 1
 -63.3926 700 l 1
 -3.36621 960 l 1
EndSplineSet
Position2: "Tone Low-Left" dx=-220 dy=0 dh=0 dv=0
Substitution2: "Tone Low-High" uni0E48
EndChar

StartChar: uni0E49.low
Encoding: 63238 63238 14
Width: 0
VWidth: 0
Flags: W
HStem: 700 145<-197.708 -129.952> 700 90<-308.268 -216.16 -125.614 -15.9672> 915 55<-193.337 -126.743>
VStem: 42.3984 140<852.661 920>
AnchorPoint: "thai_above" 333.267 630 mark 0
LayerCount: 2
Fore
SplineSet
-153.756 915 m 0xb0
 -172.756 915 -192.449 899 -196.836 880 c 0
 -201.223 861 -188.916 845 -169.916 845 c 0
 -150.916 845 -131.223 861 -126.836 880 c 0
 -122.449 899 -134.756 915 -153.756 915 c 0xb0
-141.058 970 m 0
 -91.0576 970 -60.293 930 -71.8359 880 c 0
 -80.8398 841 -106.228 809 -125.614 790 c 1
 -117.614 790 l 2x70
 -34.6143 790 18.3887 816 42.3984 920 c 1
 182.398 920 l 1
 152.386 790 59.6074 700 -138.393 700 c 2xb0
 -283.393 700 l 2
 -339.393 700 -327.614 790 -327.614 790 c 1
 -224.614 790 l 1x70
 -222.152 792 -219.46 795 -215.998 797 c 1
 -245.766 811 -260.378 843 -251.836 880 c 0
 -240.293 930 -191.058 970 -141.058 970 c 0
EndSplineSet
Substitution2: "Thai Tone & Vowel Above-Narrow" uni0E49.narrow
Substitution2: "Thai Special Tone for Asc" uni0E49
Position2: "Tone Low-Left" dx=-220 dy=0 dh=0 dv=0
Substitution2: "Tone Low-High" uni0E49
EndChar

StartChar: uni0E4A.low
Encoding: 63239 63239 15
Width: 0
VWidth: 0
Flags: W
HStem: 695 55<-260.009 -201.833> 700 65<-88.3857 -68.0291> 810 55<-224.528 -199.609> 890 70<-224.12 -151.605 -59.5273 -44.6641>
VStem: 74.707 130<858.512 930>
AnchorPoint: "thai_above" 333.267 630 mark 0
LayerCount: 2
Fore
SplineSet
-222.997 810 m 0xb8
 -239.997 810 -255.998 797 -259.923 780 c 0
 -263.848 763 -253.849 750 -236.849 750 c 0
 -219.849 750 -203.848 763 -199.923 780 c 0
 -195.998 797 -205.997 810 -222.997 810 c 0xb8
-59.5273 890 m 1
 -93.7617 850 l 1
 -148.762 850 l 1
 -148.837 867 -162.527 890 -184.527 890 c 0
 -202.527 890 -216.066 879 -224.761 863 c 1
 -218.53 864 -211.299 865 -204.299 865 c 0
 -157.299 865 -134.072 827 -144.923 780 c 0
 -155.773 733 -202.547 695 -249.547 695 c 0xb8
 -303.547 695 -337.311 748 -319.534 825 c 0
 -303.835 893 -237.366 960 -173.366 960 c 0
 -126.366 960 -108.369 934 -100.448 912 c 1
 -63.3662 960 l 1
 -43.3662 960 l 2
 12.6338 960 47.5508 899 31.6211 830 c 0
 28.8506 818 24.0801 806 19.3096 794 c 1
 37.6963 813 56.6992 852 74.707 930 c 1
 204.707 930 l 1
 165.69 761 50.6074 700 -103.393 700 c 1
 -88.3857 765 l 1x78
 -73.3857 765 -56.46 795 -48.3789 830 c 0
 -40.2988 865 -45.5273 890 -59.5273 890 c 1
EndSplineSet
Substitution2: "Thai Tone & Vowel Above-Narrow" uni0E4A.narrow
Substitution2: "Thai Special Tone for Asc" uni0E4A
Position2: "Tone Low-Left" dx=-200 dy=0 dh=0 dv=0
Substitution2: "Tone Low-High" uni0E4A
EndChar

StartChar: uni0E4B.low
Encoding: 63240 63240 16
Width: 0
VWidth: 0
Flags: W
HStem: 790 80<-159.145 -77.6143 60.8555 142.386>
VStem: -177.614 338.47
AnchorPoint: "thai_above" 333.267 630 mark 0
LayerCount: 2
Fore
SplineSet
-38.3662 960 m 1
 81.6338 960 l 1
 60.8555 870 l 1
 160.855 870 l 1
 142.386 790 l 1
 42.3857 790 l 1
 21.6074 700 l 1
 -98.3926 700 l 1
 -77.6143 790 l 1
 -177.614 790 l 1
 -159.145 870 l 1
 -59.1445 870 l 1
 -38.3662 960 l 1
EndSplineSet
Position2: "Tone Low-Left" dx=-230 dy=0 dh=0 dv=0
Substitution2: "Tone Low-High" uni0E4B
EndChar

StartChar: uni0E4C.low
Encoding: 63241 63241 17
Width: 0
VWidth: 0
Flags: W
HStem: 690 50<-86.5154 -20.6252>
VStem: -139.923 295.25
AnchorPoint: "thai_above" 333.267 630 mark 0
LayerCount: 2
Fore
SplineSet
30.3271 976 m 1
 155.327 976 l 1
 140.321 911 75.9336 879 28.8525 844 c 1
 40.9277 827 45.8486 805 40.0771 780 c 0
 28.7646 731 -20.7012 690 -70.7012 690 c 0
 -120.701 690 -151.235 731 -139.923 780 c 0
 -117.528 877 14.6279 908 30.3271 976 c 1
-42.9971 810 m 0
 -61.9971 810 -81.46 795 -85.8467 776 c 0
 -90.4639 756 -78.1572 740 -59.1572 740 c 0
 -40.1572 740 -20.4639 756 -15.8467 776 c 0
 -11.46 795 -23.9971 810 -42.9971 810 c 0
EndSplineSet
Position2: "Tone Low-Left" dx=-140 dy=0 dh=0 dv=0
Substitution2: "Tone Low-High" uni0E4C
EndChar

StartChar: uni0E10.descless
Encoding: 63232 63232 18
Width: 600
VWidth: 0
Flags: W
HStem: 90 65<176.352 257.388> 245 65<185.431 264.992> 365 60<299.119 396.004> 505 95<635.878 676.589> 520 100<357.998 553.861>
LayerCount: 2
Fore
SplineSet
231.562 245 m 0xe0
 206.562 245 181.945 225 176.174 200 c 0
 170.402 175 185.784 155 210.784 155 c 0
 235.784 155 260.402 175 266.174 200 c 0
 271.945 225 256.562 245 231.562 245 c 0xe0
144.267 365 m 1
 181.437 526 322.139 620 463.139 620 c 0xe8
 558.139 620 599.133 568 613.132 555 c 1
 632.519 574 667.521 600 698.521 600 c 1
 676.589 505 l 1xf0
 647.589 505 609.971 485 591.199 460 c 1
 564.818 493 526.052 520 460.052 520 c 0xe8
 368.052 520 317.2 473 299.119 425 c 1
 484.119 425 606.503 418 579.261 300 c 2
 523.853 60 l 2
 513.463 15 421.691 -10 327.691 -10 c 1
 336.545 63 331.936 121 314.938 160 c 1
 289.474 119 242.778 90 195.778 90 c 0
 134.778 90 97.0908 139 111.174 200 c 0
 125.257 261 185.569 310 246.569 310 c 0
 341.569 310 378.097 204 382.163 96 c 1
 429.261 300 l 2
 443.574 362 251.267 365 144.267 365 c 1
EndSplineSet
EndChar

StartChar: uni0E0D.descless
Encoding: 63247 63247 19
Width: 930
VWidth: 0
Flags: W
HStem: -20 110<640.974 742.454> -10 80<206.727 286.681> 505 115<346.609 533.138> 580 20G<853.903 1008.52>
LayerCount: 2
Fore
SplineSet
126.55 115 m 2x60
 162.334 270 l 2
 178.957 342 224.883 372 250.423 383 c 1
 146.965 420 l 1
 183.818 493 304.139 620 483.139 620 c 0x60
 634.139 620 733.745 536 702.348 400 c 2
 640.013 130 l 2
 634.703 107 647.778 90 685.778 90 c 0
 723.778 90 744.703 107 750.013 130 c 2
 858.521 600 l 1
 1008.52 600 l 1
 900.013 130 l 2
 891.24 92 855.383 -20 660.383 -20 c 0x90
 465.383 -20 481.24 92 490.013 130 c 2
 552.348 400 l 2
 569.201 473 522.589 505 456.589 505 c 0
 378.589 505 319.432 474 285.89 437 c 1
 412.348 400 l 1
 407.729 380 l 1
 407.729 380 333.805 363 312.334 270 c 2
 304.946 238 l 1
 359.176 226 390.402 175 376.55 115 c 0
 360.62 46 291.691 -10 222.691 -10 c 0
 153.691 -10 110.62 46 126.55 115 c 2x60
261.938 160 m 0
 236.938 160 212.321 140 206.55 115 c 0
 200.778 90 216.161 70 241.161 70 c 0
 266.161 70 290.778 90 296.55 115 c 0
 302.321 140 286.938 160 261.938 160 c 0
EndSplineSet
EndChar

StartChar: uni0E36
Encoding: 3638 3638 20
Width: 0
VWidth: 0
Flags: W
HStem: 860 100<-231.144 -77.212> 925 65<3.59346 71.2042>
AnchorPoint: "thai_above" 333.267 630 mark 0
LayerCount: 2
Fore
SplineSet
58.5596 990 m 0x40
 113.56 990 148.171 945 135.473 890 c 0
 126.931 853 99.3115 820 64.3867 803 c 1
 80.7676 757 84.1475 711 76.9902 680 c 1
 -95.002 758 -291.231 770 -412.231 770 c 1
 -401.381 817 -305.366 960 -148.366 960 c 0x80
 -107.366 960 -72.4443 951 -43.1387 935 c 1
 -19.5195 968 19.5596 990 58.5596 990 c 0x40
43.5527 925 m 0x40
 24.5527 925 4.85938 909 0.472656 890 c 0
 -3.91406 871 8.39258 855 27.3926 855 c 0
 46.3926 855 66.0859 871 70.4727 890 c 0
 74.8594 909 62.5527 925 43.5527 925 c 0x40
-161.453 860 m 0x80
 -199.453 860 -235.07 840 -255.228 809 c 1
 -184.382 804 -104.383 791 -27.6934 768 c 1
 -48.3037 813 -84.4531 860 -161.453 860 c 0x80
EndSplineSet
Substitution2: "Thai Tone & Vowel Above-Narrow" uni0E36.narrow
Position2: "Vowel Above-Left" dx=-140 dy=0 dh=0 dv=0
EndChar

StartChar: uni0E37
Encoding: 3639 3639 21
Width: 0
VWidth: 0
Flags: W
HStem: 840 100<-235.761 -130.193>
AnchorPoint: "thai_above" 333.267 630 mark 0
LayerCount: 2
Fore
SplineSet
33.9424 970 m 1
 134.707 930 l 1
 72.373 660 l 1
 -99.6191 738 -295.849 750 -416.849 750 c 1
 -405.998 797 -309.984 940 -152.984 940 c 0
 -145.984 940 -138.984 940 -133.215 939 c 1
 -116.823 1010 l 1
 -16.0576 970 l 1
 -33.373 895 l 1
 -13.7598 876 -0.300781 852 10.1592 828 c 1
 8.54492 847 9.70117 865 13.1641 880 c 2
 33.9424 970 l 1
-259.845 789 m 1
 -188.999 784 -109.001 771 -32.3105 748 c 1
 -52.9219 793 -89.0703 840 -166.07 840 c 0
 -204.07 840 -239.688 820 -259.845 789 c 1
EndSplineSet
Substitution2: "Thai Tone & Vowel Above-Narrow" uni0E37.narrow
Position2: "Vowel Above-Left" dx=-140 dy=0 dh=0 dv=0
EndChar

StartChar: uni0E2D
Encoding: 3629 3629 22
Width: 650
VWidth: 0
Flags: W
HStem: -20 110<254.822 432.181> 305 75<214.197 293.934> 500 120<334.105 516.697>
LayerCount: 2
Fore
SplineSet
260.415 305 m 0
 235.415 305 210.798 285 205.025 260 c 0
 199.254 235 214.637 215 239.637 215 c 0
 264.637 215 289.254 235 295.025 260 c 0
 300.798 285 285.415 305 260.415 305 c 0
277.729 380 m 0
 343.729 380 385.263 326 370.025 260 c 0
 356.636 202 303.323 153 245.783 142 c 1
 247.163 96 291.778 90 345.778 90 c 0
 408.778 90 457.474 119 469.248 170 c 2
 526.965 420 l 2
 538.739 471 505.434 500 430.434 500 c 0
 355.434 500 308.739 471 296.965 420 c 1
 146.965 420 l 1
 173.515 535 291.139 620 458.139 620 c 0
 625.139 620 703.515 535 676.965 420 c 2
 619.248 170 l 2
 587.85 34 465.383 -20 320.383 -20 c 0
 175.383 -20 77.8496 34 109.248 170 c 2
 130.025 260 l 2
 145.263 326 211.729 380 277.729 380 c 0
EndSplineSet
EndChar

StartChar: uni0E4D
Encoding: 3661 3661 23
Width: 0
VWidth: 0
Flags: W
HStem: 700 70<-45.1461 33.2751> 910 70<-25.4164 53.0048>
VStem: -146.07 300
AnchorPoint: "thai_above" 333.267 630 mark 0
LayerCount: 2
Fore
SplineSet
36.251 980 m 0
 119.251 980 171.706 917 153.93 840 c 0
 136.152 763 54.6074 700 -28.3926 700 c 0
 -111.393 700 -163.848 763 -146.07 840 c 0
 -128.294 917 -46.749 980 36.251 980 c 0
20.0898 910 m 0
 -12.9102 910 -37.0664 879 -46.0703 840 c 0
 -55.0742 801 -45.2314 770 -12.2314 770 c 0
 20.7686 770 44.9258 801 53.9297 840 c 0
 62.9336 879 53.0898 910 20.0898 910 c 0
EndSplineSet
Position2: "Vowel Above-Left" dx=-220 dy=0 dh=0 dv=0
EndChar

StartChar: uni0E33
Encoding: 3635 3635 24
Width: 550
VWidth: 0
Flags: W
HStem: 0 21G<340 494.617> 500 120<312.186 429.152> 700 70<-45.1461 33.2751> 910 70<-25.4164 53.0048>
LayerCount: 2
Fore
SplineSet
36.251 980 m 0
 119.251 980 171.706 917 153.93 840 c 0
 136.152 763 54.6074 700 -28.3926 700 c 0
 -111.393 700 -163.848 763 -146.07 840 c 0
 -128.294 917 -46.749 980 36.251 980 c 0
20.0898 910 m 0
 -12.9102 910 -37.0664 879 -46.0703 840 c 0
 -55.0742 801 -45.2314 770 -12.2314 770 c 0
 20.7686 770 44.9258 801 53.9297 840 c 0
 62.9336 879 53.0898 910 20.0898 910 c 0
582.348 400 m 2
 490 0 l 1
 340 0 l 1
 432.348 400 l 2
 447.585 466 427.434 500 375.434 500 c 0
 323.434 500 287.585 466 272.348 400 c 1
 122.348 400 l 1
 151.206 525 259.139 620 403.139 620 c 0
 547.139 620 611.206 525 582.348 400 c 2
EndSplineSet
MultipleSubs2: "Sara Am Decomposite" uni0E4D uni0E32
EndChar

StartChar: uni0E32
Encoding: 3634 3634 25
Width: 550
VWidth: 0
Flags: W
HStem: 0 21G<340 494.617> 500 120<312.186 429.152>
LayerCount: 2
Fore
SplineSet
582.348 400 m 2
 490 0 l 1
 340 0 l 1
 432.348 400 l 2
 447.585 466 427.434 500 375.434 500 c 0
 323.434 500 287.585 466 272.348 400 c 1
 122.348 400 l 1
 151.206 525 259.139 620 403.139 620 c 0
 547.139 620 611.206 525 582.348 400 c 2
EndSplineSet
Substitution2: "Sara AA Substitute" uni0E45
EndChar

StartChar: uni0E25
Encoding: 3621 3621 26
Width: 650
VWidth: 0
Flags: W
HStem: -20 75<188.631 268.916> 145 75<217.568 276.995> 275 95<255.969 429.032> 500 120<346.008 514.932>
LayerCount: 2
Fore
SplineSet
243.476 145 m 0
 218.476 145 193.858 125 188.087 100 c 0
 182.315 75 197.697 55 222.697 55 c 0
 247.697 55 272.315 75 278.087 100 c 0
 283.858 125 268.476 145 243.476 145 c 0
260.791 220 m 0
 326.791 220 368.324 166 353.087 100 c 0
 337.85 34 271.383 -20 205.383 -20 c 0
 117.383 -20 62.4668 54 89.248 170 c 0
 112.104 269 212.421 370 345.421 370 c 0
 428.421 370 474.11 334 496.49 288 c 1
 526.965 420 l 2
 538.739 471 499.434 500 435.434 500 c 0
 371.434 500 318.739 471 306.965 420 c 1
 156.965 420 l 1
 183.515 535 296.139 620 463.139 620 c 0
 630.139 620 703.515 535 676.965 420 c 2
 586.926 30 l 2
 578.615 -6 417.691 -10 417.691 -10 c 1
 456.938 160 l 2
 471.021 221 432.488 275 343.488 275 c 0
 293.488 275 244.641 254 216.944 212 c 1
 231.099 217 245.791 220 260.791 220 c 0
EndSplineSet
EndChar

StartChar: uni0E40
Encoding: 3648 3648 27
Width: 340
VWidth: 0
Flags: W
HStem: -10 80<171.727 251.681> 580 20G<198.903 353.521>
VStem: 91.5498 261.971
LayerCount: 2
Fore
SplineSet
226.938 160 m 0
 201.938 160 177.321 140 171.55 115 c 0
 165.778 90 181.161 70 206.161 70 c 0
 231.161 70 255.778 90 261.55 115 c 0
 267.321 140 251.938 160 226.938 160 c 0
91.5498 115 m 2
 203.521 600 l 1
 353.521 600 l 1
 269.946 238 l 1
 324.176 226 355.402 175 341.55 115 c 0
 325.62 46 256.691 -10 187.691 -10 c 0
 118.691 -10 75.6201 46 91.5498 115 c 2
EndSplineSet
EndChar

StartChar: uni0E41
Encoding: 3649 3649 28
Width: 630
VWidth: 0
Flags: W
HStem: -10 80<171.727 251.681 461.727 541.681> 580 20G<198.903 353.521 488.903 643.521>
LayerCount: 2
Fore
SplineSet
226.938 160 m 0
 201.938 160 177.321 140 171.55 115 c 0
 165.778 90 181.161 70 206.161 70 c 0
 231.161 70 255.778 90 261.55 115 c 0
 267.321 140 251.938 160 226.938 160 c 0
91.5498 115 m 2
 203.521 600 l 1
 353.521 600 l 1
 269.946 238 l 1
 324.176 226 355.402 175 341.55 115 c 0
 325.62 46 256.691 -10 187.691 -10 c 0
 118.691 -10 75.6201 46 91.5498 115 c 2
516.938 160 m 0
 491.938 160 467.321 140 461.55 115 c 0
 455.778 90 471.161 70 496.161 70 c 0
 521.161 70 545.778 90 551.55 115 c 0
 557.321 140 541.938 160 516.938 160 c 0
381.55 115 m 2
 493.521 600 l 1
 643.521 600 l 1
 559.946 238 l 1
 614.176 226 645.402 175 631.55 115 c 0
 615.62 46 546.691 -10 477.691 -10 c 0
 408.691 -10 365.62 46 381.55 115 c 2
EndSplineSet
EndChar

StartChar: uni0E2A
Encoding: 3626 3626 29
Width: 660
VWidth: 0
Flags: W
HStem: -20 75<188.631 268.916> 145 75<217.568 276.995> 275 95<255.969 429.032> 500 120<346.008 514.687>
VStem: 686.225 120<644.929 720>
LayerCount: 2
Fore
SplineSet
260.791 220 m 0
 326.791 220 368.324 166 353.087 100 c 0
 337.85 34 271.383 -20 205.383 -20 c 0
 117.383 -20 62.4668 54 89.248 170 c 0
 112.104 269 212.421 370 345.421 370 c 0
 428.421 370 474.11 334 496.49 288 c 1
 526.965 420 l 2
 538.739 471 499.434 500 435.434 500 c 0
 371.434 500 318.739 471 306.965 420 c 1
 156.965 420 l 1
 183.515 535 296.139 620 463.139 620 c 0
 531.139 620 583.906 606 620.135 581 c 1
 651.984 615 670.988 654 686.225 720 c 1
 806.225 720 l 1
 784.523 626 732.516 548 676.819 506 c 1
 683.816 480 684.121 451 676.965 420 c 2
 586.926 30 l 2
 578.615 -6 417.691 -10 417.691 -10 c 1
 456.938 160 l 2
 471.021 221 432.488 275 343.488 275 c 0
 293.488 275 244.641 254 216.944 212 c 1
 231.099 217 245.791 220 260.791 220 c 0
243.476 145 m 0
 218.476 145 193.858 125 188.087 100 c 0
 182.315 75 197.697 55 222.697 55 c 0
 247.697 55 272.315 75 278.087 100 c 0
 283.858 125 268.476 145 243.476 145 c 0
EndSplineSet
Substitution2: "Ascent Substitute" uni0E2A.alt
EndChar

StartChar: uni0E2E
Encoding: 3630 3630 30
Width: 660
VWidth: 0
Flags: W
HStem: -20 110<254.822 432.181> 305 75<214.197 293.934> 500 120<334.105 516.268>
VStem: 686.225 120<644.493 720>
LayerCount: 2
Fore
SplineSet
277.729 380 m 0
 343.729 380 385.263 326 370.025 260 c 0
 356.636 202 303.323 153 245.783 142 c 1
 247.163 96 291.778 90 345.778 90 c 0
 408.778 90 457.474 119 469.248 170 c 2
 526.965 420 l 2
 538.739 471 505.434 500 430.434 500 c 0
 355.434 500 308.739 471 296.965 420 c 1
 146.965 420 l 1
 173.515 535 291.139 620 458.139 620 c 0
 527.139 620 581.676 605 619.903 580 c 1
 650.753 614 670.757 653 686.225 720 c 1
 806.225 720 l 1
 784.293 625 731.516 548 675.819 506 c 1
 683.816 480 684.121 451 676.965 420 c 2
 619.248 170 l 2
 587.85 34 465.383 -20 320.383 -20 c 0
 175.383 -20 77.8496 34 109.248 170 c 2
 130.025 260 l 2
 145.263 326 211.729 380 277.729 380 c 0
260.415 305 m 0
 235.415 305 210.798 285 205.025 260 c 0
 199.254 235 214.637 215 239.637 215 c 0
 264.637 215 289.254 235 295.025 260 c 0
 300.798 285 285.415 305 260.415 305 c 0
EndSplineSet
Substitution2: "Ascent Substitute" uni0E2E.alt
EndChar

StartChar: uni0E1D
Encoding: 3613 3613 31
Width: 740
VWidth: 0
Flags: W
HStem: 370 70<285.421 361.549> 540 70<284.857 372.138>
LayerCount: 2
Fore
SplineSet
334.669 540 m 0
 306.669 540 279.59 518 273.125 490 c 0
 266.661 462 283.582 440 311.582 440 c 0
 339.582 440 366.661 462 373.125 490 c 0
 379.59 518 362.669 540 334.669 540 c 0
713.93 840 m 1
 863.93 840 l 1
 808.521 600 l 1
 695.396 110 l 2
 669.77 -1 564.691 -10 457.691 -10 c 1
 411.715 224 l 1
 257.691 -10 l 1
 150.691 -10 49.7695 -1 75.3955 110 c 2
 151.582 440 l 2
 173.515 535 251.83 610 350.83 610 c 0
 416.83 610 458.362 556 443.125 490 c 0
 427.888 424 361.421 370 295.421 370 c 0
 292.421 370 288.421 370 285.421 370 c 1
 216.622 72 l 1
 391.187 330 l 1
 481.187 330 l 1
 536.622 72 l 1
 658.521 600 l 1
 713.93 840 l 1
EndSplineSet
EndChar

StartChar: uni0E1A
Encoding: 3610 3610 32
Width: 720
VWidth: 0
Flags: W
HStem: -20 120<348.29 522.073> 530 80<242.19 330.366> 580 20G<643.903 798.521>
LayerCount: 2
Fore
SplineSet
648.521 600 m 1xa0
 798.521 600 l 1xa0
 699.248 170 l 2
 667.85 34 558.383 -20 400.383 -20 c 0
 242.383 -20 157.85 34 189.248 170 c 2
 231.266 352 l 1
 171.344 361 135.811 415 150.816 480 c 0
 167.439 552 238.83 610 310.83 610 c 0xc0
 382.83 610 427.439 552 410.816 480 c 2
 339.248 170 l 2
 326.088 113 375.087 100 428.087 100 c 0
 481.087 100 536.088 113 549.248 170 c 2
 648.521 600 l 1xa0
292.36 530 m 0xc0
 264.36 530 237.281 508 230.816 480 c 0
 224.353 452 241.273 430 269.273 430 c 0
 297.273 430 324.353 452 330.816 480 c 0
 337.281 508 320.36 530 292.36 530 c 0xc0
EndSplineSet
EndChar

StartChar: uni0E1B
Encoding: 3611 3611 33
Width: 730
VWidth: 0
Flags: W
HStem: -20 120<348.29 522.073> 530 80<242.19 330.366>
LayerCount: 2
Fore
SplineSet
292.36 530 m 0
 264.36 530 237.281 508 230.816 480 c 0
 224.353 452 241.273 430 269.273 430 c 0
 297.273 430 324.353 452 330.816 480 c 0
 337.281 508 320.36 530 292.36 530 c 0
703.93 840 m 1
 853.93 840 l 1
 798.521 600 l 1
 699.248 170 l 2
 667.85 34 558.383 -20 400.383 -20 c 0
 242.383 -20 157.85 34 189.248 170 c 2
 231.266 352 l 1
 171.344 361 135.811 415 150.816 480 c 0
 167.439 552 238.83 610 310.83 610 c 0
 382.83 610 427.439 552 410.816 480 c 2
 339.248 170 l 2
 326.088 113 375.087 100 428.087 100 c 0
 481.087 100 536.088 113 549.248 170 c 2
 648.521 600 l 1
 703.93 840 l 1
EndSplineSet
EndChar

StartChar: uni0E49
Encoding: 3657 3657 34
Width: 0
VWidth: 0
Flags: W
HStem: 1020 75<-117.657 -31.1992> 1205 55<-13.4366 45.7646>
VStem: 183.968 130<1162.35 1230>
LayerCount: 2
Fore
SplineSet
22.1963 1205 m 0
 6.19629 1205 -10.8047 1192 -14.7295 1175 c 0
 -18.6543 1158 -7.65625 1145 8.34375 1145 c 0
 25.3438 1145 41.3457 1158 45.2705 1175 c 0
 49.1953 1192 39.1963 1205 22.1963 1205 c 0
34.8936 1260 m 0
 81.8936 1260 112.121 1222 101.271 1175 c 0
 92.0352 1135 64.0332 1109 45.0312 1096 c 1
 121.647 1103 162.728 1138 183.968 1230 c 1
 313.968 1230 l 1
 283.955 1100 197.485 1020 -4.51465 1020 c 2
 -94.5146 1020 l 2
 -142.515 1020 -137.199 1095 -137.199 1095 c 1
 -31.1992 1095 l 1
 -61.4287 1107 -77.2725 1138 -68.7295 1175 c 0
 -57.8789 1222 -11.1064 1260 34.8936 1260 c 0
EndSplineSet
Substitution2: "Thai Tone & Vowel Above-Narrow" uni0E49.narrow
Position2: "Nikhahit & Tone High-Left" dx=-210 dy=0 dh=0 dv=0
Position2: "Mai Han-Akat & Tone High-Left" dx=-260 dy=0 dh=0 dv=0
Position2: "Tone High-Left" dx=-180 dy=0 dh=0 dv=0
MultipleSubs2: "Tone High-Low" uni0E49.low
EndChar

StartChar: uni0E1C
Encoding: 3612 3612 35
Width: 730
VWidth: 0
Flags: W
HStem: 370 70<285.421 361.549> 540 70<284.857 372.138> 580 20G<653.903 808.521>
LayerCount: 2
Fore
SplineSet
334.669 540 m 0xc0
 306.669 540 279.59 518 273.125 490 c 0
 266.661 462 283.582 440 311.582 440 c 0
 339.582 440 366.661 462 373.125 490 c 0
 379.59 518 362.669 540 334.669 540 c 0xc0
350.83 610 m 0
 416.83 610 458.362 556 443.125 490 c 0
 427.888 424 361.421 370 295.421 370 c 0
 292.421 370 288.421 370 285.421 370 c 1
 216.622 72 l 1
 391.187 330 l 1
 481.187 330 l 1
 536.622 72 l 1
 658.521 600 l 1
 808.521 600 l 1xa0
 695.396 110 l 2
 669.77 -1 564.691 -10 457.691 -10 c 1
 411.715 224 l 1
 257.691 -10 l 1
 150.691 -10 49.7695 -1 75.3955 110 c 2
 151.582 440 l 2
 173.515 535 251.83 610 350.83 610 c 0
EndSplineSet
EndChar

StartChar: uni0E1E
Encoding: 3614 3614 36
Width: 770
VWidth: 0
Flags: W
HStem: 530 80<242.19 330.366> 580 20G<693.903 848.521>
VStem: 507.691 79.7822<119 338> 508.033 70.0918<156.646 338>
LayerCount: 2
Fore
SplineSet
698.521 600 m 1x60
 848.521 600 l 1
 728.47 80 l 2
 712.078 9 616.691 -10 507.691 -10 c 1x60
 508.033 338 l 1
 347.691 -10 l 1
 238.691 -10 152.078 9 168.47 80 c 2
 231.266 352 l 1
 171.344 361 135.811 415 150.816 480 c 0
 167.439 552 238.83 610 310.83 610 c 0
 382.83 610 427.439 552 410.816 480 c 2
 327.474 119 l 1
 508.125 490 l 1
 578.125 490 l 1x90
 587.474 119 l 1
 698.521 600 l 1x60
292.36 530 m 0x80
 264.36 530 237.281 508 230.816 480 c 0
 224.353 452 241.273 430 269.273 430 c 0
 297.273 430 324.353 452 330.816 480 c 0
 337.281 508 320.36 530 292.36 530 c 0x80
EndSplineSet
EndChar

StartChar: uni0E1F
Encoding: 3615 3615 37
Width: 780
VWidth: 0
Flags: W
HStem: 530 80<242.19 330.366>
VStem: 507.691 79.7822<119 338> 508.033 70.0918<156.646 338>
LayerCount: 2
Fore
SplineSet
292.36 530 m 0x80
 264.36 530 237.281 508 230.816 480 c 0
 224.353 452 241.273 430 269.273 430 c 0
 297.273 430 324.353 452 330.816 480 c 0
 337.281 508 320.36 530 292.36 530 c 0x80
753.93 840 m 1
 903.93 840 l 1
 848.521 600 l 1
 728.47 80 l 2
 712.078 9 616.691 -10 507.691 -10 c 1xc0
 508.033 338 l 1
 347.691 -10 l 1
 238.691 -10 152.078 9 168.47 80 c 2
 231.266 352 l 1
 171.344 361 135.811 415 150.816 480 c 0
 167.439 552 238.83 610 310.83 610 c 0
 382.83 610 427.439 552 410.816 480 c 2
 327.474 119 l 1
 508.125 490 l 1
 578.125 490 l 1xa0
 587.474 119 l 1xc0
 698.521 600 l 1
 753.93 840 l 1
EndSplineSet
EndChar

StartChar: uni0E30
Encoding: 3632 3632 38
Width: 540
VWidth: 0
Flags: W
HStem: 30 90<244.369 356.275> 225 65<151.193 217.911> 340 90<315.938 427.845> 535 65<222.762 289.479>
LayerCount: 2
Fore
SplineSet
191.945 225 m 0
 171.945 225 152.251 209 147.865 190 c 0
 143.479 171 155.784 155 175.784 155 c 0
 194.784 155 213.479 171 217.865 190 c 0
 222.251 209 210.945 225 191.945 225 c 0
206.952 290 m 0
 261.952 290 296.562 245 283.865 190 c 0
 277.862 164 262.553 141 242.396 123 c 1
 252.936 121 266.704 120 281.704 120 c 0
 349.704 120 411.325 179 430.025 260 c 1
 550.025 260 l 1
 523.245 144 417.926 30 260.926 30 c 0
 152.926 30 59.3926 84 83.8652 190 c 0
 96.5625 245 150.952 290 206.952 290 c 0
263.515 535 m 0
 243.515 535 223.82 519 219.435 500 c 0
 215.048 481 227.354 465 247.354 465 c 0
 266.354 465 285.048 481 289.434 500 c 0
 293.82 519 282.515 535 263.515 535 c 0
278.521 600 m 0
 333.521 600 368.132 555 355.434 500 c 0
 349.432 474 334.121 451 313.966 433 c 1
 324.504 431 338.273 430 353.273 430 c 0
 421.273 430 482.895 489 501.595 570 c 1
 621.595 570 l 1
 594.814 454 489.495 340 332.495 340 c 0
 224.495 340 130.962 394 155.435 500 c 0
 168.132 555 222.521 600 278.521 600 c 0
EndSplineSet
EndChar

StartChar: uni0E43
Encoding: 3651 3651 39
Width: 400
VWidth: 0
Flags: W
HStem: -10 80<226.727 306.681> 750 60<255.69 330.617> 940 80<371.619 468.871>
LayerCount: 2
Fore
SplineSet
281.938 160 m 0
 256.938 160 232.321 140 226.55 115 c 0
 220.778 90 236.161 70 261.161 70 c 0
 286.161 70 310.778 90 316.55 115 c 0
 322.321 140 306.938 160 281.938 160 c 0
305.473 890 m 0
 283.473 890 261.317 872 256.238 850 c 0
 251.159 828 265.003 810 287.003 810 c 0
 309.003 810 331.159 828 336.238 850 c 0
 341.317 872 327.473 890 305.473 890 c 0
258.521 600 m 2
 282.762 705 454.306 755 478.547 860 c 0
 487.319 898 469.016 940 407.016 940 c 0
 393.016 940 380.555 938 368.861 935 c 1
 392.706 917 404.549 886 396.238 850 c 0
 383.54 795 328.151 750 273.151 750 c 0
 218.151 750 183.54 795 196.238 850 c 0
 213.092 923 296.485 1020 425.485 1020 c 0
 549.485 1020 597.016 940 578.547 860 c 0
 552.689 748 432.993 706 408.521 600 c 2
 324.946 238 l 1
 379.176 226 410.402 175 396.55 115 c 0
 380.62 46 311.691 -10 242.691 -10 c 0
 173.691 -10 130.62 46 146.55 115 c 2
 258.521 600 l 2
EndSplineSet
EndChar

StartChar: uni0E44
Encoding: 3652 3652 40
Width: 400
VWidth: 0
Flags: W
HStem: -10 80<226.727 306.681> 930 90<245.485 309.472>
LayerCount: 2
Fore
SplineSet
281.938 160 m 0
 256.938 160 232.321 140 226.55 115 c 0
 220.778 90 236.161 70 261.161 70 c 0
 286.161 70 310.778 90 316.55 115 c 0
 322.321 140 306.938 160 281.938 160 c 0
398.171 945 m 1
 595.485 1020 l 1
 611.485 1020 638.098 988 627.016 940 c 0
 601.621 830 447.307 768 408.521 600 c 2
 324.946 238 l 1
 379.176 226 410.402 175 396.55 115 c 0
 380.62 46 311.691 -10 242.691 -10 c 0
 173.691 -10 130.62 46 146.55 115 c 2
 258.521 600 l 2
 292.459 747 460.16 841 530.782 913 c 1
 377.393 855 l 1
 377.393 855 300.707 930 224.707 930 c 1
 245.485 1020 l 1
 344.485 1020 398.171 945 398.171 945 c 1
EndSplineSet
EndChar

StartChar: uni0E29
Encoding: 3625 3625 41
Width: 770
VWidth: 0
Flags: W
HStem: -20 120<348.29 522.073> 184 70<513.84 552.479> 395 40<460.393 522.43> 530 80<242.19 330.366> 580 20G<643.903 798.521>
VStem: 782.729 85<323.917 380>
AnchorPoint: "thai_above" 1073.27 630 basechar 0
LayerCount: 2
Fore
SplineSet
292.36 530 m 0xf4
 264.36 530 237.281 508 230.816 480 c 0
 224.353 452 241.273 430 269.273 430 c 0
 297.273 430 324.353 452 330.816 480 c 0
 337.281 508 320.36 530 292.36 530 c 0xf4
648.521 600 m 1xec
 798.521 600 l 1xec
 727.183 291 l 1
 750.8 311 771.495 340 782.729 380 c 1
 867.729 380 l 1
 849.877 307 787.946 238 706.866 203 c 1
 699.248 170 l 2
 667.85 34 558.383 -20 400.383 -20 c 0
 242.383 -20 157.85 34 189.248 170 c 2
 231.266 352 l 1
 171.344 361 135.811 415 150.816 480 c 0
 167.439 552 238.83 610 310.83 610 c 0xf4
 382.83 610 427.439 552 410.816 480 c 2
 339.248 170 l 2
 326.088 113 375.087 100 428.087 100 c 0
 481.087 100 536.088 113 549.248 170 c 2
 552.479 184 l 1
 468.712 198 388.179 252 413.112 360 c 0
 422.578 401 464.428 435 505.428 435 c 0
 546.428 435 572.578 401 563.112 360 c 0
 555.956 329 530.953 303 502.183 291 c 1
 518.104 269 541.564 258 568.641 254 c 1
 648.521 600 l 1xec
496.193 395 m 0
 477.193 395 457.499 379 453.112 360 c 0
 448.726 341 461.032 325 480.032 325 c 0
 499.032 325 518.727 341 523.112 360 c 0
 527.499 379 515.193 395 496.193 395 c 0
EndSplineSet
EndChar

StartChar: uni0E42
Encoding: 3650 3650 42
Width: 400
VWidth: 0
Flags: W
HStem: -10 80<226.727 306.681> 930 90<330.304 484.306>
LayerCount: 2
Fore
SplineSet
281.938 160 m 0
 256.938 160 232.321 140 226.55 115 c 0
 220.778 90 236.161 70 261.161 70 c 0
 286.161 70 310.778 90 316.55 115 c 0
 322.321 140 306.938 160 281.938 160 c 0
173.93 840 m 1
 195.861 935 299.485 1020 415.485 1020 c 0
 485.485 1020 521.789 978 532.788 965 c 1
 554.174 984 584.177 1010 615.485 1020 c 1
 594.707 930 l 1
 556.398 920 532.627 895 512.01 875 c 1
 479.244 915 453.707 930 404.707 930 c 0
 365.707 930 327.09 910 309.088 884 c 1
 401.701 865 453.31 794 408.521 600 c 2
 324.946 238 l 1
 379.176 226 410.402 175 396.55 115 c 0
 380.62 46 311.691 -10 242.691 -10 c 0
 173.691 -10 130.62 46 146.55 115 c 2
 258.521 600 l 2
 299.615 778 293.93 840 173.93 840 c 1
EndSplineSet
EndChar

StartChar: uni0E21
Encoding: 3617 3617 43
Width: 660
VWidth: 0
Flags: W
HStem: -20 85<164.584 256.515> 530 80<252.19 340.366> 580 20G<583.903 738.521>
LayerCount: 2
Fore
SplineSet
302.36 530 m 0xc0
 274.36 530 247.281 508 240.816 480 c 0
 234.353 452 251.273 430 279.273 430 c 0
 307.273 430 334.353 452 340.816 480 c 0
 347.281 508 330.36 530 302.36 530 c 0xc0
588.521 600 m 1xa0
 738.521 600 l 1xa0
 613.853 60 l 2
 603.463 15 524.691 -10 427.691 -10 c 1
 427.691 -10 421.622 72 358.166 122 c 1
 358.166 122 357.936 121 357.704 120 c 0
 339.928 43 262.383 -20 185.383 -20 c 0
 108.383 -20 59.9277 43 77.7041 120 c 0
 93.1719 187 153.101 243 219.333 257 c 1
 241.266 352 l 1
 181.344 361 145.811 415 160.816 480 c 0
 177.439 552 248.83 610 320.83 610 c 0xc0
 392.83 610 437.439 552 420.816 480 c 2
 364.485 236 l 1
 418.252 209 455.632 163 477.242 118 c 1
 588.521 600 l 1xa0
230.402 175 m 0
 200.402 175 169.63 150 162.704 120 c 0
 155.778 90 175.007 65 205.007 65 c 0
 235.007 65 265.778 90 272.704 120 c 0
 279.63 150 260.402 175 230.402 175 c 0
EndSplineSet
EndChar

StartChar: uni0E06
Encoding: 3590 3590 44
Width: 690
VWidth: 0
Flags: W
HStem: -20 85<194.584 286.515> 300 55<192.608 273.722> 445 55<218.95 282.403> 550 60<240.388 325.41> 580 20G<613.903 768.521>
LayerCount: 2
Fore
SplineSet
305.83 610 m 0xf0
 346.83 610 367.75 588 378.517 561 c 1
 411.83 610 l 1
 454.83 610 l 1xf0
 507.905 593 554.899 541 533.891 450 c 0
 509.419 344 432.954 316 397.254 235 c 1
 449.79 207 485.4 162 507.242 118 c 1
 618.521 600 l 1
 768.521 600 l 1xe8
 643.853 60 l 2
 633.463 15 554.691 -10 457.691 -10 c 1
 457.691 -10 451.622 72 388.166 122 c 1
 388.166 122 387.936 121 387.704 120 c 0
 369.928 43 292.383 -20 215.383 -20 c 0
 138.383 -20 89.9277 43 107.704 120 c 0
 124.327 192 193.179 252 264.795 259 c 1
 319.417 331 423.191 382 438.891 450 c 0
 447.895 489 450.744 523 429.978 550 c 1
 381.971 485 l 1
 326.971 485 l 1
 333.204 512 324.978 550 291.978 550 c 0
 259.978 550 235.206 525 218.587 492 c 1
 231.741 497 246.435 500 260.434 500 c 0
 315.434 500 350.045 455 337.348 400 c 0
 324.649 345 269.261 300 214.261 300 c 0
 145.261 300 113.574 362 131.582 440 c 0
 147.281 508 211.83 610 305.83 610 c 0xf0
247.736 445 m 0
 222.736 445 198.119 425 192.348 400 c 0
 186.575 375 201.958 355 226.958 355 c 0
 251.958 355 276.575 375 282.348 400 c 0
 288.119 425 272.736 445 247.736 445 c 0
260.402 175 m 0
 230.402 175 199.63 150 192.704 120 c 0
 185.778 90 205.007 65 235.007 65 c 0
 265.007 65 295.778 90 302.704 120 c 0
 309.63 150 290.402 175 260.402 175 c 0
EndSplineSet
EndChar

StartChar: uni0E31
Encoding: 3633 3633 45
Width: 0
VWidth: 0
Flags: W
HStem: 710 90<-48.6412 63.2654> 905 65<-141.817 -75.0989>
VStem: 137.016 120<877.7 940>
LayerCount: 2
Fore
SplineSet
-101.064 905 m 0
 -121.064 905 -140.758 889 -145.145 870 c 0
 -149.531 851 -137.225 835 -117.225 835 c 0
 -98.2246 835 -79.5312 851 -75.1445 870 c 0
 -70.7578 889 -82.0645 905 -101.064 905 c 0
-86.0576 970 m 0
 -31.0576 970 3.55273 925 -9.14453 870 c 0
 -15.1475 844 -30.457 821 -50.6133 803 c 1
 -40.0742 801 -26.3057 800 -11.3057 800 c 0
 56.6943 800 118.315 859 137.016 940 c 1
 257.016 940 l 1
 230.235 824 124.916 710 -32.084 710 c 0
 -140.084 710 -233.617 764 -209.145 870 c 0
 -196.447 925 -142.058 970 -86.0576 970 c 0
EndSplineSet
Substitution2: "Thai Tone & Vowel Above-Narrow" uni0E31.narrow
Position2: "Vowel Above-Left" dx=-240 dy=0 dh=0 dv=0
EndChar

StartChar: uni0E4C
Encoding: 3660 3660 46
Width: 0
VWidth: 0
Flags: W
HStem: 980 50<-4.71583 61.2159>
VStem: -54.125 302.71
LayerCount: 2
Fore
SplineSet
128.585 1250 m 1
 248.585 1250 l 1
 233.81 1186 162.806 1147 112.188 1114 c 1
 118.955 1100 120.03 1083 115.875 1065 c 0
 105.023 1018 58.251 980 12.251 980 c 0
 -34.749 980 -64.9766 1018 -54.125 1065 c 0
 -32.1934 1160 114.271 1188 128.585 1250 c 1
39.9551 1100 m 0
 19.9551 1100 0.260742 1084 -4.125 1065 c 0
 -8.51172 1046 3.79395 1030 23.7939 1030 c 0
 42.7939 1030 61.4883 1046 65.875 1065 c 0
 70.2607 1084 58.9551 1100 39.9551 1100 c 0
EndSplineSet
Position2: "Tone High-Left" dx=-140 dy=0 dh=0 dv=0
MultipleSubs2: "Tone High-Low" uni0E4C.low
EndChar

StartChar: uni0E39
Encoding: 3641 3641 47
Width: 0
VWidth: 0
Flags: W
HStem: -360 80<-327.439 -251.083> -115 55<-443.314 -361.883>
LayerCount: 2
Fore
SplineSet
-396.55 -115 m 0
 -421.55 -115 -446.167 -135 -451.938 -160 c 0
 -457.711 -185 -442.328 -205 -417.328 -205 c 0
 -392.328 -205 -367.711 -185 -361.938 -160 c 0
 -356.167 -135 -371.55 -115 -396.55 -115 c 0
-449.564 -258 m 1
 -493.486 -249 -518.021 -208 -506.938 -160 c 0
 -494.241 -105 -438.853 -60 -383.853 -60 c 0
 -328.853 -60 -294.241 -105 -306.938 -160 c 2
 -330.025 -260 l 2
 -333.72 -276 -321.644 -280 -294.644 -280 c 0
 -267.644 -280 -253.72 -276 -250.025 -260 c 2
 -208.47 -80 l 1
 -88.4697 -80 l 1
 -130.025 -260 l 2
 -141.8 -311 -168.112 -360 -313.112 -360 c 0
 -458.112 -360 -461.8 -311 -450.025 -260 c 2
 -449.564 -258 l 1
EndSplineSet
Position2: "Vowel Below-Low" dx=0 dy=-200 dh=0 dv=0
EndChar

StartChar: uni0E03
Encoding: 3587 3587 48
Width: 690
VWidth: 0
Flags: W
HStem: -20 120<379.617 498.492> 300 55<192.608 273.722> 445 55<218.95 282.403> 550 60<240.388 325.41> 580 20G<613.903 768.521>
LayerCount: 2
Fore
SplineSet
247.736 445 m 0xe0
 222.736 445 198.119 425 192.348 400 c 0
 186.575 375 201.958 355 226.958 355 c 0
 251.958 355 276.575 375 282.348 400 c 0
 288.119 425 272.736 445 247.736 445 c 0xe0
381.971 485 m 1
 326.971 485 l 1
 333.204 512 324.978 550 291.978 550 c 0
 259.978 550 235.206 525 218.587 492 c 1
 231.741 497 246.435 500 260.434 500 c 0
 315.434 500 350.045 455 337.348 400 c 0
 324.649 345 269.261 300 214.261 300 c 0
 145.261 300 113.574 362 131.582 440 c 0
 147.281 508 211.83 610 305.83 610 c 0
 346.83 610 367.75 588 378.517 561 c 1
 411.83 610 l 1
 454.83 610 l 1xf0
 507.905 593 554.899 541 533.891 450 c 0
 506.187 330 411.569 310 386.174 200 c 2
 376.938 160 l 2
 367.704 120 394.087 100 433.087 100 c 0
 472.087 100 507.704 120 516.938 160 c 2
 618.521 600 l 1
 768.521 600 l 1xe8
 666.938 160 l 2
 651.24 92 593.383 -20 405.383 -20 c 0
 217.383 -20 211.24 92 226.938 160 c 2
 236.174 200 l 2
 260.877 307 419.267 365 438.891 450 c 0
 447.895 489 450.744 523 429.978 550 c 1xf0
 381.971 485 l 1
EndSplineSet
EndChar

StartChar: uni0E22
Encoding: 3618 3618 49
Width: 660
VWidth: 0
Flags: W
HStem: -20 120<243.291 465.263> 250 80<275.674 377.717> 370 70<273.671 361.588> 540 70<284.644 372.138> 580 20G<583.903 738.521>
LayerCount: 2
Fore
SplineSet
588.521 600 m 1xe8
 738.521 600 l 1xe8
 618.47 80 l 2
 613.159 57 479.383 -20 315.383 -20 c 0
 151.383 -20 50.1582 44 79.248 170 c 0
 93.5615 232 139.027 273 199.567 297 c 1
 149.879 333 129.346 387 143.891 450 c 0
 167.67 553 252.83 610 350.83 610 c 0xf0
 416.83 610 458.362 556 443.125 490 c 0
 427.888 424 361.421 370 295.421 370 c 0
 281.421 370 268.883 372 258.037 377 c 1
 275.957 342 325.187 330 396.187 330 c 1
 377.717 250 l 1
 297.717 250 241.253 222 229.248 170 c 0
 217.474 119 279.087 100 343.087 100 c 0
 410.087 100 461.704 120 481.167 135 c 1
 588.521 600 l 1xe8
334.669 540 m 0xf0
 306.669 540 279.59 518 273.125 490 c 0
 266.661 462 283.582 440 311.582 440 c 0
 339.582 440 366.661 462 373.125 490 c 0
 379.59 518 362.669 540 334.669 540 c 0xf0
EndSplineSet
EndChar

StartChar: uni0E46
Encoding: 3654 3654 50
Width: 660
VWidth: 0
Flags: W
HStem: -290 120<240.752 354.245> 250 65<221.857 296.015> 395 65<244.765 302.3> 540 80<272.446 359.838>
LayerCount: 2
Fore
SplineSet
551.53 -80 m 2
 521.056 -212 418.048 -290 213.048 -290 c 1
 240.752 -170 l 1
 329.752 -170 387.447 -141 401.53 -80 c 2
 523.891 450 l 2
 532.664 488 527.052 520 518.515 535 c 1
 445.045 455 l 1
 360.045 455 l 1
 370.203 499 363.669 540 319.669 540 c 0
 278.669 540 256.511 496 244.353 452 c 1
 257.507 457 272.199 460 286.199 460 c 0
 344.199 460 380.349 413 366.958 355 c 0
 353.568 297 295.717 250 237.717 250 c 0
 152.717 250 128.265 339 151.582 440 c 0
 170.514 522 232.139 620 333.139 620 c 0
 388.139 620 420.365 582 435.669 540 c 1
 507.139 620 l 1
 577.139 620 l 1
 647.521 600 692.822 532 673.891 450 c 2
 551.53 -80 l 2
271.193 395 m 0
 249.193 395 227.037 377 221.958 355 c 0
 216.879 333 230.724 315 252.724 315 c 0
 274.724 315 296.879 333 301.958 355 c 0
 307.037 377 293.193 395 271.193 395 c 0
EndSplineSet
EndChar

StartChar: uni0E47
Encoding: 3655 3655 51
Width: 0
VWidth: 0
Flags: W
HStem: 690 65<-78.4765 -40.6148> 850 50<-3.57952 54.8441> 920 85<-205.758 35.1593>
VStem: 59.3379 120<1028.08 1080>
LayerCount: 2
Fore
SplineSet
31.2383 850 m 0
 14.2383 850 -1.76367 837 -5.68848 820 c 0
 -9.61328 803 0.385742 790 17.3857 790 c 0
 34.3857 790 50.3867 803 54.3115 820 c 0
 58.2363 837 48.2383 850 31.2383 850 c 0
42.7812 900 m 0
 86.7812 900 114.47 864 104.312 820 c 0
 88.1514 750 21.2988 690 -50.7012 690 c 0
 -103.701 690 -137.468 717 -150.694 755 c 1
 -204.547 695 l 1
 -309.547 695 -354.31 761 -333.762 850 c 0
 -313.215 939 -237.978 1005 -132.978 1005 c 2
 -17.9775 1005 l 2
 25.0225 1005 50.334 1041 59.3379 1080 c 1
 179.338 1080 l 1
 162.715 1008 92.3984 920 2.39844 920 c 2
 -152.602 920 l 2
 -182.602 920 -216.526 903 -228.762 850 c 0
 -238.92 806 -223.307 787 -200.461 782 c 1
 -153.379 830 l 1
 -83.3789 830 l 1
 -89.6133 803 -83.4639 756 -37.6943 755 c 1
 -54.2314 770 -61.9219 793 -55.6885 820 c 0
 -45.5303 864 -1.21875 900 42.7812 900 c 0
EndSplineSet
Substitution2: "Thai Tone & Vowel Above-Narrow" uni0E47.narrow
Position2: "Vowel Above-Left" dx=-180 dy=0 dh=0 dv=0
EndChar

StartChar: uni0E0B
Encoding: 3595 3595 52
Width: 710
VWidth: 0
Flags: W
HStem: -20 120<379.617 498.492> 300 55<192.608 273.722> 445 55<218.95 282.403> 550 60<240.388 325.41>
VStem: 716.225 140<648.67 720>
LayerCount: 2
Fore
SplineSet
381.971 485 m 1
 326.971 485 l 1
 333.204 512 324.978 550 291.978 550 c 0
 259.978 550 235.206 525 218.587 492 c 1
 231.741 497 246.435 500 260.434 500 c 0
 315.434 500 350.045 455 337.348 400 c 0
 324.649 345 269.261 300 214.261 300 c 0
 145.261 300 113.574 362 131.582 440 c 0
 147.281 508 211.83 610 305.83 610 c 0
 346.83 610 367.75 588 378.517 561 c 1
 411.83 610 l 1
 454.83 610 l 1
 495.828 597 532.979 563 538.819 506 c 1
 607.975 524 685.289 586 716.225 720 c 1
 856.225 720 l 1
 821.595 570 712.895 489 600.507 457 c 1
 654.197 434 721.424 396 713.112 360 c 2
 666.938 160 l 2
 651.24 92 593.383 -20 405.383 -20 c 0
 217.383 -20 211.24 92 226.938 160 c 2
 236.174 200 l 2
 260.877 307 419.267 365 438.891 450 c 0
 447.895 489 450.744 523 429.978 550 c 1
 381.971 485 l 1
247.736 445 m 0
 222.736 445 198.119 425 192.348 400 c 0
 186.575 375 201.958 355 226.958 355 c 0
 251.958 355 276.575 375 282.348 400 c 0
 288.119 425 272.736 445 247.736 445 c 0
524.965 420 m 1
 490.263 326 409.261 300 386.174 200 c 2
 376.938 160 l 2
 367.704 120 394.087 100 433.087 100 c 0
 472.087 100 507.704 120 516.938 160 c 2
 563.112 360 l 2
 567.269 378 546.809 402 524.965 420 c 1
EndSplineSet
Substitution2: "Ascent Substitute" uni0E0B.alt
EndChar

StartChar: uni0E02
Encoding: 3586 3586 53
Width: 660
VWidth: 0
Flags: W
HStem: -20 120<349.617 468.492> 335 55<190.294 271.802> 535 75<293.042 388.026> 580 20G<583.903 738.521>
LayerCount: 2
Fore
SplineSet
245.816 480 m 0xc0
 220.816 480 196.199 460 190.428 435 c 0
 184.656 410 200.039 390 225.039 390 c 0
 250.039 390 274.656 410 280.428 435 c 0
 286.199 460 270.816 480 245.816 480 c 0xc0
350.83 610 m 0xe0
 467.83 610 511.437 526 493.891 450 c 0
 465.725 328 383.646 319 356.174 200 c 2
 346.938 160 l 2
 337.704 120 364.087 100 403.087 100 c 0
 442.087 100 477.704 120 486.938 160 c 2
 588.521 600 l 1
 738.521 600 l 1xd0
 636.938 160 l 2
 621.24 92 563.383 -20 375.383 -20 c 0
 187.383 -20 181.24 92 196.938 160 c 2
 206.174 200 l 2
 231.8 311 368.495 340 393.891 450 c 0
 405.203 499 388.515 535 333.515 535 c 0
 319.515 535 305.053 533 291.129 529 c 1
 325.897 515 345.355 478 335.428 435 c 0
 322.729 380 267.341 335 212.341 335 c 0
 149.341 335 118.884 385 133.891 450 c 0
 154.207 538 247.83 610 350.83 610 c 0xe0
EndSplineSet
EndChar

StartChar: uni0E0A
Encoding: 3594 3594 54
Width: 680
VWidth: 0
Flags: W
HStem: -20 120<349.617 468.492> 335 55<190.294 271.802> 535 75<293.042 389.65>
VStem: 686.225 140<648.67 720>
LayerCount: 2
Fore
SplineSet
245.816 480 m 0
 220.816 480 196.199 460 190.428 435 c 0
 184.656 410 200.039 390 225.039 390 c 0
 250.039 390 274.656 410 280.428 435 c 0
 286.199 460 270.816 480 245.816 480 c 0
570.507 457 m 1
 624.197 434 691.424 396 683.112 360 c 2
 636.938 160 l 2
 621.24 92 563.383 -20 375.383 -20 c 0
 187.383 -20 181.24 92 196.938 160 c 2
 206.174 200 l 2
 231.8 311 368.495 340 393.891 450 c 0
 405.203 499 388.515 535 333.515 535 c 0
 319.515 535 305.053 533 291.129 529 c 1
 325.897 515 345.355 478 335.428 435 c 0
 322.729 380 267.341 335 212.341 335 c 0
 149.341 335 118.884 385 133.891 450 c 0
 154.207 538 247.83 610 350.83 610 c 0
 440.83 610 487.286 560 496.127 503 c 1
 568.128 516 653.441 578 686.225 720 c 1
 826.225 720 l 1
 791.595 570 682.895 489 570.507 457 c 1
533.112 360 m 2
 537.961 381 510.963 407 487.35 426 c 1
 454.263 326 381.8 311 356.174 200 c 2
 346.938 160 l 2
 337.704 120 364.087 100 403.087 100 c 0
 442.087 100 477.704 120 486.938 160 c 2
 533.112 360 l 2
EndSplineSet
Substitution2: "Ascent Substitute" uni0E0A.alt
EndChar

StartChar: uni0E19
Encoding: 3609 3609 55
Width: 690
VWidth: 0
Flags: W
HStem: -20 85<485.376 576.515> 530 80<242.19 330.366> 580 20G<583.903 738.521>
LayerCount: 2
Fore
SplineSet
550.402 175 m 0x80
 520.402 175 489.63 150 482.704 120 c 0
 475.778 90 495.007 65 525.007 65 c 0
 555.007 65 585.778 90 592.704 120 c 0
 599.63 150 580.402 175 550.402 175 c 0x80
292.36 530 m 0xc0
 264.36 530 237.281 508 230.816 480 c 0
 224.353 452 241.273 430 269.273 430 c 0
 297.273 430 324.353 452 330.816 480 c 0
 337.281 508 320.36 530 292.36 530 c 0xc0
394.087 100 m 1
 341.082 48 307.691 -10 307.691 -10 c 1
 211.691 -10 153.463 15 163.853 60 c 2
 231.266 352 l 1
 171.344 361 135.811 415 150.816 480 c 0
 167.439 552 238.83 610 310.83 610 c 0xc0
 382.83 610 427.439 552 410.816 480 c 2
 329.551 128 l 1
 377.018 182 440.254 235 509.564 258 c 1
 588.521 600 l 1
 738.521 600 l 1xa0
 657.717 250 l 1
 636.64 241 l 1
 672.099 217 689.709 172 677.704 120 c 0
 659.928 43 582.383 -20 505.383 -20 c 0
 434.383 -20 388.388 32 394.087 100 c 1
EndSplineSet
EndChar

StartChar: uni0E23
Encoding: 3619 3619 56
Width: 570
VWidth: 0
Flags: W
HStem: -10 80<328.156 416.331> 365 60<269.119 366.004> 505 95<605.878 646.589> 520 100<327.998 523.861>
LayerCount: 2
Fore
SplineSet
389.248 170 m 0xc0
 361.248 170 334.169 148 327.704 120 c 0
 321.24 92 338.161 70 366.161 70 c 0
 394.161 70 421.24 92 427.704 120 c 0
 434.169 148 417.248 170 389.248 170 c 0xc0
114.267 365 m 1
 151.437 526 292.139 620 433.139 620 c 0xd0
 528.139 620 569.133 568 583.132 555 c 1
 602.519 574 637.521 600 668.521 600 c 1
 646.589 505 l 1xe0
 617.589 505 579.971 485 561.199 460 c 1
 534.818 493 496.052 520 430.052 520 c 0xd0
 338.052 520 287.2 473 269.119 425 c 1
 454.119 425 576.503 418 549.261 300 c 2
 507.704 120 l 2
 491.082 48 419.691 -10 347.691 -10 c 0
 275.691 -10 231.082 48 247.704 120 c 0
 262.711 185 323.178 239 387.255 248 c 1
 399.261 300 l 2
 413.574 362 221.267 365 114.267 365 c 1
EndSplineSet
EndChar

StartChar: uni0E07
Encoding: 3591 3591 57
Width: 560
VWidth: 0
Flags: W
HStem: 530 80<432.19 520.366>
LayerCount: 2
Fore
SplineSet
482.36 530 m 0
 454.36 530 427.281 508 420.816 480 c 0
 414.353 452 431.273 430 459.273 430 c 0
 487.273 430 514.353 452 520.816 480 c 0
 527.281 508 510.36 530 482.36 530 c 0
362.163 96 m 1
 421.266 352 l 1
 361.344 361 325.811 415 340.816 480 c 0
 357.439 552 428.83 610 500.83 610 c 0
 572.83 610 617.439 552 600.816 480 c 2
 503.853 60 l 2
 493.463 15 393.691 -10 287.691 -10 c 1
 225.171 174 160.025 260 90.0254 260 c 1
 115.421 370 l 1
 208.421 370 301.488 275 362.163 96 c 1
EndSplineSet
EndChar

StartChar: uni0E0E
Encoding: 3598 3598 58
Width: 700
VWidth: 0
Flags: W
HStem: -300 70<115.172 243.144> -150 70<122.165 270.088> -10 80<146.727 226.681> 505 115<366.843 553.138>
LayerCount: 2
Fore
SplineSet
156.9 -230 m 0
 203.9 -230 242.594 -214 271.598 -175 c 1
 244.292 -159 212.37 -150 175.37 -150 c 0
 156.37 -150 123.754 -157 116.135 -190 c 0
 108.517 -223 137.9 -230 156.9 -230 c 0
201.938 160 m 0
 176.938 160 152.321 140 146.55 115 c 0
 140.778 90 156.161 70 181.161 70 c 0
 206.161 70 230.778 90 236.55 115 c 0
 242.321 140 226.938 160 201.938 160 c 0
306.12 438 m 1
 442.348 400 l 1
 437.729 380 l 1
 437.729 380 373.805 363 352.334 270 c 2
 316.55 115 l 2
 300.62 46 231.691 -10 162.691 -10 c 0
 93.6914 -10 50.6201 46 66.5498 115 c 0
 80.4023 175 135.176 226 194.946 238 c 1
 202.334 270 l 2
 218.265 339 257.421 370 280.191 382 c 1
 166.965 420 l 1
 203.818 493 324.139 620 503.139 620 c 0
 654.139 620 753.745 536 722.348 400 c 2
 630 0 l 1
 576.9 -230 l 2
 563.972 -286 454.048 -290 383.048 -290 c 1
 367.589 -266 349.36 -241 328.439 -219 c 1
 281.896 -269 217.739 -300 140.739 -300 c 0
 79.7393 -300 19.2812 -263 36.1348 -190 c 0
 52.9883 -117 130.53 -80 191.53 -80 c 0
 226.53 -80 265.991 -91 303.835 -109 c 1
 306.913 -100 309.222 -90 311.53 -80 c 1
 401.53 -80 l 1
 395.528 -106 386.987 -130 375.677 -153 c 1
 397.752 -170 416.366 -189 431.748 -209 c 1
 480 0 l 1
 572.348 400 l 2
 589.201 473 542.589 505 476.589 505 c 0
 399.589 505 339.662 475 306.12 438 c 1
EndSplineSet
Substitution2: "Descent Shorten" uni0E0E.shorten
EndChar

StartChar: uni0E2B
Encoding: 3627 3627 59
Width: 700
VWidth: 0
Flags: W
HStem: 0 21G<150 314.617 480 634.617> 530 80<242.19 330.366 602.19 690.366>
LayerCount: 2
Fore
SplineSet
652.36 530 m 0
 624.36 530 597.281 508 590.816 480 c 0
 584.353 452 601.273 430 629.273 430 c 0
 657.273 430 684.353 452 690.816 480 c 0
 697.281 508 680.36 530 652.36 530 c 0
670.83 610 m 0
 742.83 610 787.439 552 770.816 480 c 0
 760.428 435 728.193 395 686.652 371 c 1
 713.112 360 l 1
 630 0 l 1
 480 0 l 1
 555.725 328 l 1
 482.261 300 380.403 188 335.165 109 c 1
 310 0 l 1
 150 0 l 1
 231.266 352 l 1
 171.344 361 135.811 415 150.816 480 c 0
 167.439 552 238.83 610 310.83 610 c 0
 382.83 610 427.439 552 410.816 480 c 2
 360.025 260 l 1
 399.184 304 460.574 362 523.731 393 c 1
 508.041 416 503.198 447 510.816 480 c 0
 527.439 552 598.83 610 670.83 610 c 0
292.36 530 m 0
 264.36 530 237.281 508 230.816 480 c 0
 224.353 452 241.273 430 269.273 430 c 0
 297.273 430 324.353 452 330.816 480 c 0
 337.281 508 320.36 530 292.36 530 c 0
EndSplineSet
EndChar

StartChar: uni0E3A
Encoding: 3642 3642 60
Width: 0
VWidth: 0
Flags: W
HStem: -250 180<-236.021 -137.857>
VStem: -276.938 180<-209.082 -110.918>
LayerCount: 2
Fore
SplineSet
-96.9385 -160 m 0
 -108.713 -211 -156.717 -250 -207.717 -250 c 0
 -258.717 -250 -288.713 -211 -276.938 -160 c 0
 -265.165 -109 -217.161 -70 -166.161 -70 c 0
 -115.161 -70 -85.165 -109 -96.9385 -160 c 0
EndSplineSet
Position2: "Vowel Below-Low" dx=0 dy=-200 dh=0 dv=0
EndChar

StartChar: uni0E53
Encoding: 3667 3667 61
Width: 850
VWidth: 0
Flags: W
HStem: -20 80<290.013 391.974> 0 21G<640 794.617> 190 80<305.981 408.71> 500 120<360.599 455.133>
LayerCount: 2
Fore
SplineSet
363.865 190 m 0xb0
 327.865 190 292.17 161 283.858 125 c 0
 275.547 89 297.853 60 333.853 60 c 0
 369.853 60 405.547 89 413.858 125 c 0
 422.17 161 399.865 190 363.865 190 c 0xb0
415.434 500 m 0
 367.434 500 298.812 428 269.261 300 c 0
 262.104 269 257.408 240 255.406 214 c 1
 289.255 248 336.334 270 382.334 270 c 0
 462.334 270 512.328 205 493.858 125 c 0
 475.389 45 395.383 -20 315.383 -20 c 0xb0
 146.383 -20 76.5498 115 119.261 300 c 0
 161.971 485 323.139 620 443.139 620 c 0
 519.139 620 567.826 571 583.818 493 c 1
 673.139 620 l 1
 733.139 620 l 1
 861.212 590 906.589 505 873.112 360 c 2
 790 0 l 1
 640 0 l 1x70
 723.112 360 l 2
 734.656 410 729.894 476 705.434 500 c 1
 576.187 330 l 1
 456.187 330 l 1
 485.507 457 454.434 500 415.434 500 c 0
EndSplineSet
EndChar

StartChar: uni0E24
Encoding: 3620 3620 62
Width: 680
VWidth: 0
Flags: W
HStem: -10 80<206.727 286.681> 505 115<346.609 533.138>
LayerCount: 2
Fore
SplineSet
261.938 160 m 0
 236.938 160 212.321 140 206.55 115 c 0
 200.778 90 216.161 70 241.161 70 c 0
 266.161 70 290.778 90 296.55 115 c 0
 302.321 140 286.938 160 261.938 160 c 0
126.55 115 m 2
 162.334 270 l 2
 178.957 342 224.883 372 250.423 383 c 1
 146.965 420 l 1
 183.818 493 304.139 620 483.139 620 c 0
 634.139 620 733.745 536 702.348 400 c 2
 610 0 l 1
 547.666 -270 l 1
 397.666 -270 l 1
 460 0 l 1
 552.348 400 l 2
 569.201 473 522.589 505 456.589 505 c 0
 378.589 505 319.432 474 285.89 437 c 1
 412.348 400 l 1
 407.729 380 l 1
 407.729 380 333.805 363 312.334 270 c 2
 304.946 238 l 1
 359.176 226 390.402 175 376.55 115 c 0
 360.62 46 291.691 -10 222.691 -10 c 0
 153.691 -10 110.62 46 126.55 115 c 2
EndSplineSet
EndChar

StartChar: uni0E26
Encoding: 3622 3622 63
Width: 700
VWidth: 0
Flags: W
HStem: -10 80<146.727 226.681> 505 115<366.843 553.138>
LayerCount: 2
Fore
SplineSet
201.938 160 m 0
 176.938 160 152.321 140 146.55 115 c 0
 140.778 90 156.161 70 181.161 70 c 0
 206.161 70 230.778 90 236.55 115 c 0
 242.321 140 226.938 160 201.938 160 c 0
306.12 438 m 1
 442.348 400 l 1
 437.729 380 l 1
 437.729 380 373.805 363 352.334 270 c 2
 316.55 115 l 2
 300.62 46 231.691 -10 162.691 -10 c 0
 93.6914 -10 50.6201 46 66.5498 115 c 0
 80.4023 175 135.176 226 194.946 238 c 1
 202.334 270 l 2
 218.265 339 257.421 370 280.191 382 c 1
 166.965 420 l 1
 203.818 493 324.139 620 503.139 620 c 0
 654.139 620 753.745 536 722.348 400 c 2
 630 0 l 1
 567.666 -270 l 1
 417.666 -270 l 1
 480 0 l 1
 572.348 400 l 2
 589.201 473 542.589 505 476.589 505 c 0
 399.589 505 339.662 475 306.12 438 c 1
EndSplineSet
EndChar

StartChar: uni0E45
Encoding: 3653 3653 64
Width: 320
VWidth: 0
Flags: W
HStem: 500 120<62.1858 179.152>
LayerCount: 2
Fore
SplineSet
332.348 400 m 2
 177.666 -270 l 1
 27.666 -270 l 1
 182.348 400 l 2
 197.585 466 177.435 500 125.435 500 c 0
 73.4346 500 37.585 466 22.3477 400 c 1
 -127.652 400 l 1
 -98.7939 525 9.13867 620 153.139 620 c 0
 297.139 620 361.206 525 332.348 400 c 2
EndSplineSet
EndChar

StartChar: uni0E50
Encoding: 3664 3664 65
Width: 800
VWidth: 0
Flags: W
HStem: -20 120<334.026 522.094> 500 120<416.427 604.495>
LayerCount: 2
Fore
SplineSet
543.139 620 m 0
 737.139 620 860.124 477 819.261 300 c 0
 778.396 123 589.383 -20 395.383 -20 c 0
 201.383 -20 78.3965 123 119.261 300 c 0
 160.124 477 349.139 620 543.139 620 c 0
515.434 500 m 0
 400.434 500 304.656 410 279.261 300 c 0
 253.865 190 308.087 100 423.087 100 c 0
 538.087 100 633.865 190 659.261 300 c 0
 684.656 410 630.434 500 515.434 500 c 0
EndSplineSet
EndChar

StartChar: uni0E27
Encoding: 3623 3623 66
Width: 560
VWidth: 0
Flags: W
HStem: -10 80<348.156 436.331> 500 120<309.152 438.042>
LayerCount: 2
Fore
SplineSet
409.248 170 m 0
 381.248 170 354.169 148 347.704 120 c 0
 341.24 92 358.161 70 386.161 70 c 0
 414.161 70 441.24 92 447.704 120 c 0
 454.169 148 437.248 170 409.248 170 c 0
407.255 248 m 1
 446.965 420 l 2
 459.894 476 424.434 500 380.434 500 c 0
 336.434 500 289.894 476 276.965 420 c 1
 126.965 420 l 1
 153.515 535 256.139 620 408.139 620 c 0
 560.139 620 623.515 535 596.965 420 c 2
 527.704 120 l 2
 511.082 48 439.691 -10 367.691 -10 c 0
 295.691 -10 251.082 48 267.704 120 c 0
 282.711 185 343.178 239 407.255 248 c 1
EndSplineSet
EndChar

StartChar: uni0E17
Encoding: 3607 3607 67
Width: 690
VWidth: 0
Flags: W
HStem: 0 21G<150 314.617 480 634.617> 460 150<516.699 664.83> 530 80<242.19 330.366>
LayerCount: 2
Fore
SplineSet
292.36 530 m 0xa0
 264.36 530 237.281 508 230.816 480 c 0
 224.353 452 241.273 430 269.273 430 c 0
 297.273 430 324.353 452 330.816 480 c 0
 337.281 508 320.36 530 292.36 530 c 0xa0
231.266 352 m 1
 171.344 361 135.811 415 150.816 480 c 0
 167.439 552 238.83 610 310.83 610 c 0xa0
 382.83 610 427.439 552 410.816 480 c 2
 392.578 401 l 1
 448.511 496 533.83 610 625.83 610 c 0
 703.83 610 759.748 562 724.656 410 c 2
 630 0 l 1
 480 0 l 1
 574.656 410 l 2
 580.89 437 576.199 460 546.199 460 c 0xc0
 487.199 460 408.724 315 360.561 219 c 1
 310 0 l 1
 150 0 l 1
 231.266 352 l 1
EndSplineSet
EndChar

StartChar: uni0E2C
Encoding: 3628 3628 68
Width: 810
VWidth: 0
Flags: W
HStem: 530 80<242.19 330.366> 585 65<688.926 769.383>
VStem: 507.691 79.7822<119 338> 508.033 70.0918<156.646 338> 864.682 90<597.662 670>
AnchorPoint: "thai_above" 1033.27 630 basechar 0
LayerCount: 2
Fore
SplineSet
292.36 530 m 0x88
 264.36 530 237.281 508 230.816 480 c 0
 224.353 452 241.273 430 269.273 430 c 0
 297.273 430 324.353 452 330.816 480 c 0
 337.281 508 320.36 530 292.36 530 c 0x88
735.058 585 m 0x48
 710.058 585 685.44 565 679.669 540 c 0
 673.897 515 689.279 495 714.279 495 c 0
 739.279 495 763.897 515 769.669 540 c 0
 775.44 565 760.058 585 735.058 585 c 0x48
815.045 455 m 1
 728.47 80 l 2
 712.078 9 616.691 -10 507.691 -10 c 1x68
 508.033 338 l 1
 347.691 -10 l 1
 238.691 -10 152.078 9 168.47 80 c 2
 231.266 352 l 1
 171.344 361 135.811 415 150.816 480 c 0
 167.439 552 238.83 610 310.83 610 c 0
 382.83 610 427.439 552 410.816 480 c 2
 327.474 119 l 1
 508.125 490 l 1
 578.125 490 l 1x98
 587.474 119 l 1xa8
 660.89 437 l 1
 623.814 454 603.818 493 614.669 540 c 0
 628.752 601 689.064 650 750.064 650 c 0
 797.064 650 829.369 621 835.903 580 c 1
 846.676 605 856.602 635 864.682 670 c 1
 954.682 670 l 1
 935.981 589 884.127 503 815.045 455 c 1
EndSplineSet
EndChar

StartChar: uni0E18
Encoding: 3608 3608 69
Width: 620
VWidth: 0
Flags: W
HStem: -20 120<266.262 423.051> 365 60<299.119 403.07> 505 95<635.878 676.589> 520 100<357.998 553.861>
LayerCount: 2
Fore
SplineSet
144.267 365 m 1xd0
 181.437 526 322.139 620 463.139 620 c 0xd0
 558.139 620 599.133 568 613.132 555 c 1
 632.519 574 667.521 600 698.521 600 c 1
 676.589 505 l 1xe0
 647.589 505 609.971 485 591.199 460 c 1
 564.818 493 526.052 520 460.052 520 c 0
 368.052 520 317.2 473 299.119 425 c 1
 506.119 425 646.733 419 619.261 300 c 2
 584.63 150 l 2
 556.003 26 446.383 -20 310.383 -20 c 0
 174.383 -20 86.0029 26 114.63 150 c 2
 146.952 290 l 1
 296.952 290 l 1
 264.63 150 l 2
 256.78 116 277.087 100 338.087 100 c 0
 399.087 100 426.78 116 434.63 150 c 2
 469.261 300 l 2
 483.574 362 314.267 365 144.267 365 c 1xd0
EndSplineSet
EndChar

StartChar: uni0E10
Encoding: 3600 3600 70
Width: 600
VWidth: 0
Flags: W
HStem: -340 50<-27.4645 68.9868> -210 50<-20.5937 92.729 379.59 391.518> -100 50<382.096 440.52> 90 65<176.352 257.388> 245 65<185.431 264.992> 365 60<299.119 396.004> 505 95<635.878 676.589> 520 100<357.998 553.861>
LayerCount: 2
Fore
SplineSet
416.913 -100 m 0xfc
 399.913 -100 383.912 -113 379.987 -130 c 0
 376.062 -147 386.062 -160 403.062 -160 c 0
 420.062 -160 436.062 -147 439.987 -130 c 0
 443.912 -113 433.913 -100 416.913 -100 c 0xfc
391.518 -210 m 1
 347.518 -210 319.829 -174 329.987 -130 c 0
 340.146 -86 384.457 -50 428.457 -50 c 0
 472.457 -50 500.146 -86 489.987 -130 c 2
 457.666 -270 l 2
 444.737 -326 384.813 -330 313.813 -330 c 1
 260.056 -212 l 1
 188.813 -330 l 1
 133.813 -330 l 1
 131.276 -315 127.663 -296 120.818 -278 c 1
 89.2764 -315 48.5049 -340 1.50488 -340 c 0
 -56.4951 -340 -100.415 -305 -87.7168 -250 c 0
 -75.0195 -195 -14.9385 -160 43.0615 -160 c 0
 70.0615 -160 94.9834 -169 115.751 -183 c 1
 119.752 -170 124.216 -155 127.679 -140 c 1
 187.679 -140 l 1
 180.752 -170 170.058 -199 155.593 -227 c 1
 164.36 -241 171.897 -256 177.204 -272 c 1
 240.752 -170 l 1
 285.752 -170 l 1
 290.752 -170 l 1
 349.51 -288 l 1
 365.202 -285 375.818 -278 379.975 -260 c 2
 391.518 -210 l 1
93.208 -233 m 1
 78.4395 -219 58.5176 -210 31.5176 -210 c 0
 3.51758 -210 -22.1758 -226 -27.7168 -250 c 0
 -33.2578 -274 -15.9521 -290 13.0479 -290 c 0
 47.0479 -290 73.127 -268 93.208 -233 c 1
231.562 245 m 0
 206.562 245 181.945 225 176.174 200 c 0
 170.402 175 185.784 155 210.784 155 c 0
 235.784 155 260.402 175 266.174 200 c 0
 271.945 225 256.562 245 231.562 245 c 0
144.267 365 m 1
 181.437 526 322.139 620 463.139 620 c 0xfd
 558.139 620 599.133 568 613.132 555 c 1
 632.519 574 667.521 600 698.521 600 c 1
 676.589 505 l 1xfe
 647.589 505 609.971 485 591.199 460 c 1
 564.818 493 526.052 520 460.052 520 c 0xfd
 368.052 520 317.2 473 299.119 425 c 1
 484.119 425 606.503 418 579.261 300 c 2
 523.853 60 l 2
 513.463 15 421.691 -10 327.691 -10 c 1
 336.545 63 331.936 121 314.938 160 c 1
 289.474 119 242.778 90 195.778 90 c 0
 134.778 90 97.0908 139 111.174 200 c 0
 125.257 261 185.569 310 246.569 310 c 0
 341.569 310 378.097 204 382.163 96 c 1
 429.261 300 l 2
 443.574 362 251.267 365 144.267 365 c 1
EndSplineSet
Substitution2: "Descent Substitute" uni0E10.descless
EndChar

StartChar: uni0E2F
Encoding: 3631 3631 71
Width: 560
VWidth: 0
Flags: W
HStem: -20 120<233.087 346.58> 350 90<304.493 427.255> 535 65<204.663 271.165>
LayerCount: 2
Fore
SplineSet
243.515 535 m 0
 224.515 535 204.82 519 200.435 500 c 0
 196.048 481 208.354 465 227.354 465 c 0
 246.354 465 266.048 481 270.434 500 c 0
 274.82 519 262.515 535 243.515 535 c 0
258.521 600 m 0
 313.521 600 348.132 555 335.434 500 c 0
 330.355 478 318.737 458 302.812 441 c 1
 312.582 440 323.582 440 336.582 440 c 0
 421.582 440 482.202 486 501.595 570 c 2
 503.903 580 l 1
 633.903 580 l 1
 543.865 190 l 2
 513.391 58 410.383 -20 205.383 -20 c 1
 233.087 100 l 1
 322.087 100 379.782 129 393.865 190 c 2
 437.961 381 l 1
 401.344 361 359.804 350 315.804 350 c 0
 207.804 350 110.962 394 135.435 500 c 0
 148.132 555 203.521 600 258.521 600 c 0
EndSplineSet
EndChar

StartChar: uni0E5A
Encoding: 3674 3674 72
Width: 720
VWidth: 0
Flags: W
HStem: -20 100<198.47 320.948 458.47 535.357> 350 90<313.273 408.489> 535 65<214.663 281.165>
LayerCount: 2
Fore
SplineSet
693.865 190 m 2
 663.391 58 614.383 -20 435.383 -20 c 1
 458.47 80 l 1
 534.47 80 553.779 103 573.865 190 c 2
 618.885 385 l 1
 641.278 482 l 1
 663.903 580 l 1
 783.903 580 l 1
 693.865 190 l 2
253.515 535 m 0
 234.515 535 214.82 519 210.435 500 c 0
 206.048 481 218.354 465 237.354 465 c 0
 256.354 465 276.048 481 280.434 500 c 0
 284.82 519 272.515 535 253.515 535 c 0
268.521 600 m 0
 323.521 600 358.132 555 345.434 500 c 0
 340.355 478 328.737 458 312.812 441 c 1
 322.582 440 336.582 440 336.582 440 c 1
 392.582 440 452.202 486 471.595 570 c 2
 473.903 580 l 1
 583.903 580 l 1
 493.865 190 l 2
 463.391 58 380.383 -20 175.383 -20 c 1
 198.47 80 l 1
 302.47 80 353.779 103 373.865 190 c 2
 416.345 374 l 1
 386.65 358 353.804 350 315.804 350 c 0
 207.804 350 120.962 394 145.435 500 c 0
 158.132 555 213.521 600 268.521 600 c 0
EndSplineSet
EndChar

StartChar: uni0E13
Encoding: 3603 3603 73
Width: 950
VWidth: 0
Flags: W
HStem: -20 75<753.176 844.49> -10 80<206.727 286.681> 505 115<346.609 533.138> 580 20G<863.903 1018.52>
LayerCount: 2
Fore
SplineSet
126.55 115 m 2x60
 162.334 270 l 2
 178.957 342 224.883 372 250.423 383 c 1
 146.965 420 l 1
 183.818 493 304.139 620 483.139 620 c 0x60
 634.139 620 733.745 536 702.348 400 c 2
 644.169 148 l 1
 680.403 188 727.253 222 784.254 235 c 1
 868.521 600 l 1
 1018.52 600 l 1
 933.1 230 l 1
 903.099 217 l 1
 931.788 194 945.784 155 935.396 110 c 0
 918.773 38 847.383 -20 775.383 -20 c 0x90
 707.383 -20 664.388 32 673.625 98 c 1
 629.082 48 607.691 -10 607.691 -10 c 1
 511.691 -10 463.463 15 473.853 60 c 2
 490.013 130 l 1
 552.348 400 l 2
 569.201 473 522.589 505 456.589 505 c 0
 378.589 505 319.432 474 285.89 437 c 1
 412.348 400 l 1
 407.729 380 l 1
 407.729 380 333.805 363 312.334 270 c 2
 304.946 238 l 1
 359.176 226 390.402 175 376.55 115 c 0
 360.62 46 291.691 -10 222.691 -10 c 0
 153.691 -10 110.62 46 126.55 115 c 2x60
261.938 160 m 0
 236.938 160 212.321 140 206.55 115 c 0
 200.778 90 216.161 70 241.161 70 c 0
 266.161 70 290.778 90 296.55 115 c 0
 302.321 140 286.938 160 261.938 160 c 0
818.094 165 m 0
 788.094 165 757.321 140 750.396 110 c 0
 743.47 80 762.697 55 792.697 55 c 0x80
 822.697 55 853.47 80 860.396 110 c 0
 867.321 140 848.094 165 818.094 165 c 0
EndSplineSet
EndChar

StartChar: uni0E08
Encoding: 3592 3592 74
Width: 600
VWidth: 0
Flags: W
HStem: 140 75<221.117 300.957> 305 75<229.197 310.042> 500 120<316.008 484.932>
LayerCount: 2
Fore
SplineSet
275.415 305 m 0
 250.415 305 225.798 285 220.025 260 c 0
 214.254 235 229.637 215 254.637 215 c 0
 279.637 215 304.254 235 310.025 260 c 0
 315.798 285 300.415 305 275.415 305 c 0
439.479 171 m 1
 496.965 420 l 2
 508.739 471 469.434 500 405.434 500 c 0
 341.434 500 288.739 471 276.965 420 c 1
 126.965 420 l 1
 153.515 535 266.139 620 433.139 620 c 0
 600.139 620 673.515 535 646.965 420 c 2
 563.853 60 l 2
 553.463 15 451.691 -10 357.691 -10 c 1
 368.777 77 368.63 150 356.404 201 c 1
 327.094 165 282.321 140 237.321 140 c 0
 171.321 140 129.788 194 145.025 260 c 0
 160.263 326 226.729 380 292.729 380 c 0
 387.729 380 432.029 299 439.479 171 c 1
EndSplineSet
EndChar

StartChar: uni0E0D
Encoding: 3597 3597 75
Width: 930
VWidth: 0
Flags: W
HStem: -295 85<521.474 684.799> -110 50<472.36 544.945> -20 110<640.974 742.454> -10 80<206.727 286.681> 505 115<346.609 533.138> 580 20G<853.903 1008.52>
VStem: 740.376 120<-151.647 -85>
LayerCount: 2
Fore
SplineSet
126.55 115 m 2xda
 162.334 270 l 2
 178.957 342 224.883 372 250.423 383 c 1
 146.965 420 l 1
 183.818 493 304.139 620 483.139 620 c 0xda
 634.139 620 733.745 536 702.348 400 c 2
 640.013 130 l 2
 634.703 107 647.778 90 685.778 90 c 0
 723.778 90 744.703 107 750.013 130 c 2
 858.521 600 l 1
 1008.52 600 l 1
 900.013 130 l 2
 891.24 92 855.383 -20 660.383 -20 c 0xe6
 465.383 -20 481.24 92 490.013 130 c 2
 552.348 400 l 2
 569.201 473 522.589 505 456.589 505 c 0
 378.589 505 319.432 474 285.89 437 c 1
 412.348 400 l 1
 407.729 380 l 1
 407.729 380 333.805 363 312.334 270 c 2
 304.946 238 l 1
 359.176 226 390.402 175 376.55 115 c 0
 360.62 46 291.691 -10 222.691 -10 c 0
 153.691 -10 110.62 46 126.55 115 c 2xda
261.938 160 m 0
 236.938 160 212.321 140 206.55 115 c 0
 200.778 90 216.161 70 241.161 70 c 0
 266.161 70 290.778 90 296.55 115 c 0
 302.321 140 286.938 160 261.938 160 c 0
514.604 -110 m 0
 492.604 -110 470.449 -128 465.37 -150 c 0
 460.291 -172 474.135 -190 496.135 -190 c 0
 519.135 -190 540.291 -172 545.37 -150 c 0
 550.449 -128 537.604 -110 514.604 -110 c 0
526.147 -60 m 0
 576.147 -60 606.913 -100 595.37 -150 c 0
 590.521 -171 580.135 -190 564.672 -205 c 1
 576.748 -209 589.518 -210 601.518 -210 c 0
 680.518 -210 722.138 -164 740.376 -85 c 1
 860.376 -85 l 1
 830.825 -213 718.894 -295 581.894 -295 c 0
 449.894 -295 399.209 -220 415.37 -150 c 0
 426.913 -100 477.147 -60 526.147 -60 c 0
EndSplineSet
Substitution2: "Descent Substitute" uni0E0D.descless
EndChar

StartChar: uni0E0F
Encoding: 3599 3599 76
Width: 700
VWidth: 0
Flags: W
HStem: -300 50<31.77 128.403> -170 50<38.6408 152.103> -10 80<146.727 226.681> 505 115<366.843 553.138>
LayerCount: 2
Fore
SplineSet
201.938 160 m 0
 176.938 160 152.321 140 146.55 115 c 0
 140.778 90 156.161 70 181.161 70 c 0
 206.161 70 230.778 90 236.55 115 c 0
 242.321 140 226.938 160 201.938 160 c 0
306.12 438 m 1
 442.348 400 l 1
 437.729 380 l 1
 437.729 380 373.805 363 352.334 270 c 2
 316.55 115 l 2
 300.62 46 231.691 -10 162.691 -10 c 0
 93.6914 -10 50.6201 46 66.5498 115 c 0
 80.4023 175 135.176 226 194.946 238 c 1
 202.334 270 l 2
 218.265 339 257.421 370 280.191 382 c 1
 166.965 420 l 1
 203.818 493 324.139 620 503.139 620 c 0
 654.139 620 753.745 536 722.348 400 c 2
 630 0 l 1
 576.9 -230 l 2
 563.972 -286 455.048 -290 383.048 -290 c 1
 341.213 -181 l 1
 249.048 -290 l 1
 193.048 -290 l 1
 190.512 -275 186.897 -256 180.054 -238 c 1
 148.512 -275 108.739 -300 60.7393 -300 c 0
 2.73926 -300 -41.1797 -265 -28.4824 -210 c 0
 -15.7842 -155 44.2959 -120 102.296 -120 c 0
 130.296 -120 154.218 -129 174.986 -143 c 1
 179.987 -130 183.45 -115 186.913 -100 c 1
 246.913 -100 l 1
 239.987 -130 229.292 -159 214.828 -187 c 1
 223.058 -199 229.825 -213 235.362 -228 c 1
 319.987 -130 l 1
 383.987 -130 l 1
 385.987 -130 l 1
 428.517 -223 l 1
 480 0 l 1
 572.348 400 l 2
 589.201 473 542.589 505 476.589 505 c 0
 399.589 505 339.662 475 306.12 438 c 1
152.442 -193 m 1
 138.675 -179 118.752 -170 90.752 -170 c 0
 62.752 -170 37.0586 -186 31.5176 -210 c 0
 25.9766 -234 43.2832 -250 72.2832 -250 c 0
 106.283 -250 132.362 -228 152.442 -193 c 1
EndSplineSet
Substitution2: "Descent Shorten" uni0E0F.shorten
EndChar

StartChar: uni0E4B
Encoding: 3659 3659 77
Width: 0
VWidth: 0
Flags: W
HStem: 1100 70<-19.8838 53.9551 170.116 243.955>
VStem: -36.0449 296.161
LayerCount: 2
Fore
SplineSet
88.585 1250 m 1
 188.585 1250 l 1
 170.116 1170 l 1
 260.116 1170 l 1
 243.955 1100 l 1
 153.955 1100 l 1
 133.177 1010 l 1
 42.873 1052 l 1
 53.9551 1100 l 1
 -36.0449 1100 l 1
 -19.8838 1170 l 1
 70.1162 1170 l 1
 88.585 1250 l 1
EndSplineSet
Position2: "Nikhahit & Tone High-Left" dx=-240 dy=0 dh=0 dv=0
Position2: "Mai Han-Akat & Tone High-Left" dx=-300 dy=0 dh=0 dv=0
Position2: "Tone High-Left" dx=-180 dy=0 dh=0 dv=0
MultipleSubs2: "Tone High-Low" uni0E4B.low
EndChar

StartChar: uni0E0F.shorten
Encoding: 63290 63290 78
Width: 690
VWidth: 0
Flags: W
HStem: -250 50<43.3138 139.947> -120 50<50.1841 163.647> -10 80<146.727 226.681> 505 115<366.843 553.138>
LayerCount: 2
Fore
SplineSet
201.938 160 m 0
 176.938 160 152.321 140 146.55 115 c 0
 140.778 90 156.161 70 181.161 70 c 0
 206.161 70 230.778 90 236.55 115 c 0
 242.321 140 226.938 160 201.938 160 c 0
306.12 438 m 1
 442.348 400 l 1
 437.729 380 l 1
 437.729 380 373.805 363 352.334 270 c 2
 316.55 115 l 2
 300.62 46 231.691 -10 162.691 -10 c 0
 93.6914 -10 50.6201 46 66.5498 115 c 0
 80.4023 175 135.176 226 194.946 238 c 1
 202.334 270 l 2
 218.265 339 257.421 370 280.191 382 c 1
 166.965 420 l 1
 203.818 493 324.139 620 503.139 620 c 0
 654.139 620 753.745 536 722.348 400 c 2
 641.543 50 l 1
 630 0 l 1
 588.443 -180 l 2
 575.516 -236 466.592 -240 394.592 -240 c 1
 352.756 -131 l 1
 260.592 -240 l 1
 204.592 -240 l 1
 202.055 -225 198.441 -206 191.597 -188 c 1
 160.055 -225 120.283 -250 72.2832 -250 c 0
 14.2832 -250 -29.6367 -215 -16.9385 -160 c 0
 -4.24121 -105 55.8389 -70 113.839 -70 c 0
 141.839 -70 165.762 -79 186.529 -93 c 1
 191.53 -80 194.993 -65 198.457 -50 c 1
 258.457 -50 l 1
 251.53 -80 240.835 -109 226.371 -137 c 1
 234.601 -149 241.368 -163 246.905 -178 c 1
 331.53 -80 l 1
 395.53 -80 l 1
 397.53 -80 l 1
 440.06 -173 l 1
 480 0 l 1
 491.543 50 l 1
 572.348 400 l 2
 589.201 473 542.589 505 476.589 505 c 0
 399.589 505 339.662 475 306.12 438 c 1
163.986 -143 m 1
 150.218 -129 130.296 -120 102.296 -120 c 0
 74.2959 -120 48.6016 -136 43.0615 -160 c 0
 37.5205 -184 54.8262 -200 83.8262 -200 c 0
 117.826 -200 143.905 -178 163.986 -143 c 1
EndSplineSet
EndChar

StartChar: uni0E0E.shorten
Encoding: 63291 63291 79
Width: 690
VWidth: 0
Flags: W
HStem: -250 70<126.716 254.688> -100 70<133.709 281.632> -10 80<146.727 226.681> 505 115<366.843 553.138>
LayerCount: 2
Fore
SplineSet
201.938 160 m 0
 176.938 160 152.321 140 146.55 115 c 0
 140.778 90 156.161 70 181.161 70 c 0
 206.161 70 230.778 90 236.55 115 c 0
 242.321 140 226.938 160 201.938 160 c 0
306.12 438 m 1
 442.348 400 l 1
 437.729 380 l 1
 437.729 380 373.805 363 352.334 270 c 2
 316.55 115 l 2
 300.62 46 231.691 -10 162.691 -10 c 0
 93.6914 -10 50.6201 46 66.5498 115 c 0
 80.4023 175 135.176 226 194.946 238 c 1
 202.334 270 l 2
 218.265 339 257.421 370 280.191 382 c 1
 166.965 420 l 1
 203.818 493 324.139 620 503.139 620 c 0
 654.139 620 753.745 536 722.348 400 c 2
 641.543 50 l 1
 630 0 l 1
 588.443 -180 l 2
 575.516 -236 465.592 -240 394.592 -240 c 1
 379.133 -216 360.904 -191 339.983 -169 c 1
 293.439 -219 229.283 -250 152.283 -250 c 0
 91.2832 -250 30.8252 -213 47.6787 -140 c 0
 64.5322 -67 142.074 -30 203.074 -30 c 0
 238.074 -30 277.534 -41 315.379 -59 c 1
 318.457 -50 320.766 -40 323.074 -30 c 1
 413.074 -30 l 1
 407.071 -56 398.53 -80 387.221 -103 c 1
 409.296 -120 427.909 -139 443.292 -159 c 1
 480 0 l 1
 491.543 50 l 1
 572.348 400 l 2
 589.201 473 542.589 505 476.589 505 c 0
 399.589 505 339.662 475 306.12 438 c 1
168.443 -180 m 0
 215.443 -180 254.138 -164 283.142 -125 c 1
 255.835 -109 223.913 -100 186.913 -100 c 0
 167.913 -100 135.297 -107 127.679 -140 c 0
 120.06 -173 149.443 -180 168.443 -180 c 0
EndSplineSet
EndChar

StartChar: uni0E5B
Encoding: 3675 3675 80
Width: 1340
VWidth: 0
Flags: W
HStem: -20 90<301.94 523.699> 150 135<366.153 481.921> 150 80<372.13 514.63> 255 90<1125.02 1338.87> 365 65<371.807 445.374> 530 90<367.901 535.886>
VStem: 808.903 90<492.553 580> 821.263 94.4531<237 326>
LayerCount: 2
Fore
SplineSet
414.267 365 m 0xcc
 392.267 365 370.111 347 365.032 325 c 0
 359.953 303 373.798 285 395.798 285 c 0
 417.798 285 439.953 303 445.032 325 c 0
 450.111 347 436.267 365 414.267 365 c 0xcc
429.273 430 m 0
 487.273 430 523.423 383 510.032 325 c 0
 500.566 284 468.255 248 429.33 231 c 1
 434.1 230 438.1 230 443.1 230 c 0
 488.1 230 550.949 264 568.495 340 c 0
 590.197 434 561.36 530 462.36 530 c 0
 365.36 530 264.814 454 229.261 300 c 0
 197.4 162 273.161 70 406.161 70 c 0
 601.161 70 734.103 256 808.903 580 c 1
 898.903 580 l 1xae
 915.716 237 l 1
 1045.05 520 l 1
 1135.05 520 l 1
 1103.88 385 1114.65 345 1169.65 345 c 2
 1359.65 345 l 1
 1338.87 255 l 1
 1148.87 255 l 2
 1088.87 255 1053.8 272 1036.42 305 c 1
 923.853 60 l 1
 833.853 60 l 1
 821.263 326 l 1xbd
 742.629 137 615.383 -20 385.383 -20 c 0
 175.383 -20 88.3965 123 129.261 300 c 0
 172.202 486 326.139 620 483.139 620 c 0
 636.139 620 705.665 501 668.495 340 c 0
 643.792 233 534.63 150 424.63 150 c 0
 319.63 150 273.562 232 293.878 320 c 0
 308.884 385 366.273 430 429.273 430 c 0
EndSplineSet
EndChar

StartChar: uni0E4E
Encoding: 3662 3662 81
Width: 0
VWidth: 0
Flags: W
HStem: 700 90<-213.741 -124.687> 785 20G<-143.69 -122.769> 1060 90<-95.0423 -8.7395>
VStem: -6.82324 90<1010 1058.41>
LayerCount: 2
Fore
SplineSet
-24.502 1150 m 0xb0
 53.498 1150 101.185 1088 83.1768 1010 c 1
 -6.82324 1010 l 1
 -0.358398 1038 -17.2793 1060 -45.2793 1060 c 0
 -72.2793 1060 -100.358 1038 -106.823 1010 c 0
 -109.824 997 -106.595 985 -100.673 976 c 1
 -77.0576 970 -57.0596 957 -43.2148 939 c 1
 -121.76 876 l 1
 -128.682 885 -140.527 890 -154.527 890 c 0
 -181.527 890 -209.606 868 -216.07 840 c 0
 -222.304 813 -204.614 790 -177.614 790 c 0xb0
 -163.614 790 -149.229 796 -138.151 805 c 1x70
 -88.9268 741 l 1
 -120.698 716 -159.393 700 -198.393 700 c 0
 -275.393 700 -323.848 763 -306.07 840 c 0
 -293.373 895 -250.291 943 -198.981 966 c 1
 -200.749 980 -200.286 995 -196.823 1010 c 0
 -178.815 1088 -101.502 1150 -24.502 1150 c 0xb0
EndSplineSet
EndChar

StartChar: uni0E4F
Encoding: 3663 3663 82
Width: 780
VWidth: 0
Flags: W
HStem: -20 100<314.275 515.115> 140 90<394.748 502.987> 370 90<415.534 523.773> 520 100<403.406 604.246>
LayerCount: 2
Fore
SplineSet
533.139 620 m 0
 710.139 620 820.124 477 779.261 300 c 0
 738.396 123 562.383 -20 385.383 -20 c 0
 208.383 -20 98.3965 123 139.261 300 c 0
 180.124 477 356.139 620 533.139 620 c 0
510.052 520 m 0
 388.052 520 267.427 422 239.261 300 c 0
 211.095 178 286.47 80 408.47 80 c 0
 530.47 80 651.095 178 679.261 300 c 0
 707.427 422 632.052 520 510.052 520 c 0
496.199 460 m 0
 584.199 460 639.577 388 619.261 300 c 0
 598.944 212 510.321 140 422.321 140 c 0
 334.321 140 278.944 212 299.261 300 c 0
 319.577 388 408.199 460 496.199 460 c 0
475.421 370 m 0
 436.421 370 398.265 339 389.261 300 c 0
 380.257 261 404.1 230 443.1 230 c 0
 482.1 230 520.257 261 529.261 300 c 0
 538.265 339 514.421 370 475.421 370 c 0
EndSplineSet
EndChar

StartChar: uni0E51
Encoding: 3665 3665 83
Width: 800
VWidth: 0
Flags: W
HStem: -60 110<411.543 510.616> 80 90<280.285 406.146> 360 70<425.635 517.201> 505 115<401.254 616.113>
LayerCount: 2
Fore
SplineSet
478.112 360 m 0
 448.112 360 417.341 335 410.415 305 c 0
 403.488 275 422.717 250 452.717 250 c 0
 482.717 250 513.488 275 520.415 305 c 0
 527.341 335 508.112 360 478.112 360 c 0
494.273 430 m 0
 563.273 430 606.345 374 590.415 305 c 0
 563.634 189 455.47 80 308.47 80 c 0
 161.47 80 88.7861 168 119.261 300 c 0
 160.124 477 333.139 620 543.139 620 c 0
 753.139 620 860.124 477 819.261 300 c 0
 771.701 94 600.147 -60 386.147 -60 c 1
 411.543 50 l 1
 521.543 50 632.091 139 669.261 300 c 0
 695.117 412 647.589 505 516.589 505 c 0
 385.589 505 288.119 425 259.261 300 c 0
 243.792 233 267.248 170 349.248 170 c 0
 371.248 170 390.402 175 408.249 183 c 1
 356.481 197 326.794 246 340.415 305 c 0
 356.345 374 425.273 430 494.273 430 c 0
EndSplineSet
EndChar

StartChar: uni0E52
Encoding: 3666 3666 84
Width: 930
VWidth: 0
Flags: W
HStem: 0 120<257.704 757.704> 170 70<459.173 545.415> 340 70<477.548 555.964> 515 105<517.893 607.666> 790 20G<226.195 377.003>
VStem: 227.003 150<528.281 810>
LayerCount: 2
Fore
SplineSet
227.003 810 m 1
 377.003 810 l 1
 377.003 810 394.609 713 368.521 600 c 2
 257.704 120 l 1
 757.704 120 l 1
 820.039 390 l 2
 832.506 444 835.434 500 808.897 515 c 1
 712.348 400 l 1
 612.348 400 l 1
 628.046 468 606.897 515 568.897 515 c 0
 530.897 515 495.816 480 476.654 397 c 1
 494.502 405 514.656 410 534.656 410 c 0
 600.656 410 642.189 356 626.952 290 c 0
 611.715 224 545.248 170 479.248 170 c 0
 378.248 170 333.95 277 361.193 395 c 0
 388.436 513 482.139 620 593.139 620 c 0
 658.139 620 697.827 584 713.591 531 c 1
 778.139 620 l 1
 833.139 620 l 1
 938.214 603 1004.21 538 970.039 390 c 2
 900.778 90 l 2
 889.234 40 835 0 780 0 c 2
 180 0 l 2
 125 0 89.2344 40 100.778 90 c 2
 218.521 600 l 2
 242.993 706 227.003 810 227.003 810 c 1
518.495 340 m 0
 490.495 340 463.416 318 456.952 290 c 0
 450.487 262 467.408 240 495.408 240 c 0
 523.408 240 550.487 262 556.952 290 c 0
 563.416 318 546.495 340 518.495 340 c 0
EndSplineSet
EndChar

StartChar: uni0E54
Encoding: 3668 3668 85
Width: 890
VWidth: 0
Flags: W
HStem: 0 120<332.097 525.704 630.442 800> 335 75<575.392 667.472> 480 120<403.992 799.574> 790 20G<915.19 1077>
VStem: 927.003 150<744.141 810>
LayerCount: 2
Fore
SplineSet
627.341 335 m 0
 597.341 335 566.569 310 559.643 280 c 0
 552.717 250 571.945 225 601.945 225 c 0
 631.945 225 662.717 250 669.643 280 c 0
 676.569 310 657.341 335 627.341 335 c 0
644.656 410 m 0
 716.656 410 761.266 352 744.643 280 c 0
 730.791 220 679.248 170 620.784 155 c 1
 636.091 139 654.32 127 671.704 120 c 1
 827.704 120 l 1
 800 0 l 1
 400 0 l 2
 177 0 89.3203 127 129.261 300 c 0
 169.2 473 315.521 600 538.521 600 c 2
 698.521 600 l 2
 829.521 600 903.378 712 927.003 810 c 1
 1077 810 l 1
 1035.45 630 901.816 480 670.816 480 c 2
 510.816 480 l 2
 399.816 480 303.963 407 279.261 300 c 0
 254.558 193 316.704 120 427.704 120 c 2
 525.704 120 l 1
 505.014 143 461.404 201 478.488 275 c 0
 496.266 352 567.656 410 644.656 410 c 0
EndSplineSet
EndChar

StartChar: uni0E55
Encoding: 3669 3669 86
Width: 890
VWidth: 0
Flags: W
HStem: 0 120<332.097 525.704 630.442 800> 335 75<575.392 667.472> 480 140<595.097 683.183> 480 120<407.877 519.521> 720 80<606.055 694.23> 790 20G<916.46 1077>
VStem: 927.003 150<744.141 810>
LayerCount: 2
Fore
SplineSet
644.656 410 m 0xd2
 716.656 410 761.266 352 744.643 280 c 0
 730.791 220 679.248 170 620.784 155 c 1
 636.091 139 654.32 127 671.704 120 c 1
 827.704 120 l 1
 800 0 l 1
 400 0 l 2
 177 0 89.3203 127 129.261 300 c 0
 168.046 468 306.905 593 519.521 600 c 1
 511.139 620 508.679 644 514.682 670 c 0
 531.305 742 602.694 800 674.694 800 c 0xda
 746.694 800 791.305 742 774.682 670 c 0
 769.141 646 758.062 624 741.444 604 c 1
 845.523 626 905.918 723 927.003 810 c 1
 1077 810 l 1
 1035.45 630 901.816 480 670.816 480 c 2xe6
 510.816 480 l 2
 399.816 480 303.963 407 279.261 300 c 0
 254.558 193 316.704 120 427.704 120 c 2
 525.704 120 l 1
 505.014 143 461.404 201 478.488 275 c 0
 496.266 352 567.656 410 644.656 410 c 0xd2
627.341 335 m 0
 597.341 335 566.569 310 559.643 280 c 0
 552.717 250 571.945 225 601.945 225 c 0
 631.945 225 662.717 250 669.643 280 c 0
 676.569 310 657.341 335 627.341 335 c 0
656.225 720 m 0
 628.225 720 601.146 698 594.682 670 c 0
 588.218 642 605.139 620 633.139 620 c 0xea
 661.139 620 688.218 642 694.682 670 c 0
 701.146 698 684.225 720 656.225 720 c 0
EndSplineSet
EndChar

StartChar: uni0E56
Encoding: 3670 3670 87
Width: 800
VWidth: 0
Flags: W
HStem: -20 120<323.67 545.664> 335 75<256.075 347.472> 480 120<374.232 622.223> 790 20G<181.954 357.003>
VStem: 207.003 150<616.76 810>
LayerCount: 2
Fore
SplineSet
307.341 335 m 0
 277.341 335 246.569 310 239.644 280 c 0
 232.717 250 251.945 225 281.945 225 c 0
 311.945 225 342.717 250 349.644 280 c 0
 356.569 310 337.341 335 307.341 335 c 0
324.656 410 m 0
 396.656 410 441.266 352 424.644 280 c 0
 410.561 219 356.555 167 295.554 154 c 1
 322.319 114 373.087 100 433.087 100 c 0
 561.087 100 641.557 180 666.952 290 c 0
 692.348 400 648.816 480 520.816 480 c 2
 420.816 480 l 2
 209.816 480 156.905 593 207.003 810 c 1
 357.003 810 l 1
 328.914 684 333.521 600 448.521 600 c 2
 548.521 600 l 2
 758.521 600 862.664 488 816.952 290 c 0
 771.24 92 615.383 -20 405.383 -20 c 0
 192.383 -20 121.088 113 157.334 270 c 0
 174.419 344 251.656 410 324.656 410 c 0
EndSplineSet
EndChar

StartChar: uni0E57
Encoding: 3671 3671 88
Width: 1050
VWidth: 0
Flags: W
HStem: -20 80<290.013 391.974> 190 80<305.981 408.71> 500 120<360.599 455.133> 580 20G<993.903 1128.52>
LayerCount: 2
Fore
SplineSet
415.434 500 m 0xe0
 367.434 500 298.812 428 269.261 300 c 0
 262.104 269 257.408 240 255.406 214 c 1
 289.255 248 336.334 270 382.334 270 c 0
 462.334 270 512.328 205 493.858 125 c 0
 475.389 45 395.383 -20 315.383 -20 c 0
 146.383 -20 76.5498 115 119.261 300 c 0
 161.971 485 323.139 620 443.139 620 c 0
 519.139 620 567.826 571 583.818 493 c 1
 673.139 620 l 1
 733.139 620 l 1xe0
 825.29 599 896.589 505 863.112 360 c 2
 806.78 116 l 1
 863.705 133 899.248 170 915.408 240 c 2
 998.521 600 l 1
 1128.52 600 l 1xd0
 1045.41 240 l 2
 998.773 38 868.691 -10 637.691 -10 c 1
 663.087 100 l 1
 723.112 360 l 2
 734.656 410 729.894 476 705.434 500 c 1
 576.187 330 l 1
 456.187 330 l 1
 485.507 457 454.434 500 415.434 500 c 0xe0
363.865 190 m 0
 327.865 190 292.17 161 283.858 125 c 0
 275.547 89 297.853 60 333.853 60 c 0
 369.853 60 405.547 89 413.858 125 c 0
 422.17 161 399.865 190 363.865 190 c 0
EndSplineSet
EndChar

StartChar: uni0E58
Encoding: 3672 3672 89
Width: 910
VWidth: 0
Flags: W
HStem: -20 105<599.581 734.122> 150 75<732.032 763.63> 335 75<745.549 836.934> 480 120<394.61 792.313> 790 20G<905.19 1067>
VStem: 917.003 150<736.176 810>
LayerCount: 2
Fore
SplineSet
797.341 335 m 0
 767.341 335 736.569 310 729.643 280 c 0
 722.717 250 741.945 225 771.945 225 c 0
 801.945 225 832.717 250 839.643 280 c 0
 846.569 310 827.341 335 797.341 335 c 0
814.656 410 m 0
 894.656 410 938.265 339 921.18 265 c 2
 906.174 200 l 2
 877.546 76 761.383 -20 635.383 -20 c 0
 532.383 -20 472.619 33 456.704 120 c 1
 367.691 -10 l 1
 168.691 -10 79.3203 127 119.261 300 c 0
 159.2 473 328.521 600 528.521 600 c 2
 698.521 600 l 2
 829.521 600 893.378 712 917.003 810 c 1
 1067 810 l 1
 1025.45 630 885.816 480 670.816 480 c 2
 500.816 480 l 2
 382.816 480 290.731 393 269.261 300 c 0
 251.021 221 271.091 139 348.78 116 c 1
 464.644 280 l 1
 524.643 280 l 1
 574.643 280 l 1
 545.784 155 593.624 85 659.624 85 c 0
 708.624 85 749.626 111 763.63 150 c 1
 760.63 150 757.63 150 754.63 150 c 0
 682.63 150 638.021 208 654.643 280 c 0
 671.266 352 742.656 410 814.656 410 c 0
EndSplineSet
EndChar

StartChar: uni0E59
Encoding: 3673 3673 90
Width: 960
VWidth: 0
Flags: W
HStem: -20 80<290.013 391.974> 0 21G<571.046 695> 190 80<305.981 408.71> 500 120<360.599 471.548> 790 20G<982.386 1127>
LayerCount: 2
Fore
SplineSet
363.865 190 m 0xb8
 327.865 190 292.17 161 283.858 125 c 0
 275.547 89 297.853 60 333.853 60 c 0
 369.853 60 405.547 89 413.858 125 c 0
 422.17 161 399.865 190 363.865 190 c 0xb8
924.669 540 m 2
 987.003 810 l 1
 1127 810 l 1
 1064.67 540 l 2
 1021.5 353 926.334 270 712.334 270 c 1
 719.261 300 l 1
 737.729 380 l 2
 753.66 449 737.664 488 705.434 500 c 1
 617.5 392 l 1
 695 0 l 1
 575 0 l 1x78
 491.965 420 l 2
 481.739 471 462.434 500 415.434 500 c 0
 367.434 500 298.812 428 269.261 300 c 0
 262.104 269 257.408 240 255.406 214 c 1
 289.255 248 336.334 270 382.334 270 c 0
 462.334 270 512.328 205 493.858 125 c 0
 475.389 45 395.383 -20 315.383 -20 c 0
 146.383 -20 76.5498 115 119.261 300 c 0
 161.971 485 323.139 620 443.139 620 c 0
 522.139 620 570.135 581 594.128 516 c 1
 678.139 620 l 1
 733.139 620 l 1
 823.06 598 880.591 531 873.657 423 c 1
 897.429 448 912.433 487 924.669 540 c 2
EndSplineSet
EndChar

StartChar: uni0E4A
Encoding: 3658 3658 91
Width: 0
VWidth: 0
Flags: W
HStem: 1026 50<-95.5819 -46.7181> 1030 60<51.6465 68.9424> 1126 50<-65.7295 -46.8146> 1210 66<-60.7047 -4.62226>
VStem: -154.502 158.457<1055.67 1167.2> 203.971 116<1176.3 1256>
LayerCount: 2
Fore
SplineSet
-66.042 1126 m 0xbc
 -79.042 1126 -92.8125 1114 -96.0449 1100 c 0
 -99.0459 1087 -90.5859 1076 -77.5859 1076 c 0
 -63.5859 1076 -49.0459 1087 -46.0449 1100 c 0
 -42.8125 1114 -52.042 1126 -66.042 1126 c 0xbc
79.3506 1210 m 1
 45.501 1176 l 1
 -4.49902 1176 l 1
 -3.72852 1188 -6.64941 1210 -26.6494 1210 c 0
 -42.6494 1210 -56.5742 1193 -65.7295 1175 c 1
 -61.7295 1175 -57.499 1176 -54.499 1176 c 0
 -12.499 1176 13.6514 1142 3.95508 1100 c 0
 -5.51074 1059 -47.1289 1026 -89.1289 1026 c 0xbc
 -153.129 1026 -168.354 1090 -154.502 1150 c 0
 -140.419 1211 -76.4121 1276 -21.4121 1276 c 0
 17.5879 1276 35.2773 1253 43.6602 1233 c 1
 78.5879 1276 l 1
 94.5879 1276 l 2
 149.588 1276 180.735 1216 166.884 1156 c 0
 164.806 1147 161.728 1138 157.65 1129 c 1
 172.344 1145 186.655 1181 203.971 1256 c 1
 319.971 1256 l 1
 286.726 1112 209.794 1030 37.7939 1030 c 1
 51.6465 1090 l 1x7c
 64.6465 1090 77.6484 1116 86.8838 1156 c 0
 92.6553 1181 90.1963 1205 79.3506 1210 c 1
EndSplineSet
Substitution2: "Thai Tone & Vowel Above-Narrow" uni0E4A.narrow
Position2: "Nikhahit & Tone High-Left" dx=-190 dy=0 dh=0 dv=0
Position2: "Mai Han-Akat & Tone High-Left" dx=-260 dy=0 dh=0 dv=0
Position2: "Tone High-Left" dx=-180 dy=0 dh=0 dv=0
MultipleSubs2: "Tone High-Low" uni0E4A.low
EndChar

StartChar: uni0E3F
Encoding: 3647 3647 92
Width: 780
VWidth: 0
Flags: W
HStem: 0 120<257.704 320 440 561.878> 355 120<339.662 598.273> 680 120<386.99 504.694 624.694 642.235>
LayerCount: 2
Fore
SplineSet
447.704 120 m 2
 522.704 120 601.398 136 623.1 230 c 0
 643.646 319 591.958 355 491.958 355 c 2
 311.958 355 l 1
 257.704 120 l 1
 447.704 120 l 2
536.99 680 m 2
 386.99 680 l 1
 339.662 475 l 1
 519.662 475 l 2
 602.662 475 650.975 524 663.903 580 c 0
 678.218 642 646.99 680 536.99 680 c 2
539.325 950 m 1
 659.325 950 l 1
 624.694 800 l 1
 816.771 796 848.376 686 823.903 580 c 0
 810.975 524 771.815 467 711.888 424 c 1
 772.961 381 802.262 313 783.1 230 c 0
 749.162 83 633 0 480 0 c 2
 440 0 l 1
 405.37 -150 l 1
 285.37 -150 l 1
 320 0 l 1
 70 0 l 1
 254.694 800 l 1
 504.694 800 l 1
 539.325 950 l 1
EndSplineSet
EndChar

StartChar: uni0E11
Encoding: 3601 3601 93
Width: 770
VWidth: 0
Flags: W
HStem: 0 21G<220 384.617 560 714.617> 300 55<192.608 273.722> 445 55<218.95 282.403> 460 150<602.015 720.293> 550 60<240.388 325.41>
LayerCount: 2
Fore
SplineSet
247.736 445 m 0xe0
 222.736 445 198.119 425 192.348 400 c 0
 186.575 375 201.958 355 226.958 355 c 0
 251.958 355 276.575 375 282.348 400 c 0
 288.119 425 272.736 445 247.736 445 c 0xe0
305.83 610 m 0xe8
 346.83 610 367.75 588 378.517 561 c 1
 411.83 610 l 1
 454.83 610 l 1xe8
 497.598 596 536.286 560 538.203 499 c 1
 587.286 560 644.83 610 705.83 610 c 0
 783.83 610 839.748 562 804.656 410 c 2
 710 0 l 1
 560 0 l 1
 654.656 410 l 2
 660.89 437 656.199 460 626.199 460 c 0xd0
 559.199 460 463.873 268 421.557 180 c 1
 380 0 l 1
 220 0 l 1
 261.557 180 l 1
 266.174 200 l 2
 290.877 307 419.267 365 438.891 450 c 0
 447.895 489 450.744 523 429.978 550 c 1
 381.971 485 l 1
 326.971 485 l 1
 333.204 512 324.978 550 291.978 550 c 0
 259.978 550 235.206 525 218.587 492 c 1
 231.741 497 246.435 500 260.434 500 c 0
 315.434 500 350.045 455 337.348 400 c 0
 324.649 345 269.261 300 214.261 300 c 0
 145.261 300 113.574 362 131.582 440 c 0
 147.281 508 211.83 610 305.83 610 c 0xe8
EndSplineSet
EndChar

StartChar: uni0E12
Encoding: 3602 3602 94
Width: 930
VWidth: 0
Flags: W
HStem: -20 75<492.566 584.49> 355 45<368.41 444.89> 600 0G<348.639 402.752 534.29 597.639 853.903 1008.52>
LayerCount: 2
Fore
SplineSet
422.348 400 m 0
 472.348 400 503.112 360 491.569 310 c 0
 459.017 169 257.084 74 237.691 -10 c 1
 237.691 -10 59.6152 -6 66.9258 30 c 1
 66.9258 30 98.2383 79 112.321 140 c 0
 135.87 242 113.488 275 144.656 410 c 0
 177.901 554 319.139 620 378.139 620 c 1
 458.132 555 l 1
 568.139 620 l 1
 627.139 620 737.901 554 704.656 410 c 2
 662.869 229 l 1
 707.252 209 734.709 172 750.244 131 c 1
 858.521 600 l 1
 1008.52 600 l 1
 883.853 60 l 2
 873.463 15 804.691 -10 707.691 -10 c 1
 706.157 31 700.47 80 676.78 116 c 1
 676.319 114 675.857 112 675.396 110 c 0
 658.773 38 587.383 -20 515.383 -20 c 0
 443.383 -20 398.773 38 415.396 110 c 0
 426.938 160 465.097 204 511.945 225 c 1
 554.656 410 l 2
 572.433 487 532.743 510 532.743 510 c 1
 435.045 455 l 1
 362.743 510 l 1
 362.743 510 312.433 487 294.656 410 c 0
 265.336 283 267.944 212 245.626 111 c 1
 286.707 146 335.095 178 371.021 221 c 1
 327.176 226 300.949 264 311.569 310 c 0
 323.112 360 372.348 400 422.348 400 c 0
411.958 355 m 0
 386.958 355 362.341 335 356.569 310 c 0
 350.798 285 366.18 265 391.18 265 c 0
 416.18 265 440.798 285 446.569 310 c 0
 452.341 335 436.958 355 411.958 355 c 0
558.094 165 m 0
 528.094 165 497.321 140 490.396 110 c 0
 483.47 80 502.697 55 532.697 55 c 0
 562.697 55 593.47 80 600.396 110 c 0
 607.321 140 588.094 165 558.094 165 c 0
EndSplineSet
EndChar

StartChar: uni0E0C
Encoding: 3596 3596 95
Width: 930
VWidth: 0
Flags: W
HStem: -20 75<492.566 584.49> -10 80<206.727 286.681> 505 115<346.609 533.138> 580 20G<853.903 1008.52>
LayerCount: 2
Fore
SplineSet
126.55 115 m 2x60
 162.334 270 l 2
 178.957 342 224.883 372 250.423 383 c 1
 146.965 420 l 1
 183.818 493 304.139 620 483.139 620 c 0x60
 634.139 620 733.745 536 702.348 400 c 2
 662.869 229 l 1
 707.252 209 734.709 172 750.244 131 c 1
 858.521 600 l 1
 1008.52 600 l 1
 883.853 60 l 2
 873.463 15 804.691 -10 707.691 -10 c 1x50
 706.157 31 700.47 80 676.78 116 c 1
 676.319 114 675.857 112 675.396 110 c 0
 658.773 38 587.383 -20 515.383 -20 c 0x80
 443.383 -20 398.773 38 415.396 110 c 0
 426.938 160 465.097 204 511.945 225 c 1
 552.348 400 l 2
 569.201 473 522.589 505 456.589 505 c 0
 378.589 505 319.432 474 285.89 437 c 1
 412.348 400 l 1
 407.729 380 l 1
 407.729 380 333.805 363 312.334 270 c 2
 304.946 238 l 1
 359.176 226 390.402 175 376.55 115 c 0
 360.62 46 291.691 -10 222.691 -10 c 0
 153.691 -10 110.62 46 126.55 115 c 2x60
261.938 160 m 0
 236.938 160 212.321 140 206.55 115 c 0
 200.778 90 216.161 70 241.161 70 c 0
 266.161 70 290.778 90 296.55 115 c 0
 302.321 140 286.938 160 261.938 160 c 0
558.094 165 m 0
 528.094 165 497.321 140 490.396 110 c 0
 483.47 80 502.697 55 532.697 55 c 0x80
 562.697 55 593.47 80 600.396 110 c 0
 607.321 140 588.094 165 558.094 165 c 0
EndSplineSet
EndChar

StartChar: uni0E09
Encoding: 3593 3593 96
Width: 670
VWidth: 0
Flags: W
HStem: -20 85<465.376 556.515> -10 225<175.876 256.094> 305 75<184.197 263.934> 500 120<332.478 524.741>
LayerCount: 2
Fore
SplineSet
530.402 175 m 0xb0
 500.402 175 469.63 150 462.704 120 c 0
 455.778 90 475.007 65 505.007 65 c 0
 535.007 65 565.778 90 572.704 120 c 0
 579.63 150 560.402 175 530.402 175 c 0xb0
230.415 305 m 0
 205.415 305 180.798 285 175.025 260 c 0
 169.254 235 184.637 215 209.637 215 c 0x70
 234.637 215 259.254 235 265.025 260 c 0
 270.798 285 255.415 305 230.415 305 c 0
374.087 100 m 1
 321.082 48 287.691 -10 287.691 -10 c 1x70
 191.691 -10 133.463 15 143.853 60 c 2
 163.245 144 l 1
 114.246 157 87.0967 204 100.025 260 c 0
 115.263 326 181.729 380 247.729 380 c 0
 313.729 380 355.263 326 340.025 260 c 2
 309.551 128 l 1
 359.711 185 427.64 241 500.487 262 c 1
 536.965 420 l 2
 548.739 471 519.434 500 435.434 500 c 0
 351.434 500 308.739 471 296.965 420 c 1
 146.965 420 l 1
 173.515 535 296.139 620 463.139 620 c 0
 630.139 620 713.515 535 686.965 420 c 2
 645.408 240 l 1
 626.792 233 l 1
 655.021 208 668.324 166 657.704 120 c 0
 639.928 43 562.383 -20 485.383 -20 c 0xb0
 414.383 -20 368.388 32 374.087 100 c 1
EndSplineSet
EndChar

StartChar: uni0E0A.alt
Encoding: 3681 3681 97
Width: 680
VWidth: 0
Flags: W
HStem: -20 120<349.617 468.492> 335 55<190.294 271.802> 530 120<694.284 802.36> 535 75<293.042 388.744>
LayerCount: 2
Fore
SplineSet
245.816 480 m 0xc0
 220.816 480 196.199 460 190.428 435 c 0
 184.656 410 200.039 390 225.039 390 c 0
 250.039 390 274.656 410 280.428 435 c 0
 286.199 460 270.816 480 245.816 480 c 0xc0
553.123 464 m 1
 607.044 442 692.578 401 683.112 360 c 2
 636.938 160 l 2
 621.24 92 563.383 -20 375.383 -20 c 0
 187.383 -20 181.24 92 196.938 160 c 2
 206.174 200 l 2
 231.8 311 368.495 340 393.891 450 c 0
 405.203 499 388.515 535 333.515 535 c 0
 319.515 535 305.053 533 291.129 529 c 1
 325.897 515 345.355 478 335.428 435 c 0
 322.729 380 267.341 335 212.341 335 c 0
 149.341 335 118.884 385 133.891 450 c 0
 154.207 538 247.83 610 350.83 610 c 0xd0
 445.83 610 492.132 555 496.818 493 c 1
 566.133 568 693.064 650 830.064 650 c 1
 802.36 530 l 1xe0
 670.36 530 588.587 492 553.123 464 c 1
488.119 425 m 1
 487.119 425 l 1
 454.263 326 381.569 310 356.174 200 c 2
 346.938 160 l 2
 337.704 120 364.087 100 403.087 100 c 0
 442.087 100 477.704 120 486.938 160 c 2
 533.112 360 l 2
 537.729 380 511.732 406 488.119 425 c 1
EndSplineSet
EndChar

StartChar: uni0E0B.alt
Encoding: 3682 3682 98
Width: 710
VWidth: 0
Flags: W
HStem: -20 120<379.617 498.492> 300 55<192.608 273.722> 445 55<218.95 282.403> 530 120<725.302 832.36> 550 60<240.388 325.41>
LayerCount: 2
Fore
SplineSet
381.971 485 m 1xe8
 326.971 485 l 1
 333.204 512 324.978 550 291.978 550 c 0
 259.978 550 235.206 525 218.587 492 c 1
 231.741 497 246.435 500 260.434 500 c 0
 315.434 500 350.045 455 337.348 400 c 0
 324.649 345 269.261 300 214.261 300 c 0
 145.261 300 113.574 362 131.582 440 c 0
 147.281 508 211.83 610 305.83 610 c 0
 346.83 610 367.75 588 378.517 561 c 1
 411.83 610 l 1
 454.83 610 l 1xe8
 495.828 597 533.748 562 538.589 505 c 1
 608.98 576 730.064 650 860.064 650 c 1
 832.36 530 l 1xf0
 700.36 530 618.587 492 583.123 464 c 1
 637.044 442 722.578 401 713.112 360 c 2
 666.938 160 l 2
 651.24 92 593.383 -20 405.383 -20 c 0
 217.383 -20 211.24 92 226.938 160 c 2
 236.174 200 l 2
 260.877 307 419.267 365 438.891 450 c 0
 447.895 489 450.744 523 429.978 550 c 1
 381.971 485 l 1xe8
247.736 445 m 0
 222.736 445 198.119 425 192.348 400 c 0
 186.575 375 201.958 355 226.958 355 c 0
 251.958 355 276.575 375 282.348 400 c 0
 288.119 425 272.736 445 247.736 445 c 0
524.965 420 m 1
 490.263 326 409.261 300 386.174 200 c 2
 376.938 160 l 2
 367.704 120 394.087 100 433.087 100 c 0
 472.087 100 507.704 120 516.938 160 c 2
 563.112 360 l 2
 567.269 378 546.809 402 524.965 420 c 1
EndSplineSet
EndChar

StartChar: uni0E28.alt
Encoding: 3683 3683 99
Width: 680
VWidth: 0
Flags: W
HStem: 0 21G<460 614.617> 220 45<358.008 434.729> 355 45<368.927 444.89> 510 110<355.333 528.353> 560 110<736.044 819.286>
LayerCount: 2
Fore
SplineSet
422.348 400 m 0xf0
 472.348 400 503.112 360 491.569 310 c 0
 480.025 260 430.791 220 380.791 220 c 0
 350.791 220 327.254 235 316.333 257 c 1
 287.099 217 266.708 159 253.087 100 c 2
 227.691 -10 l 1
 227.691 -10 59.6152 -6 66.9258 30 c 1
 66.9258 30 98.2383 79 112.321 140 c 0
 135.87 242 108.871 255 140.039 390 c 0
 169.128 516 290.139 620 473.139 620 c 0xf0
 543.139 620 597.676 605 635.673 579 c 1
 682.062 624 768.682 670 844.682 670 c 1
 819.286 560 l 1xe8
 760.286 560 718.899 541 690.359 517 c 1
 707.816 480 710.89 437 700.039 390 c 2
 610 0 l 1
 460 0 l 1
 550.039 390 l 2
 569.201 473 516.743 510 447.743 510 c 0
 378.743 510 309.2 473 290.039 390 c 0
 282.189 356 277.725 328 274.723 302 c 1
 311.65 358 363.348 400 422.348 400 c 0xf0
411.958 355 m 0
 386.958 355 362.341 335 356.569 310 c 0
 350.798 285 366.18 265 391.18 265 c 0
 416.18 265 440.798 285 446.569 310 c 0
 452.341 335 436.958 355 411.958 355 c 0
EndSplineSet
EndChar

StartChar: uni0E2A.alt
Encoding: 3684 3684 100
Width: 660
VWidth: 0
Flags: W
HStem: -20 75<188.631 268.916> 145 75<217.568 276.995> 275 95<255.969 429.032> 500 120<346.008 514.578> 560 110<705.989 789.286>
LayerCount: 2
Fore
SplineSet
260.791 220 m 0xe8
 326.791 220 368.324 166 353.087 100 c 0
 337.85 34 271.383 -20 205.383 -20 c 0
 117.383 -20 62.4668 54 89.248 170 c 0
 112.104 269 212.421 370 345.421 370 c 0
 428.421 370 474.11 334 496.49 288 c 1
 526.965 420 l 2
 538.739 471 499.434 500 435.434 500 c 0
 371.434 500 318.739 471 306.965 420 c 1
 156.965 420 l 1
 183.515 535 296.139 620 463.139 620 c 0xf0
 527.139 620 577.368 608 613.289 586 c 1
 660.985 628 742.682 670 814.682 670 c 1
 789.286 560 l 1
 736.286 560 697.823 545 669.975 524 c 1
 683.279 495 685.969 459 676.965 420 c 2
 586.926 30 l 2
 578.615 -6 417.691 -10 417.691 -10 c 1
 456.938 160 l 2
 471.021 221 432.488 275 343.488 275 c 0
 293.488 275 244.641 254 216.944 212 c 1
 231.099 217 245.791 220 260.791 220 c 0xe8
243.476 145 m 0
 218.476 145 193.858 125 188.087 100 c 0
 182.315 75 197.697 55 222.697 55 c 0
 247.697 55 272.315 75 278.087 100 c 0
 283.858 125 268.476 145 243.476 145 c 0
EndSplineSet
EndChar

StartChar: uni0E2E.alt
Encoding: 3686 3686 101
Width: 660
VWidth: 0
Flags: W
HStem: -20 110<254.822 432.181> 305 75<214.197 293.934> 500 120<334.105 516.01> 560 110<705.305 789.286>
LayerCount: 2
Fore
SplineSet
277.729 380 m 0xd0
 343.729 380 385.263 326 370.025 260 c 0
 356.636 202 303.323 153 245.783 142 c 1
 247.163 96 291.778 90 345.778 90 c 0
 408.778 90 457.474 119 469.248 170 c 2
 526.965 420 l 2
 538.739 471 505.434 500 430.434 500 c 0
 355.434 500 308.739 471 296.965 420 c 1
 146.965 420 l 1
 173.515 535 291.139 620 458.139 620 c 0xe0
 523.139 620 575.137 607 612.058 585 c 1
 659.985 628 741.682 670 814.682 670 c 1
 789.286 560 l 1
 736.286 560 696.823 545 668.975 524 c 1
 683.049 494 685.969 459 676.965 420 c 2
 619.248 170 l 2
 587.85 34 465.383 -20 320.383 -20 c 0
 175.383 -20 77.8496 34 109.248 170 c 2
 130.025 260 l 2
 145.263 326 211.729 380 277.729 380 c 0xd0
260.415 305 m 0
 235.415 305 210.798 285 205.025 260 c 0
 199.254 235 214.637 215 239.637 215 c 0
 264.637 215 289.254 235 295.025 260 c 0
 300.798 285 285.415 305 260.415 305 c 0
EndSplineSet
EndChar

StartChar: B
Encoding: 66 66 102
Width: 780
VWidth: 0
Flags: W
HStem: 0 120<257.704 561.878> 355 120<339.662 598.273> 680 120<386.99 641.865>
AnchorPoint: "diac_top" 556.238 850 basechar 0
AnchorPoint: "cedilla" 386.238 40 basechar 0
AnchorPoint: "ogonek" 386.238 40 basechar 0
AnchorPoint: "diac_bottom" 327.2 -50 basechar 0
LayerCount: 2
Fore
SplineSet
447.704 120 m 2
 522.704 120 601.398 136 623.1 230 c 0
 643.646 319 591.958 355 491.958 355 c 2
 311.958 355 l 1
 257.704 120 l 1
 447.704 120 l 2
480 0 m 2
 70 0 l 1
 254.694 800 l 1
 614.694 800 l 2
 815.694 800 848.837 688 823.903 580 c 0
 810.975 524 771.815 467 711.888 424 c 1
 772.961 381 802.262 313 783.1 230 c 0
 749.162 83 633 0 480 0 c 2
536.99 680 m 2
 386.99 680 l 1
 339.662 475 l 1
 519.662 475 l 2
 602.662 475 650.975 524 663.903 580 c 0
 678.218 642 646.99 680 536.99 680 c 2
EndSplineSet
EndChar

StartChar: period
Encoding: 46 46 103
Width: 320
VWidth: 0
Flags: W
HStem: 0 200<133.214 232.96>
VStem: 83.0869 200<47.8037 152.196>
LayerCount: 2
Fore
SplineSet
283.087 100 m 0
 270.158 44 216 0 160 0 c 0
 104 0 70.1582 44 83.0869 100 c 0
 96.0156 156 150.174 200 206.174 200 c 0
 262.174 200 296.016 156 283.087 100 c 0
EndSplineSet
EndChar

StartChar: x
Encoding: 120 120 104
Width: 650
VWidth: 0
Flags: W
HStem: 0 21G<0 198.427 460.808 650> 580 20G<168.521 356.008 561.798 758.521>
AnchorPoint: "diac_top" 475.064 650 basechar 0
AnchorPoint: "cedilla" 109.234 40 basechar 0
AnchorPoint: "diac_bottom" 313.457 -50 basechar 0
LayerCount: 2
Fore
SplineSet
168.521 600 m 1
 348.521 600 l 1
 419.656 410 l 1
 578.521 600 l 1
 758.521 600 l 1
 481.569 310 l 1
 650 0 l 1
 470 0 l 1
 373.482 210 l 1
 180 0 l 1
 0 0 l 1
 311.569 310 l 1
 168.521 600 l 1
EndSplineSet
EndChar

StartChar: i
Encoding: 105 105 105
Width: 320
VWidth: 0
Flags: W
HStem: 0 21G<80 244.617> 580 20G<213.903 378.521> 680 200<290.204 389.95>
VStem: 240.077 200<727.804 832.196>
AnchorPoint: "diac_bottom" 148.457 -50 basechar 0
AnchorPoint: "ogonek" 179.234 40 basechar 0
AnchorPoint: "cedilla" 186.238 40 basechar 0
LayerCount: 2
Fore
SplineSet
218.521 600 m 1
 378.521 600 l 1
 240 0 l 1
 80 0 l 1
 218.521 600 l 1
440.077 780 m 0
 427.148 724 372.99 680 316.99 680 c 0
 260.99 680 227.148 724 240.077 780 c 0
 253.006 836 307.164 880 363.164 880 c 0
 419.164 880 453.006 836 440.077 780 c 0
EndSplineSet
EndChar

StartChar: o
Encoding: 111 111 106
Width: 660
VWidth: 0
Flags: W
HStem: -20 120<270.861 447.93> 500 120<355.842 521.951>
AnchorPoint: "diac_top" 480.064 650 basechar 0
AnchorPoint: "ogonek" 359.234 40 basechar 0
AnchorPoint: "cedilla" 349.234 40 basechar 0
AnchorPoint: "diac_bottom" 318.457 -50 basechar 0
LayerCount: 2
Fore
SplineSet
473.139 620 m 0
 647.139 620 737.281 508 700.804 350 c 2
 673.1 230 l 2
 637.777 77 499.383 -20 325.383 -20 c 0
 151.383 -20 57.7764 77 93.0996 230 c 2
 120.804 350 l 2
 157.281 508 299.139 620 473.139 620 c 0
445.434 500 m 0
 380.434 500 308.277 469 280.804 350 c 2
 253.1 230 l 2
 230.244 131 284.087 100 353.087 100 c 0
 422.087 100 490.244 131 513.1 230 c 2
 540.804 350 l 2
 568.277 469 510.434 500 445.434 500 c 0
EndSplineSet
EndChar

StartChar: O
Encoding: 79 79 107
Width: 800
VWidth: 0
Flags: W
HStem: -20 120<321.723 535.234> 700 120<451.318 661.138>
AnchorPoint: "ring_above" 573.151 750 basechar 0
AnchorPoint: "diac_top" 596.238 850 basechar 0
AnchorPoint: "ogonek" 439.234 40 basechar 0
AnchorPoint: "cedilla" 429.234 40 basechar 0
AnchorPoint: "diac_bottom" 388.457 -50 basechar 0
LayerCount: 2
Fore
SplineSet
867.743 510 m 2
 814.643 280 l 2
 772.625 98 602.383 -20 395.383 -20 c 0
 188.383 -20 72.625 98 114.644 280 c 2
 167.743 510 l 2
 208.376 686 382.312 820 589.312 820 c 0
 796.312 820 908.606 687 867.743 510 c 2
707.743 510 m 2
 735.216 629 678.607 700 561.607 700 c 0
 444.607 700 355.216 629 327.743 510 c 2
 274.644 280 l 2
 249.248 170 306.087 100 423.087 100 c 0
 540.087 100 629.248 170 654.643 280 c 2
 707.743 510 l 2
EndSplineSet
EndChar

StartChar: I
Encoding: 73 73 108
Width: 320
VWidth: 0
Flags: W
HStem: 0 21G<80 244.617> 780 20G<260.077 424.694>
VStem: 80 344.694
AnchorPoint: "diac_top" 356.238 850 basechar 0
AnchorPoint: "hook_above" 356.238 850 basechar 0
AnchorPoint: "ogonek" 179.234 40 basechar 0
AnchorPoint: "cedilla" 186.238 40 basechar 0
AnchorPoint: "diac_bottom" 148.457 -50 basechar 0
LayerCount: 2
Fore
SplineSet
264.694 800 m 1
 424.694 800 l 1
 240 0 l 1
 80 0 l 1
 264.694 800 l 1
EndSplineSet
EndChar

StartChar: X
Encoding: 88 88 109
Width: 770
VWidth: 0
Flags: W
HStem: 0 21G<-10 197.843 581.392 780> 780 20G<214.694 412.299 717.855 924.694>
AnchorPoint: "diac_top" 581.238 850 basechar 0
AnchorPoint: "ring_above" 558.151 750 basechar 0
AnchorPoint: "cedilla" 99.2344 40 basechar 0
AnchorPoint: "diac_bottom" 373.457 -50 basechar 0
LayerCount: 2
Fore
SplineSet
214.694 800 m 1
 404.694 800 l 1
 507.36 530 l 1
 734.694 800 l 1
 924.694 800 l 1
 576.965 420 l 1
 780 0 l 1
 590 0 l 1
 456.569 310 l 1
 180 0 l 1
 -10 0 l 1
 386.965 420 l 1
 214.694 800 l 1
EndSplineSet
EndChar

StartChar: H
Encoding: 72 72 110
Width: 800
VWidth: 0
Flags: W
HStem: 0 21G<70 234.617 570 734.617> 340 120<336.199 648.495> 780 20G<250.077 414.694 750.077 914.694>
AnchorPoint: "diac_bottom" 388.457 -50 basechar 0
AnchorPoint: "diac_top" 596.238 850 basechar 0
AnchorPoint: "cedilla" 149.234 40 basechar 0
LayerCount: 2
Fore
SplineSet
730 0 m 1
 570 0 l 1
 648.495 340 l 1
 308.495 340 l 1
 230 0 l 1
 70 0 l 1
 148.495 340 l 1
 176.199 460 l 1
 254.694 800 l 1
 414.694 800 l 1
 336.199 460 l 1
 676.199 460 l 1
 754.694 800 l 1
 914.694 800 l 1
 836.199 460 l 1
 808.495 340 l 1
 730 0 l 1
EndSplineSet
EndChar

StartChar: P
Encoding: 80 80 111
Width: 740
VWidth: 0
Flags: W
HStem: 0 21G<70 234.617> 300 120<326.965 596.298> 680 120<386.99 651.585>
AnchorPoint: "diac_bottom" 327.2 -50 basechar 0
AnchorPoint: "diac_top" 556.238 850 basechar 0
LayerCount: 2
Fore
SplineSet
509.261 300 m 2
 299.261 300 l 1
 230 0 l 1
 70 0 l 1
 254.694 800 l 1
 624.694 800 l 2
 825.694 800 861.911 658 836.978 550 c 0
 812.044 442 710.261 300 509.261 300 c 2
486.965 420 m 2
 609.965 420 660.586 479 676.978 550 c 0
 693.369 621 669.99 680 546.99 680 c 2
 386.99 680 l 1
 326.965 420 l 1
 486.965 420 l 2
EndSplineSet
EndChar

StartChar: p
Encoding: 112 112 112
Width: 710
VWidth: 0
Flags: W
HStem: -20 120<297.895 477.696> 500 120<441.571 561.691> 580 20G<203.903 368.521>
AnchorPoint: "diac_bottom" 408.457 -50 basechar 0
AnchorPoint: "diac_top" 510.064 650 basechar 0
LayerCount: 2
Fore
SplineSet
167.666 -270 m 1xc0
 7.66602 -270 l 1
 208.521 600 l 1
 368.521 600 l 1xa0
 353.745 536 l 1
 407.827 584 476.139 620 553.139 620 c 0
 692.139 620 778.204 512 743.112 360 c 2
 720.025 260 l 2
 676.622 72 541.383 -20 385.383 -20 c 0
 317.383 -20 271.539 11 242.697 55 c 1
 167.666 -270 l 1xc0
324.887 411 m 1
 270.633 176 l 1
 280.244 131 311.087 100 383.087 100 c 0
 485.087 100 538.094 165 560.025 260 c 2
 583.112 360 l 2
 602.274 443 577.434 500 475.434 500 c 0xc0
 406.434 500 354.892 463 324.887 411 c 1
EndSplineSet
EndChar

StartChar: K
Encoding: 75 75 113
Width: 730
VWidth: 0
Flags: W
HStem: 0 21G<70 234.617 531.228 730> 780 20G<250.077 414.694 675.889 864.694>
AnchorPoint: "diac_top" 566.238 850 basechar 0
AnchorPoint: "diac_bottom" 358.457 -50 basechar 0
LayerCount: 2
Fore
SplineSet
694.694 800 m 1
 864.694 800 l 1
 521.582 440 l 1
 730 0 l 1
 540 0 l 1
 382.112 360 l 1
 313.112 360 l 1
 230 0 l 1
 70 0 l 1
 254.694 800 l 1
 414.694 800 l 1
 340.816 480 l 1
 393.816 480 l 1
 694.694 800 l 1
EndSplineSet
EndChar

StartChar: j
Encoding: 106 106 114
Width: 340
VWidth: 0
Flags: W
HStem: -290 120<-69.248 38.1346> 580 20G<233.903 398.521> 680 200<310.204 409.95>
VStem: 260.077 200<727.804 832.196>
AnchorPoint: "diac_bottom" 347.2 -50 basechar 0
LayerCount: 2
Fore
SplineSet
241.53 -80 m 2
 211.056 -212 108.048 -290 -96.9521 -290 c 1
 -69.248 -170 l 1
 19.752 -170 67.4473 -141 81.5303 -80 c 2
 238.521 600 l 1
 398.521 600 l 1
 241.53 -80 l 2
460.077 780 m 0
 447.148 724 392.99 680 336.99 680 c 0
 280.99 680 247.148 724 260.077 780 c 0
 273.006 836 327.164 880 383.164 880 c 0
 439.164 880 473.006 836 460.077 780 c 0
EndSplineSet
EndChar

StartChar: D
Encoding: 68 68 115
Width: 780
VWidth: 0
Flags: W
HStem: 0 120<257.704 497.765> 680 120<386.99 611.38>
AnchorPoint: "diac_top" 546.238 850 basechar 0
AnchorPoint: "ogonek" 379.234 40 basechar 0
AnchorPoint: "cedilla" 379.234 40 basechar 0
AnchorPoint: "diac_bottom" 327.2 -50 basechar 0
LayerCount: 2
Fore
SplineSet
494.694 800 m 2
 765.694 800 897.914 684 843.891 450 c 2
 816.187 330 l 2
 763.317 101 591 0 350 0 c 2
 70 0 l 1
 254.694 800 l 1
 494.694 800 l 2
466.99 680 m 2
 386.99 680 l 1
 257.704 120 l 1
 367.704 120 l 2
 486.704 120 619.94 173 656.187 330 c 2
 683.891 450 l 2
 720.599 609 657.99 680 466.99 680 c 2
EndSplineSet
EndChar

StartChar: E
Encoding: 69 69 116
Width: 670
VWidth: 0
Flags: W
HStem: 0 120<257.704 630> 340 120<336.199 668.495> 680 120<386.99 776.99>
CounterMasks: 1 e0
AnchorPoint: "hook_above" 531.238 850 basechar 0
AnchorPoint: "diac_top" 531.238 850 basechar 0
AnchorPoint: "cedilla" 369.234 40 basechar 0
AnchorPoint: "ogonek" 549.234 40 basechar 0
AnchorPoint: "diac_bottom" 317.2 -50 basechar 0
LayerCount: 2
Fore
SplineSet
257.704 120 m 1
 657.704 120 l 1
 630 0 l 1
 230 0 l 1
 70 0 l 1
 97.7041 120 l 1
 148.495 340 l 1
 176.199 460 l 1
 226.99 680 l 1
 254.694 800 l 1
 414.694 800 l 1
 804.694 800 l 1
 776.99 680 l 1
 386.99 680 l 1
 336.199 460 l 1
 696.199 460 l 1
 668.495 340 l 1
 308.495 340 l 1
 257.704 120 l 1
EndSplineSet
EndChar

StartChar: L
Encoding: 76 76 117
Width: 590
VWidth: 0
Flags: W
HStem: 0 120<257.704 580> 780 20G<250.077 414.694>
AnchorPoint: "diac_top" 346.238 850 basechar 0
AnchorPoint: "diac_bottom" 288.457 -50 basechar 0
LayerCount: 2
Fore
SplineSet
257.704 120 m 1
 607.704 120 l 1
 580 0 l 1
 200 0 l 1
 70 0 l 1
 97.7041 120 l 1
 254.694 800 l 1
 414.694 800 l 1
 257.704 120 l 1
EndSplineSet
EndChar

StartChar: F
Encoding: 70 70 118
Width: 650
VWidth: 0
Flags: W
HStem: 0 21G<70 234.617> 340 120<336.199 668.495> 680 120<386.99 776.99>
AnchorPoint: "diac_bottom" 317.2 -50 basechar 0
AnchorPoint: "diac_top" 531.238 850 basechar 0
LayerCount: 2
Fore
SplineSet
230 0 m 1
 70 0 l 1
 148.495 340 l 1
 176.199 460 l 1
 226.99 680 l 1
 254.694 800 l 1
 414.694 800 l 1
 804.694 800 l 1
 776.99 680 l 1
 386.99 680 l 1
 336.199 460 l 1
 696.199 460 l 1
 668.495 340 l 1
 308.495 340 l 1
 230 0 l 1
EndSplineSet
EndChar

StartChar: J
Encoding: 74 74 119
Width: 540
VWidth: 0
Flags: W
HStem: -20 120<212.596 327.272> 780 20G<490.077 654.694>
AnchorPoint: "diac_top" 586.238 850 basechar 0
AnchorPoint: "diac_bottom" 228.457 -50 basechar 0
LayerCount: 2
Fore
SplineSet
235.383 -20 m 0
 85.3828 -20 26.8535 73 49.248 170 c 1
 209.248 170 l 1
 198.628 124 218.087 100 263.087 100 c 0
 308.087 100 338.628 124 349.248 170 c 2
 494.694 800 l 1
 654.694 800 l 1
 509.248 170 l 2
 486.854 73 385.383 -20 235.383 -20 c 0
EndSplineSet
EndChar

StartChar: T
Encoding: 84 84 120
Width: 580
VWidth: 0
Flags: W
HStem: 0 21G<210 374.617> 680 120<214.694 366.99 526.99 706.99>
AnchorPoint: "diac_top" 486.238 850 basechar 0
AnchorPoint: "cedilla" 289.234 40 basechar 0
AnchorPoint: "diac_bottom" 278.457 -50 basechar 0
LayerCount: 2
Fore
SplineSet
186.99 680 m 1
 214.694 800 l 1
 424.694 800 l 1
 524.694 800 l 1
 734.694 800 l 1
 706.99 680 l 1
 526.99 680 l 1
 370 0 l 1
 210 0 l 1
 366.99 680 l 1
 186.99 680 l 1
EndSplineSet
EndChar

StartChar: N
Encoding: 78 78 121
Width: 800
VWidth: 0
Flags: W
HStem: 0 21G<70 234.617 562.474 734.617> 780 20G<250.077 422.22 750.077 914.694>
AnchorPoint: "diac_top" 596.238 850 basechar 0
AnchorPoint: "cedilla" 139.234 40 basechar 0
AnchorPoint: "diac_bottom" 388.457 -50 basechar 0
LayerCount: 2
Fore
SplineSet
230 0 m 1
 70 0 l 1
 254.694 800 l 1
 414.694 800 l 1
 625.408 240 l 1
 754.694 800 l 1
 914.694 800 l 1
 730 0 l 1
 570 0 l 1
 359.286 560 l 1
 230 0 l 1
EndSplineSet
EndChar

StartChar: M
Encoding: 77 77 122
Width: 960
VWidth: 0
Flags: W
HStem: 0 21G<70 234.617 408.268 560.967 730 894.617> 780 20G<250.077 466.426 853.728 1074.69>
AnchorPoint: "diac_bottom" 468.457 -50 basechar 0
AnchorPoint: "diac_top" 676.238 850 basechar 0
AnchorPoint: "cedilla" 479.234 40 basechar 0
LayerCount: 2
Fore
SplineSet
890 0 m 1
 730 0 l 1
 860.902 567 l 1
 550 0 l 1
 480 0 l 1
 410 0 l 1
 360.902 567 l 1
 230 0 l 1
 70 0 l 1
 254.694 800 l 1
 394.694 800 l 1
 414.694 800 l 1
 464.694 800 l 1
 519.248 170 l 1
 864.694 800 l 1
 914.694 800 l 1
 934.694 800 l 1
 1074.69 800 l 1
 890 0 l 1
EndSplineSet
EndChar

StartChar: U
Encoding: 85 85 123
Width: 800
VWidth: 0
Flags: W
HStem: -20 120<325.716 529.736> 780 20G<240.077 404.694 760.077 924.694>
AnchorPoint: "hook_above" 596.238 850 basechar 0
AnchorPoint: "ring_above" 573.151 750 basechar 0
AnchorPoint: "diac_top" 596.238 850 basechar 0
AnchorPoint: "ogonek" 439.234 40 basechar 0
AnchorPoint: "cedilla" 426.238 40 basechar 0
AnchorPoint: "diac_bottom" 388.457 -50 basechar 0
LayerCount: 2
Fore
SplineSet
244.694 800 m 1
 404.694 800 l 1
 284.644 280 l 2
 252.553 141 340.087 100 423.087 100 c 0
 506.087 100 612.553 141 644.643 280 c 2
 764.694 800 l 1
 924.694 800 l 1
 804.643 280 l 2
 759.624 85 588.383 -20 395.383 -20 c 0
 202.383 -20 79.624 85 124.644 280 c 2
 244.694 800 l 1
EndSplineSet
EndChar

StartChar: b
Encoding: 98 98 124
Width: 710
VWidth: 0
Flags: W
HStem: -20 120<305.218 483.047> 0 21G<70 234.617> 500 120<426.336 556.651> 880 20G<273.164 437.781>
AnchorPoint: "diac_top" 560.064 650 basechar 0
AnchorPoint: "diac_bottom" 348.457 -50 basechar 0
LayerCount: 2
Fore
SplineSet
273.634 189 m 1xb0
 279.629 137 314.087 100 383.087 100 c 0
 485.087 100 536.246 157 555.408 240 c 2
 578.495 340 l 2
 600.428 435 577.434 500 475.434 500 c 0
 403.434 500 358.277 469 327.888 424 c 1
 273.634 189 l 1xb0
244.775 64 m 1
 230 0 l 1
 70 0 l 1x70
 277.781 900 l 1
 437.781 900 l 1
 355.823 545 l 1
 404.981 589 465.139 620 533.139 620 c 0
 689.139 620 781.898 528 738.495 340 c 2
 715.408 240 l 2
 680.316 88 544.383 -20 405.383 -20 c 0
 328.383 -20 276.694 16 244.775 64 c 1
EndSplineSet
EndChar

StartChar: R
Encoding: 82 82 125
Width: 780
VWidth: 0
Flags: W
HStem: 0 21G<70 234.617 583.284 770> 300 120<326.965 489.261> 680 120<386.99 651.585>
AnchorPoint: "diac_top" 556.238 850 basechar 0
AnchorPoint: "diac_bottom" 368.457 -50 basechar 0
LayerCount: 2
Fore
SplineSet
546.99 680 m 2
 386.99 680 l 1
 326.965 420 l 1
 486.965 420 l 2
 609.965 420 660.586 479 676.978 550 c 0
 693.369 621 669.99 680 546.99 680 c 2
624.694 800 m 2
 825.694 800 861.911 658 836.978 550 c 0
 818.97 472 760.807 376 654.956 329 c 1
 770 0 l 1
 590 0 l 1
 489.261 300 l 1
 299.261 300 l 1
 230 0 l 1
 70 0 l 1
 254.694 800 l 1
 624.694 800 l 2
EndSplineSet
EndChar

StartChar: V
Encoding: 86 86 126
Width: 800
VWidth: 0
Flags: W
HStem: 0 21G<316.617 492.617> 780 20G<184.694 362.577 797.577 984.694>
AnchorPoint: "diac_top" 596.238 850 basechar 0
AnchorPoint: "diac_bottom" 388.457 -50 basechar 0
LayerCount: 2
Fore
SplineSet
984.694 800 m 1
 480 0 l 1
 475 0 l 1
 325 0 l 1
 320 0 l 1
 184.694 800 l 1
 359.694 800 l 1
 446.174 200 l 1
 809.694 800 l 1
 984.694 800 l 1
EndSplineSet
EndChar

StartChar: Y
Encoding: 89 89 127
Width: 700
VWidth: 0
Flags: W
HStem: 0 21G<270 434.617> 780 20G<184.694 369.521 690.633 884.694>
AnchorPoint: "hook_above" 546.238 850 basechar 0
AnchorPoint: "diac_bottom" 338.457 -50 basechar 0
AnchorPoint: "ring_above" 523.151 750 basechar 0
AnchorPoint: "diac_top" 546.238 850 basechar 0
LayerCount: 2
Fore
SplineSet
184.694 800 m 1
 364.694 800 l 1
 451.582 440 l 1
 704.694 800 l 1
 884.694 800 l 1
 496.952 290 l 1
 430 0 l 1
 270 0 l 1
 336.952 290 l 1
 184.694 800 l 1
EndSplineSet
EndChar

StartChar: A
Encoding: 65 65 128
Width: 800
VWidth: 0
Flags: W
HStem: 0 21G<0 187.084 622.151 800> 150 120<338.334 586.334> 780 20G<492.077 668.077>
AnchorPoint: "diac_top" 596.238 850 basechar 0
AnchorPoint: "hook_above" 596.238 850 basechar 0
AnchorPoint: "ring_above" 573.151 750 basechar 0
AnchorPoint: "diac_bottom" 388.457 -50 basechar 0
AnchorPoint: "ogonek" 709.234 40 basechar 0
AnchorPoint: "cedilla" 716.238 40 basechar 0
LayerCount: 2
Fore
SplineSet
800 0 m 1
 625 0 l 1
 603.63 150 l 1
 265.63 150 l 1
 175 0 l 1
 0 0 l 1
 504.694 800 l 1
 509.694 800 l 1
 659.694 800 l 1
 664.694 800 l 1
 800 0 l 1
586.334 270 m 1
 538.521 600 l 1
 338.334 270 l 1
 586.334 270 l 1
EndSplineSet
EndChar

StartChar: Q
Encoding: 81 81 129
Width: 800
VWidth: 0
Flags: W
HStem: -20 120<321.723 517.903> 700 120<451.318 661.138>
AnchorPoint: "diac_bottom" 388.457 -50 basechar 0
AnchorPoint: "diac_top" 596.238 850 basechar 0
AnchorPoint: "ring_above" 573.151 750 basechar 0
LayerCount: 2
Fore
SplineSet
867.743 510 m 2
 814.643 280 l 2
 797.097 204 757.091 139 701.547 89 c 1
 777.691 -10 l 1
 679.222 -90 l 1
 593.849 21 l 1
 534.615 -6 467.383 -20 395.383 -20 c 0
 188.383 -20 72.625 98 114.644 280 c 2
 167.743 510 l 2
 208.376 686 382.312 820 589.312 820 c 0
 796.312 820 908.606 687 867.743 510 c 2
425.408 240 m 1
 524.878 320 l 1
 618.481 197 l 1
 635.021 221 647.486 249 654.643 280 c 2
 707.743 510 l 2
 735.216 629 678.607 700 561.607 700 c 0
 444.607 700 355.216 629 327.743 510 c 2
 274.644 280 l 2
 249.248 170 306.087 100 423.087 100 c 0
 458.087 100 490.472 106 519.242 118 c 1
 425.408 240 l 1
EndSplineSet
EndChar

StartChar: Z
Encoding: 90 90 130
Width: 740
VWidth: 0
Flags: W
HStem: 0 130<260.013 710> 680 120<244.694 656.99>
AnchorPoint: "diac_top" 566.238 850 basechar 0
AnchorPoint: "cedilla" 389.234 40 basechar 0
AnchorPoint: "diac_bottom" 358.457 -50 basechar 0
LayerCount: 2
Fore
SplineSet
244.694 800 m 1
 874.694 800 l 1
 846.99 680 l 1
 260.013 130 l 1
 740.013 130 l 1
 710 0 l 1
 30 0 l 1
 60.0127 130 l 1
 656.99 680 l 1
 216.99 680 l 1
 244.694 800 l 1
EndSplineSet
EndChar

StartChar: W
Encoding: 87 87 131
Width: 1100
VWidth: 0
Flags: W
HStem: 0 21G<238.617 390.49 718.745 870.617> 780 20G<184.694 355.342 659.211 800.943 1104.81 1284.69>
VStem: 184.694 170<678.493 800>
AnchorPoint: "diac_top" 746.238 850 basechar 0
AnchorPoint: "diac_bottom" 538.457 -50 basechar 0
AnchorPoint: "ring_above" 723.151 750 basechar 0
LayerCount: 2
Fore
SplineSet
1284.69 800 m 1
 860 0 l 1
 850 0 l 1
 720 0 l 1
 683.673 579 l 1
 380 0 l 1
 250 0 l 1
 240 0 l 1
 184.694 800 l 1
 354.694 800 l 1
 373.023 234 l 1
 669.694 800 l 1
 799.694 800 l 1
 835.023 234 l 1
 1114.69 800 l 1
 1284.69 800 l 1
EndSplineSet
EndChar

StartChar: S
Encoding: 83 83 132
Width: 790
VWidth: 0
Flags: W
HStem: -20 120<315.142 544.921> 700 120<442.826 646.627>
VStem: 107.717 165<140.125 250> 685.058 160<585 665.594>
AnchorPoint: "diac_bottom" 383.457 -50 basechar 0
AnchorPoint: "diac_top" 591.238 850 basechar 0
AnchorPoint: "cedilla" 429.234 40 basechar 0
LayerCount: 2
Fore
SplineSet
793.1 230 m 0
 758.008 78 596.383 -20 390.383 -20 c 0
 173.383 -20 70.3164 88 107.717 250 c 1
 272.717 250 l 1
 251.246 157 310.087 100 418.087 100 c 0
 526.087 100 618.938 147 638.1 230 c 0
 656.569 310 589.419 344 473.112 360 c 0
 373.345 374 162.578 401 205.058 585 c 0
 229.068 689 371.312 820 579.312 820 c 0
 787.312 820 869.068 689 845.058 585 c 1
 685.058 585 l 1
 701.219 655 639.607 700 551.607 700 c 0
 463.607 700 381.219 655 365.058 585 c 0
 351.898 528 404.511 496 501.971 485 c 0
 654.815 467 840.428 435 793.1 230 c 0
EndSplineSet
EndChar

StartChar: u
Encoding: 117 117 133
Width: 660
VWidth: 0
Flags: W
HStem: -20 120<282.466 433.81> 580 20G<193.903 358.521 573.903 738.521>
AnchorPoint: "diac_top" 480.064 650 basechar 0
AnchorPoint: "hook_above" 486.99 680 basechar 0
AnchorPoint: "ring_above" 480.064 650 basechar 0
AnchorPoint: "ogonek" 359.234 40 basechar 0
AnchorPoint: "cedilla" 356.238 40 basechar 0
AnchorPoint: "diac_bottom" 297.2 -50 basechar 0
LayerCount: 2
Fore
SplineSet
266.174 200 m 2
 250.705 133 297.087 100 353.087 100 c 0
 409.087 100 470.705 133 486.174 200 c 2
 578.521 600 l 1
 738.521 600 l 1
 646.174 200 l 2
 618.008 78 486.383 -20 325.383 -20 c 0
 164.383 -20 78.0078 78 106.174 200 c 2
 198.521 600 l 1
 358.521 600 l 1
 266.174 200 l 2
EndSplineSet
EndChar

StartChar: C
Encoding: 67 67 134
Width: 810
VWidth: 0
Flags: W
HStem: -20 120<328.59 552.465> 700 120<452.961 679.695>
AnchorPoint: "diac_top" 601.238 850 basechar 0
AnchorPoint: "ogonek" 436.238 40 basechar 0
AnchorPoint: "diac_bottom" 377.2 -50 basechar 0
AnchorPoint: "cedilla" 434.234 40 basechar 0
LayerCount: 2
Fore
SplineSet
599.312 820 m 0
 806.312 820 922.069 702 882.36 530 c 1
 722.36 530 l 1
 751.219 655 673.607 700 571.607 700 c 0
 469.607 700 371.219 655 342.36 530 c 2
 280.025 260 l 2
 253.476 145 336.087 100 433.087 100 c 0
 530.087 100 633.476 145 660.025 260 c 1
 820.025 260 l 1
 780.316 88 612.383 -20 405.383 -20 c 0
 198.383 -20 80.3164 88 120.025 260 c 2
 182.36 530 l 2
 222.069 702 392.312 820 599.312 820 c 0
EndSplineSet
EndChar

StartChar: d
Encoding: 100 100 135
Width: 710
VWidth: 0
Flags: W
HStem: -20 120<286.83 406.95> 0 21G<480 644.617> 500 120<370.825 550.626> 880 20G<683.164 847.781>
AnchorPoint: "cedilla" 369.234 40 basechar 0
AnchorPoint: "diac_bottom" 338.457 -50 basechar 0
AnchorPoint: "diac_top" 450.064 650 basechar 0
LayerCount: 2
Fore
SplineSet
523.634 189 m 1xb0
 577.888 424 l 1
 568.277 469 537.434 500 465.434 500 c 0
 363.434 500 310.428 435 288.495 340 c 2
 265.408 240 l 2
 246.246 157 271.087 100 373.087 100 c 0
 442.087 100 493.629 137 523.634 189 c 1xb0
494.775 64 m 1
 440.694 16 372.383 -20 295.383 -20 c 0xb0
 156.383 -20 70.3164 88 105.408 240 c 2
 128.495 340 l 2
 171.898 528 307.139 620 463.139 620 c 0
 531.139 620 576.981 589 605.823 545 c 1
 687.781 900 l 1
 847.781 900 l 1
 640 0 l 1
 480 0 l 1x70
 494.775 64 l 1
EndSplineSet
EndChar

StartChar: G
Encoding: 71 71 136
Width: 820
VWidth: 0
Flags: W
HStem: -20 120<328.59 583.213> 300 120<516.965 669.261> 700 120<452.961 679.695>
AnchorPoint: "diac_bottom" 398.457 -50 basechar 0
AnchorPoint: "diac_top" 606.238 850 basechar 0
LayerCount: 2
Fore
SplineSet
516.965 420 m 1
 856.965 420 l 1
 790.013 130 l 1
 677.155 18 556.383 -20 405.383 -20 c 0
 198.383 -20 80.3164 88 120.025 260 c 2
 182.36 530 l 2
 222.069 702 392.312 820 599.312 820 c 0
 806.312 820 922.069 702 882.36 530 c 1
 722.36 530 l 1
 751.219 655 673.607 700 571.607 700 c 0
 469.607 700 371.219 655 342.36 530 c 2
 280.025 260 l 2
 253.476 145 336.087 100 433.087 100 c 0
 531.087 100 593.166 122 636.246 157 c 1
 669.261 300 l 1
 489.261 300 l 1
 516.965 420 l 1
EndSplineSet
EndChar

StartChar: g
Encoding: 103 103 137
Width: 710
VWidth: 0
Flags: W
HStem: -290 120<227 416.186> -20 120<291.87 422.184> 500 120<365.474 543.303> 580 20G<613.903 778.521>
VStem: 51.5303 160<-151.617 -80>
AnchorPoint: "diac_top" 500.064 650 basechar 0
LayerCount: 2
Fore
SplineSet
51.5303 -80 m 1xd8
 211.53 -80 l 1
 200.68 -127 224.752 -170 315.752 -170 c 0
 406.752 -170 450.68 -127 461.53 -80 c 2
 492.697 55 l 1
 443.539 11 383.383 -20 315.383 -20 c 0
 159.383 -20 66.6221 72 110.025 260 c 2
 133.112 360 l 2
 168.204 512 304.139 620 443.139 620 c 0xe8
 520.139 620 571.827 584 603.745 536 c 1
 618.521 600 l 1
 778.521 600 l 1
 621.53 -80 l 2
 592.21 -207 461.048 -290 288.048 -290 c 0
 115.048 -290 22.21 -207 51.5303 -80 c 1xd8
574.887 411 m 1
 568.892 463 534.434 500 465.434 500 c 0
 363.434 500 312.274 443 293.112 360 c 2
 270.025 260 l 2
 248.093 165 271.087 100 373.087 100 c 0
 445.087 100 490.244 131 520.633 176 c 1
 574.887 411 l 1
EndSplineSet
EndChar

StartChar: l
Encoding: 108 108 138
Width: 350
VWidth: 0
Flags: W
HStem: 880 20G<283.164 447.781>
AnchorPoint: "diac_top" 379.325 950 basechar 0
AnchorPoint: "diac_bottom" 178.457 -50 basechar 0
LayerCount: 2
Fore
SplineSet
287.691 -10 m 1
 141.691 -10 86.0029 26 110.013 130 c 2
 287.781 900 l 1
 447.781 900 l 1
 281.557 180 l 2
 269.09 126 278.396 110 315.396 110 c 1
 287.691 -10 l 1
EndSplineSet
EndChar

StartChar: n
Encoding: 110 110 139
Width: 670
VWidth: 0
Flags: W
HStem: 0 21G<60 224.617 460 624.617> 500 120<447.301 615.139> 580 20G<193.903 358.521>
AnchorPoint: "diac_bottom" 328.457 -50 basechar 0
AnchorPoint: "diac_top" 500.064 650 basechar 0
AnchorPoint: "cedilla" 129.234 40 basechar 0
LayerCount: 2
Fore
SplineSet
198.521 600 m 1xa0
 358.521 600 l 1xa0
 339.82 519 l 1
 389.44 565 466.139 620 553.139 620 c 0
 677.139 620 744.899 541 714.656 410 c 2
 620 0 l 1
 460 0 l 1
 554.656 410 l 2
 568.97 472 527.434 500 465.434 500 c 0xc0
 403.434 500 354.046 468 318.35 426 c 1
 220 0 l 1
 60 0 l 1
 198.521 600 l 1xa0
EndSplineSet
EndChar

StartChar: m
Encoding: 109 109 140
Width: 970
VWidth: 0
Flags: W
HStem: 0 21G<60 224.617 410 574.617 760 924.617> 500 120<421.73 553.639 760.444 924.139> 580 20G<193.903 358.521>
AnchorPoint: "diac_top" 640.064 650 basechar 0
AnchorPoint: "diac_bottom" 478.457 -50 basechar 0
AnchorPoint: "cedilla" 489.234 40 basechar 0
LayerCount: 2
Fore
SplineSet
198.521 600 m 1xa0
 358.521 600 l 1xa0
 344.207 538 l 1
 391.365 582 452.139 620 518.139 620 c 0
 589.139 620 640.596 583 661.206 525 c 1
 709.364 569 783.139 620 863.139 620 c 0
 985.139 620 1042.82 532 1014.66 410 c 2
 920 0 l 1
 760 0 l 1
 854.656 410 l 2
 865.969 459 853.434 500 785.434 500 c 0
 740.434 500 702.51 483 670.737 458 c 1
 670.274 443 668.581 427 664.656 410 c 2
 570 0 l 1
 410 0 l 1
 504.656 410 l 2
 517.354 465 503.434 500 435.434 500 c 0xc0
 394.434 500 356.586 479 323.66 449 c 1
 220 0 l 1
 60 0 l 1
 198.521 600 l 1xa0
EndSplineSet
EndChar

StartChar: q
Encoding: 113 113 141
Width: 710
VWidth: 0
Flags: W
HStem: -20 120<291.87 422.184> 500 120<365.474 543.303> 580 20G<613.903 778.521>
AnchorPoint: "diac_top" 490.064 650 basechar 0
AnchorPoint: "diac_bottom" 228.457 -50 basechar 0
LayerCount: 2
Fore
SplineSet
417.666 -270 m 1xa0
 492.697 55 l 1
 443.539 11 383.383 -20 315.383 -20 c 0
 159.383 -20 66.6221 72 110.025 260 c 2
 133.112 360 l 2
 168.204 512 304.139 620 443.139 620 c 0xc0
 520.139 620 571.827 584 603.745 536 c 1
 618.521 600 l 1
 778.521 600 l 1
 577.666 -270 l 1
 417.666 -270 l 1xa0
574.887 411 m 1
 568.892 463 534.434 500 465.434 500 c 0
 363.434 500 312.274 443 293.112 360 c 2
 270.025 260 l 2
 248.093 165 271.087 100 373.087 100 c 0
 445.087 100 490.244 131 520.633 176 c 1
 574.887 411 l 1
EndSplineSet
EndChar

StartChar: a
Encoding: 97 97 142
Width: 700
VWidth: 0
Flags: W
HStem: -20 120<268.852 414.445> 270 90<292.968 512.334> 500 120<368.585 532.701>
AnchorPoint: "diac_top" 490.064 650 basechar 0
AnchorPoint: "hook_above" 496.99 680 basechar 0
AnchorPoint: "ring_above" 490.064 650 basechar 0
AnchorPoint: "diac_bottom" 328.457 -50 basechar 0
AnchorPoint: "ogonek" 599.234 40 basechar 0
AnchorPoint: "cedilla" 596.238 40 basechar 0
LayerCount: 2
Fore
SplineSet
324.656 410 m 1
 164.656 410 l 1
 193.977 537 324.139 620 483.139 620 c 0
 642.139 620 733.977 537 704.656 410 c 2
 651.557 180 l 2
 639.09 126 648.396 110 685.396 110 c 1
 657.691 -10 l 1
 561.691 -10 504.385 6 483.62 46 c 1
 430.385 6 363.383 -20 285.383 -20 c 0
 135.383 -20 67.3154 75 92.7109 185 c 0
 122.954 316 253.112 360 383.112 360 c 2
 533.112 360 l 1
 544.656 410 l 2
 561.278 482 504.434 500 455.434 500 c 0
 406.434 500 341.278 482 324.656 410 c 1
512.334 270 m 1
 372.334 270 l 2
 306.334 270 264.716 237 252.711 185 c 0
 243.476 145 264.087 100 343.087 100 c 0
 399.087 100 452.396 123 488.094 165 c 1
 512.334 270 l 1
EndSplineSet
EndChar

StartChar: h
Encoding: 104 104 143
Width: 680
VWidth: 0
Flags: W
HStem: 0 21G<70 234.617 470 634.617> 500 120<457.301 625.139> 880 20G<273.164 437.781>
AnchorPoint: "diac_bottom" 338.457 -50 basechar 0
AnchorPoint: "diac_top" 580.064 650 basechar 0
AnchorPoint: "cedilla" 149.234 40 basechar 0
LayerCount: 2
Fore
SplineSet
208.521 600 m 1
 277.781 900 l 1
 437.781 900 l 1
 368.521 600 l 1
 349.82 519 l 1
 399.44 565 476.139 620 563.139 620 c 0
 687.139 620 754.899 541 724.656 410 c 2
 630 0 l 1
 470 0 l 1
 564.656 410 l 2
 578.97 472 537.434 500 475.434 500 c 0
 413.434 500 364.046 468 328.35 426 c 1
 230 0 l 1
 70 0 l 1
 208.521 600 l 1
EndSplineSet
EndChar

StartChar: e
Encoding: 101 101 144
Width: 680
VWidth: 0
Flags: W
HStem: -20 120<284.479 454.977> 270 90<293.112 557.694> 500 120<365.75 533.977>
AnchorPoint: "hook_above" 496.99 680 basechar 0
AnchorPoint: "diac_bottom" 328.457 -50 basechar 0
AnchorPoint: "diac_top" 490.064 650 basechar 0
AnchorPoint: "cedilla" 369.234 40 basechar 0
AnchorPoint: "ogonek" 369.234 40 basechar 0
LayerCount: 2
Fore
SplineSet
553.112 360 m 1
 572.274 443 544.434 500 455.434 500 c 0
 366.434 500 312.274 443 293.112 360 c 1
 553.112 360 l 1
713.112 360 m 2
 692.334 270 l 1
 272.334 270 l 1
 256.174 200 l 2
 244.399 149 285.087 100 363.087 100 c 0
 441.087 100 504.399 149 516.174 200 c 1
 676.174 200 l 1
 650.547 89 514.383 -20 335.383 -20 c 0
 156.383 -20 70.5469 89 96.1738 200 c 2
 133.112 360 l 2
 161.278 482 293.139 620 483.139 620 c 0
 673.139 620 741.278 482 713.112 360 c 2
EndSplineSet
EndChar

StartChar: c
Encoding: 99 99 145
Width: 640
VWidth: 0
Flags: W
HStem: -20 120<273.63 448.263> 500 120<362.804 523.551>
AnchorPoint: "diac_top" 480.064 650 basechar 0
AnchorPoint: "diac_bottom" 318.457 -50 basechar 0
AnchorPoint: "cedilla" 349.234 40 basechar 0
LayerCount: 2
Fore
SplineSet
478.139 620 m 0
 634.139 620 731.898 528 702.348 400 c 1
 542.348 400 l 1
 557.123 464 516.434 500 450.434 500 c 0
 384.434 500 316.661 462 297.729 380 c 2
 256.174 200 l 2
 239.32 127 292.087 100 358.087 100 c 0
 424.087 100 480.244 131 496.174 200 c 1
 656.174 200 l 1
 624.313 62 484.383 -20 330.383 -20 c 0
 176.383 -20 62.0049 52 96.1738 200 c 2
 137.729 380 l 2
 171.898 528 322.139 620 478.139 620 c 0
EndSplineSet
EndChar

StartChar: w
Encoding: 119 119 146
Width: 850
VWidth: 0
Flags: W
HStem: 0 21G<178.951 339.617 519.617 680.284> 580 20G<148.521 308.589 498.927 618.879 809.217 978.521>
VStem: 148.521 160<439.896 600> 520 105.941<186 380>
AnchorPoint: "diac_top" 575.064 650 basechar 0
AnchorPoint: "diac_bottom" 413.457 -50 basechar 0
AnchorPoint: "ring_above" 575.064 650 basechar 0
LayerCount: 2
Fore
SplineSet
818.521 600 m 1
 978.521 600 l 1
 670 0 l 1
 630 0 l 1
 540 0 l 1
 520 0 l 1
 512.729 380 l 1
 330 0 l 1
 310 0 l 1
 220 0 l 1
 180 0 l 1
 148.521 600 l 1
 308.521 600 l 1
 309.941 186 l 1
 508.521 600 l 1
 618.521 600 l 1
 625.941 186 l 1
 818.521 600 l 1
EndSplineSet
EndChar

StartChar: v
Encoding: 118 118 147
Width: 660
VWidth: 0
Flags: W
HStem: 0 21G<246.617 422.617> 580 20G<148.521 320.896 606.91 788.521>
AnchorPoint: "diac_bottom" 318.457 -50 basechar 0
AnchorPoint: "diac_top" 480.064 650 basechar 0
LayerCount: 2
Fore
SplineSet
618.521 600 m 1
 788.521 600 l 1
 410 0 l 1
 390 0 l 1
 270 0 l 1
 250 0 l 1
 148.521 600 l 1
 318.521 600 l 1
 369.479 171 l 1
 618.521 600 l 1
EndSplineSet
EndChar

StartChar: z
Encoding: 122 122 148
Width: 620
VWidth: 0
Flags: W
HStem: 0 130<240.013 590> 480 120<188.521 520.816>
AnchorPoint: "diac_bottom" 298.457 -50 basechar 0
AnchorPoint: "diac_top" 460.064 650 basechar 0
AnchorPoint: "cedilla" 329.234 40 basechar 0
LayerCount: 2
Fore
SplineSet
188.521 600 m 1
 718.521 600 l 1
 690.816 480 l 1
 240.013 130 l 1
 620.013 130 l 1
 590 0 l 1
 30 0 l 1
 60.0127 130 l 1
 520.816 480 l 1
 160.816 480 l 1
 188.521 600 l 1
EndSplineSet
EndChar

StartChar: y
Encoding: 121 121 149
Width: 660
VWidth: 0
Flags: W
HStem: -290 120<30.752 143.985> 580 20G<148.521 320.896 606.91 788.521>
AnchorPoint: "hook_above" 486.99 680 basechar 0
AnchorPoint: "diac_top" 480.064 650 basechar 0
AnchorPoint: "diac_bottom" 497.2 -50 basechar 0
AnchorPoint: "ogonek" 287.2 -50 basechar 0
AnchorPoint: "ring_above" 480.064 650 basechar 0
LayerCount: 2
Fore
SplineSet
618.521 600 m 1
 788.521 600 l 1
 410 0 l 1
 298.443 -180 l 1
 248.821 -252 189.048 -290 3.04785 -290 c 1
 30.752 -170 l 1
 112.752 -170 134.138 -164 172.296 -120 c 1
 250 0 l 1
 148.521 600 l 1
 318.521 600 l 1
 369.479 171 l 1
 618.521 600 l 1
EndSplineSet
EndChar

StartChar: r
Encoding: 114 114 150
Width: 410
VWidth: 0
Flags: W
HStem: 0 21G<60 224.617> 480 130<429.915 500.816> 580 20G<193.903 358.521>
AnchorPoint: "diac_top" 360.064 650 basechar 0
AnchorPoint: "diac_bottom" 128.457 -50 basechar 0
LayerCount: 2
Fore
SplineSet
198.521 600 m 1xa0
 358.521 600 l 1xa0
 339.358 517 l 1
 382.517 561 448.83 610 530.83 610 c 1
 500.816 480 l 1xc0
 425.816 480 358.506 444 311.424 396 c 1
 220 0 l 1
 60 0 l 1
 198.521 600 l 1xa0
EndSplineSet
EndChar

StartChar: numbersign
Encoding: 35 35 151
Width: 910
VWidth: 0
Flags: W
HStem: 0 21G<165 303.338 465 603.338> 215 100<122.724 254.637 426.724 554.637 726.724 889.637> 485 100<205.058 367.971 540.058 667.971 840.058 971.971> 780 20G<491.356 629.694 791.356 929.694>
LayerCount: 2
Fore
SplineSet
726.724 315 m 1
 912.724 315 l 1
 889.637 215 l 1
 684.637 215 l 1
 595 0 l 1
 465 0 l 1
 554.637 215 l 1
 384.637 215 l 1
 295 0 l 1
 165 0 l 1
 254.637 215 l 1
 99.6367 215 l 1
 122.724 315 l 1
 296.724 315 l 1
 367.971 485 l 1
 181.971 485 l 1
 205.058 585 l 1
 410.058 585 l 1
 499.694 800 l 1
 629.694 800 l 1
 540.058 585 l 1
 710.058 585 l 1
 799.694 800 l 1
 929.694 800 l 1
 840.058 585 l 1
 995.058 585 l 1
 971.971 485 l 1
 797.971 485 l 1
 726.724 315 l 1
596.724 315 m 1
 667.971 485 l 1
 497.971 485 l 1
 426.724 315 l 1
 596.724 315 l 1
EndSplineSet
EndChar

StartChar: asterisk
Encoding: 42 42 152
Width: 540
VWidth: 0
Flags: W
HStem: 880 20G<423.164 527.781>
LayerCount: 2
Fore
SplineSet
567.586 479 m 1
 472.965 420 l 1
 400.672 566 l 1
 260.965 420 l 1
 193.586 479 l 1
 333.293 625 l 1
 175.222 681 l 1
 228.153 776 l 1
 386.225 720 l 1
 427.781 900 l 1
 527.781 900 l 1
 486.225 720 l 1
 670.153 776 l 1
 679.222 681 l 1
 495.293 625 l 1
 567.586 479 l 1
EndSplineSet
EndChar

StartChar: s
Encoding: 115 115 153
Width: 680
VWidth: 0
Flags: W
HStem: -20 120<272.551 467.845> 500 120<365.879 532.922>
AnchorPoint: "diac_bottom" 328.457 -50 basechar 0
AnchorPoint: "diac_top" 490.064 650 basechar 0
AnchorPoint: "cedilla" 369.234 40 basechar 0
LayerCount: 2
Fore
SplineSet
92.7109 185 m 1
 252.711 185 l 1
 240.013 130 286.087 100 363.087 100 c 0
 440.087 100 500.013 130 512.711 185 c 0
 522.407 227 473.64 241 397.717 250 c 0
 292.487 262 135.104 282 168.119 425 c 0
 189.358 517 304.139 620 483.139 620 c 0
 662.139 620 729.359 517 708.119 425 c 1
 548.119 425 l 1
 555.969 459 533.434 500 455.434 500 c 0
 377.434 500 335.969 459 328.119 425 c 0
 320.731 393 353.499 379 425.421 370 c 0
 544.958 355 710.342 348 672.711 185 c 0
 648.47 80 529.383 -20 335.383 -20 c 0
 141.383 -20 68.4697 80 92.7109 185 c 1
EndSplineSet
EndChar

StartChar: f
Encoding: 102 102 154
Width: 420
VWidth: 0
Flags: W
HStem: 0 21G<110 274.617> 480 120<148.521 220.816 408.521 510.816> 780 120<472.694 580.077>
AnchorPoint: "diac_bottom" 178.457 -50 basechar 0
AnchorPoint: "diac_top" 509.325 950 basechar 0
LayerCount: 2
Fore
SplineSet
120.816 480 m 1
 148.521 600 l 1
 248.521 600 l 1
 269.299 690 l 2
 299.773 822 402.781 900 607.781 900 c 1
 580.077 780 l 1
 491.077 780 443.382 751 429.299 690 c 2
 408.521 600 l 1
 538.521 600 l 1
 510.816 480 l 1
 380.816 480 l 1
 270 0 l 1
 110 0 l 1
 220.816 480 l 1
 120.816 480 l 1
EndSplineSet
EndChar

StartChar: t
Encoding: 116 116 155
Width: 420
VWidth: 0
Flags: W
HStem: 0 21G<130 294.617> 480 120<148.521 240.816 428.521 520.816>
AnchorPoint: "diac_top" 415.473 890 basechar 0
AnchorPoint: "cedilla" 209.234 40 basechar 0
AnchorPoint: "diac_bottom" 198.457 -50 basechar 0
LayerCount: 2
Fore
SplineSet
443.93 840 m 1
 483.93 840 l 1
 428.521 600 l 1
 548.521 600 l 1
 520.816 480 l 1
 400.816 480 l 1
 290 0 l 1
 130 0 l 1
 240.816 480 l 1
 120.816 480 l 1
 148.521 600 l 1
 268.521 600 l 1
 310.077 780 l 1
 443.93 840 l 1
EndSplineSet
EndChar

StartChar: k
Encoding: 107 107 156
Width: 620
VWidth: 0
Flags: W
HStem: 0 21G<70 234.617 421.485 620> 580 20G<529.578 718.521> 880 20G<273.164 437.781>
AnchorPoint: "diac_top" 540.064 650 basechar 0
AnchorPoint: "diac_bottom" 308.457 -50 basechar 0
LayerCount: 2
Fore
SplineSet
548.521 600 m 1
 718.521 600 l 1
 462.341 335 l 1
 620 0 l 1
 430 0 l 1
 317.18 265 l 1
 291.18 265 l 1
 230 0 l 1
 70 0 l 1
 277.781 900 l 1
 437.781 900 l 1
 318.884 385 l 1
 344.884 385 l 1
 548.521 600 l 1
EndSplineSet
EndChar

StartChar: hyphen
Encoding: 45 45 157
Width: 560
VWidth: 0
Flags: W
HStem: 270 100<135.421 572.334>
LayerCount: 2
Fore
SplineSet
135.421 370 m 1
 595.421 370 l 1
 572.334 270 l 1
 112.334 270 l 1
 135.421 370 l 1
EndSplineSet
EndChar

StartChar: bar
Encoding: 124 124 158
Width: 320
VWidth: 0
Flags: W
HStem: 880 20G<303.164 427.781>
VStem: 58.4434 369.338
LayerCount: 2
Fore
SplineSet
307.781 900 m 1
 427.781 900 l 1
 178.443 -180 l 1
 58.4434 -180 l 1
 307.781 900 l 1
EndSplineSet
EndChar

StartChar: slash
Encoding: 47 47 159
Width: 480
VWidth: 0
Flags: W
HStem: 880 20G<517.979 647.781>
LayerCount: 2
Fore
SplineSet
527.781 900 m 1
 647.781 900 l 1
 118.443 -180 l 1
 -1.55664 -180 l 1
 527.781 900 l 1
EndSplineSet
EndChar

StartChar: colon
Encoding: 58 58 160
Width: 320
VWidth: 0
Flags: W
HStem: 0 200<133.214 232.96> 420 200<230.179 329.925>
VStem: 83.0869 296.965
LayerCount: 2
Fore
SplineSet
283.087 100 m 0
 270.158 44 216 0 160 0 c 0
 104 0 70.1582 44 83.0869 100 c 0
 96.0156 156 150.174 200 206.174 200 c 0
 262.174 200 296.016 156 283.087 100 c 0
380.052 520 m 0
 367.123 464 312.965 420 256.965 420 c 0
 200.965 420 167.123 464 180.052 520 c 0
 192.98 576 247.139 620 303.139 620 c 0
 359.139 620 392.98 576 380.052 520 c 0
EndSplineSet
EndChar

StartChar: backslash
Encoding: 92 92 161
Width: 480
VWidth: 0
Flags: W
HStem: 880 20G<247.781 368.349>
VStem: 247.781 120<604.13 900> 278.443 120<-180 115.87>
LayerCount: 2
Fore
SplineSet
367.781 900 m 1xc0
 398.443 -180 l 1
 278.443 -180 l 1xa0
 247.781 900 l 1
 367.781 900 l 1xc0
EndSplineSet
EndChar

StartChar: seven
Encoding: 55 55 162
Width: 660
Flags: W
HStem: 0 21G<210 374.617> 680 120<244.694 586.99>
LayerCount: 2
Fore
SplineSet
210 0 m 1
 258.482 210 l 2
 327.743 510 586.99 680 586.99 680 c 1
 216.99 680 l 1
 244.694 800 l 1
 784.694 800 l 1
 756.99 680 l 1
 756.99 680 504.128 516 418.482 210 c 1
 370 0 l 1
 210 0 l 1
EndSplineSet
EndChar

StartChar: exclam
Encoding: 33 33 163
Width: 320
VWidth: 0
Flags: W
HStem: 0 200<132.843 233.331> 880 20G<283.164 447.781>
VStem: 83.0869 200<47.3596 152.64>
LayerCount: 2
Fore
SplineSet
283.087 100 m 0
 269.928 43 217 0 160 0 c 0
 103 0 69.9277 43 83.0869 100 c 0
 96.2461 157 149.174 200 206.174 200 c 0
 263.174 200 296.246 157 283.087 100 c 0
287.781 900 m 1
 447.781 900 l 1
 323.112 360 l 1
 260.025 260 l 1
 180.025 260 l 1
 163.112 360 l 1
 287.781 900 l 1
EndSplineSet
EndChar

StartChar: quotedbl
Encoding: 34 34 164
Width: 440
VWidth: 0
Flags: W
HStem: 560 240<234.694 299.286 434.694 499.286>
VStem: 199.286 375.408
LayerCount: 2
Fore
SplineSet
234.694 800 m 1
 374.694 800 l 1
 299.286 560 l 1
 199.286 560 l 1
 234.694 800 l 1
434.694 800 m 1
 574.694 800 l 1
 499.286 560 l 1
 399.286 560 l 1
 434.694 800 l 1
EndSplineSet
EndChar

StartChar: dollar
Encoding: 36 36 165
Width: 790
VWidth: 0
Flags: W
HStem: -17 117<314.868 331.075 451.075 545.627>
VStem: 107.717 165<140.125 250> 685.058 160<585 665.96>
LayerCount: 2
Fore
SplineSet
554.325 950 m 1
 674.325 950 l 1
 643.157 815 l 1
 803.848 792 866.528 678 845.058 585 c 1
 685.058 585 l 1
 701.219 655 639.607 700 551.607 700 c 0
 463.607 700 381.219 655 365.058 585 c 0
 351.898 528 404.511 496 501.971 485 c 0
 654.815 467 840.428 435 793.1 230 c 0
 761.471 93 628 0 451.075 -17 c 1
 420.37 -150 l 1
 300.37 -150 l 1
 331.075 -17 l 1
 155.23 1 74.0107 104 107.717 250 c 1
 272.717 250 l 1
 251.246 157 310.087 100 418.087 100 c 0
 526.087 100 618.938 147 638.1 230 c 0
 656.569 310 589.419 344 473.112 360 c 0
 373.345 374 162.578 401 205.058 585 c 0
 226.76 679 345.771 796 523.619 817 c 1
 554.325 950 l 1
EndSplineSet
EndChar

StartChar: percent
Encoding: 37 37 166
Width: 840
VWidth: 0
Flags: W
HStem: -10 100<621.584 693.087> 0 21G<70 228.617> 250 100<645.908 719.563> 450 100<307.783 379.286> 710 100<332.107 405.762> 780 20G<796.077 954.694>
LayerCount: 2
Fore
SplineSet
814.694 800 m 1x74
 954.694 800 l 1
 210 0 l 1
 70 0 l 1
 814.694 800 l 1x74
397.003 810 m 0x38
 491.003 810 538.303 729 515.447 630 c 0
 492.591 531 407.891 450 313.891 450 c 0
 219.891 450 172.591 531 195.447 630 c 0
 218.303 729 303.003 810 397.003 810 c 0x38
374.916 710 m 0
 341.916 710 314.22 668 305.447 630 c 0
 296.674 592 304.978 550 337.978 550 c 0
 370.978 550 396.674 592 405.447 630 c 0
 414.22 668 407.916 710 374.916 710 c 0
710.804 350 m 0
 804.804 350 852.104 269 829.248 170 c 0
 806.392 71 721.691 -10 627.691 -10 c 0xb0
 533.691 -10 486.392 71 509.248 170 c 0
 532.104 269 616.804 350 710.804 350 c 0
688.717 250 m 0
 655.717 250 628.021 208 619.248 170 c 0
 610.475 132 618.778 90 651.778 90 c 0
 684.778 90 710.475 132 719.248 170 c 0
 728.021 208 721.717 250 688.717 250 c 0
EndSplineSet
EndChar

StartChar: quotesingle
Encoding: 39 39 167
Width: 240
VWidth: 0
Flags: W
HStem: 560 240<234.694 299.286>
VStem: 199.286 175.408
LayerCount: 2
Fore
SplineSet
234.694 800 m 1
 374.694 800 l 1
 299.286 560 l 1
 199.286 560 l 1
 234.694 800 l 1
EndSplineSet
EndChar

StartChar: parenleft
Encoding: 40 40 168
Width: 400
VWidth: 0
Flags: W
LayerCount: 2
Fore
SplineSet
143.112 360 m 1
 150.039 390 l 2
 222.993 706 355.776 848 572.398 920 c 1
 557.393 855 l 1
 400.538 769 343.989 667 280.039 390 c 2
 273.112 360 l 1
 266.187 330 l 2
 202.236 53 211.688 -49 328.833 -135 c 1
 313.826 -200 l 1
 130.449 -128 63.2324 14 136.187 330 c 2
 143.112 360 l 1
EndSplineSet
EndChar

StartChar: parenright
Encoding: 41 41 169
Width: 400
VWidth: 0
Flags: W
LayerCount: 2
Fore
SplineSet
423.112 360 m 1
 416.187 330 l 2
 343.232 14 210.449 -128 -6.17383 -200 c 1
 8.83301 -135 l 1
 165.688 -49 222.236 53 286.187 330 c 2
 293.112 360 l 1
 300.039 390 l 2
 363.989 667 354.538 769 237.393 855 c 1
 252.398 920 l 1
 435.776 848 502.993 706 430.039 390 c 2
 423.112 360 l 1
EndSplineSet
EndChar

StartChar: plus
Encoding: 43 43 170
Width: 560
VWidth: 0
Flags: W
HStem: 270 100<135.421 282.334 425.421 572.334>
LayerCount: 2
Fore
SplineSet
402.334 270 m 1
 360.778 90 l 1
 240.778 90 l 1
 282.334 270 l 1
 112.334 270 l 1
 135.421 370 l 1
 305.421 370 l 1
 346.978 550 l 1
 466.978 550 l 1
 425.421 370 l 1
 595.421 370 l 1
 572.334 270 l 1
 402.334 270 l 1
EndSplineSet
EndChar

StartChar: comma
Encoding: 44 44 171
Width: 320
VWidth: 0
Flags: W
HStem: -150 350
VStem: 20.3701 265.408
LayerCount: 2
Fore
SplineSet
206.174 200 m 0
 269.174 200 299.861 151 285.778 90 c 0
 260.151 -21 169.297 -107 100.37 -150 c 1
 20.3701 -150 l 1
 83.2988 -94 123.842 -44 135.692 3 c 1
 94.2324 14 72.0049 52 83.0869 100 c 0
 96.0156 156 150.174 200 206.174 200 c 0
EndSplineSet
EndChar

StartChar: zero
Encoding: 48 48 172
Width: 660
Flags: W
HStem: -20 120<285.989 431.695> 700 120<412.999 558.705>
LayerCount: 2
Fore
SplineSet
266.562 245 m 2
 243.707 146 285.087 100 353.087 100 c 0
 421.087 100 483.707 146 506.562 245 c 2
 578.132 555 l 2
 600.988 654 559.607 700 491.607 700 c 0
 423.607 700 360.988 654 338.132 555 c 2
 266.562 245 l 2
106.562 245 m 2
 178.132 555 l 2
 213.916 710 353.312 820 519.312 820 c 0
 685.312 820 773.916 710 738.132 555 c 2
 666.562 245 l 2
 630.778 90 491.383 -20 325.383 -20 c 0
 159.383 -20 70.7783 90 106.562 245 c 2
EndSplineSet
EndChar

StartChar: one
Encoding: 49 49 173
Width: 660
Flags: W
HStem: 0 21G<340 504.617> 495 125<223.139 340.11> 780 20G<513.844 684.694>
LayerCount: 2
Fore
SplineSet
478.521 600 m 1
 422.977 537 293.279 495 194.279 495 c 1
 223.139 620 l 1
 339.139 620 502.993 706 524.694 800 c 1
 684.694 800 l 1
 500 0 l 1
 340 0 l 1
 478.521 600 l 1
EndSplineSet
EndChar

StartChar: two
Encoding: 50 50 174
Width: 660
Flags: W
HStem: 0 120<237.704 610> 700 120<410.345 558.532>
LayerCount: 2
Fore
SplineSet
573.903 580 m 0
 591.219 655 561.607 700 491.607 700 c 0
 421.607 700 371.219 655 353.903 580 c 1
 193.903 580 l 1
 222.531 704 357.312 820 519.312 820 c 0
 681.312 820 762.531 704 733.903 580 c 0
 708.046 468 614.193 395 506.187 330 c 0
 394.719 263 249.248 170 237.704 120 c 1
 637.704 120 l 1
 610 0 l 1
 50 0 l 1
 77.7041 120 l 2
 104.716 237 281.494 327 392.348 400 c 0
 487.892 463 554.973 498 573.903 580 c 0
EndSplineSet
EndChar

StartChar: three
Encoding: 51 51 175
Width: 660
Flags: W
HStem: -20 120<263.812 432.912> 350 120<318.508 480.824> 700 120<400.345 548.532>
VStem: 81.9453 160<123.017 225>
LayerCount: 2
Fore
SplineSet
81.9453 225 m 1
 241.945 225 l 1
 222.783 142 268.087 100 343.087 100 c 0
 418.087 100 482.783 142 501.945 225 c 0
 521.107 308 474.804 350 400.804 350 c 2
 290.804 350 l 1
 318.508 470 l 1
 428.508 470 l 2
 489.508 470 546.589 505 563.903 580 c 0
 581.219 655 551.607 700 481.607 700 c 0
 411.607 700 361.219 655 343.903 580 c 1
 183.903 580 l 1
 212.531 704 347.312 820 509.312 820 c 0
 671.312 820 752.531 704 723.903 580 c 0
 708.897 515 666.045 455 605.349 413 c 1
 656.959 368 679.491 301 661.945 225 c 0
 630.086 87 505.383 -20 315.383 -20 c 0
 125.383 -20 50.0859 87 81.9453 225 c 1
EndSplineSet
EndChar

StartChar: four
Encoding: 52 52 176
Width: 660
Flags: W
HStem: 0 21G<380 544.617> 135 120<248.871 411.167 598.871 651.167> 780 20G<547.6 724.694>
LayerCount: 2
Fore
SplineSet
248.871 255 m 1
 438.871 255 l 1
 513.903 580 l 1
 248.871 255 l 1
98.8711 255 m 1
 564.694 800 l 1
 724.694 800 l 1
 598.871 255 l 1
 678.871 255 l 1
 651.167 135 l 1
 571.167 135 l 1
 540 0 l 1
 380 0 l 1
 411.167 135 l 1
 71.167 135 l 1
 98.8711 255 l 1
EndSplineSet
EndChar

StartChar: five
Encoding: 53 53 177
Width: 660
Flags: W
HStem: -20 120<285.989 431.695> 390 120<340.463 487.137> 690 110<406.299 729.299>
VStem: 106.562 160<120.552 245>
LayerCount: 2
Fore
SplineSet
325.383 -20 m 0
 159.383 -20 70.7783 90 106.562 245 c 1
 266.562 245 l 1
 243.707 146 285.087 100 353.087 100 c 0
 421.087 100 483.707 146 506.562 245 c 0
 529.419 344 488.039 390 420.039 390 c 0
 366.039 390 319.19 369 281.187 330 c 1
 148.495 340 l 1
 314.694 800 l 1
 444.694 800 l 1
 754.694 800 l 1
 729.299 690 l 1
 406.299 690 l 1
 334.048 481 l 1
 368.973 498 407.743 510 447.743 510 c 0
 613.743 510 702.348 400 666.562 245 c 0
 630.778 90 491.383 -20 325.383 -20 c 0
EndSplineSet
EndChar

StartChar: six
Encoding: 54 54 178
Width: 660
Flags: W
HStem: -20 120<285.989 431.695> 390 120<339.354 487.137> 700 120<404.603 558.192>
LayerCount: 2
Fore
SplineSet
733.903 580 m 1
 573.903 580 l 1
 589.372 647 568.607 700 486.607 700 c 0
 404.607 700 359.372 647 343.903 580 c 2
 320.355 478 l 1
 355.973 498 397.743 510 447.743 510 c 0
 613.743 510 702.348 400 666.562 245 c 0
 630.778 90 491.383 -20 325.383 -20 c 0
 159.383 -20 70.7783 90 106.562 245 c 2
 183.903 580 l 2
 210.453 695 322.312 820 514.312 820 c 0
 706.312 820 760.453 695 733.903 580 c 1
506.562 245 m 0
 529.419 344 488.039 390 420.039 390 c 0
 352.039 390 289.419 344 266.562 245 c 0
 243.707 146 285.087 100 353.087 100 c 0
 421.087 100 483.707 146 506.562 245 c 0
EndSplineSet
EndChar

StartChar: eight
Encoding: 56 56 179
Width: 660
Flags: W
HStem: -20 120<273.812 442.912> 350 120<370.306 490.824> 700 120<410.345 558.532>
LayerCount: 2
Fore
SplineSet
733.903 580 m 0
 718.897 515 676.045 455 615.349 413 c 1
 666.959 368 689.491 301 671.945 225 c 0
 640.086 87 515.383 -20 325.383 -20 c 0
 135.383 -20 60.0859 87 91.9453 225 c 0
 109.491 301 162.96 368 235.349 413 c 1
 194.045 455 178.897 515 193.903 580 c 0
 222.531 704 357.312 820 519.312 820 c 0
 681.312 820 762.531 704 733.903 580 c 0
573.903 580 m 0
 591.219 655 561.607 700 491.607 700 c 0
 421.607 700 371.219 655 353.903 580 c 0
 336.589 505 377.508 470 438.508 470 c 0
 499.508 470 556.589 505 573.903 580 c 0
251.945 225 m 0
 232.783 142 278.087 100 353.087 100 c 0
 428.087 100 492.783 142 511.945 225 c 0
 531.107 308 484.804 350 410.804 350 c 0
 336.804 350 271.107 308 251.945 225 c 0
EndSplineSet
EndChar

StartChar: nine
Encoding: 57 57 180
Width: 660
Flags: W
HStem: -20 120<286.502 440.092> 290 120<357.558 505.341> 700 120<412.999 558.705>
LayerCount: 2
Fore
SplineSet
110.791 220 m 1
 270.791 220 l 1
 255.323 153 276.087 100 358.087 100 c 0
 440.087 100 485.323 153 500.791 220 c 2
 524.34 322 l 1
 488.723 302 446.952 290 396.952 290 c 0
 230.952 290 142.348 400 178.132 555 c 0
 213.916 710 353.312 820 519.312 820 c 0
 685.312 820 773.916 710 738.132 555 c 2
 660.791 220 l 2
 634.241 105 522.383 -20 330.383 -20 c 0
 138.383 -20 84.2412 105 110.791 220 c 1
338.132 555 m 0
 315.275 456 356.656 410 424.656 410 c 0
 492.656 410 555.275 456 578.132 555 c 0
 600.988 654 559.607 700 491.607 700 c 0
 423.607 700 360.988 654 338.132 555 c 0
EndSplineSet
EndChar

StartChar: semicolon
Encoding: 59 59 181
Width: 320
VWidth: 0
Flags: W
HStem: 420 200<230.179 329.925>
VStem: 20.3701 359.682
LayerCount: 2
Fore
SplineSet
206.174 200 m 0
 269.174 200 299.861 151 285.778 90 c 0
 260.151 -21 169.297 -107 100.37 -150 c 1
 20.3701 -150 l 1
 83.2988 -94 123.842 -44 135.692 3 c 1
 94.2324 14 72.0049 52 83.0869 100 c 0
 96.0156 156 150.174 200 206.174 200 c 0
380.052 520 m 0
 367.123 464 312.965 420 256.965 420 c 0
 200.965 420 167.123 464 180.052 520 c 0
 192.98 576 247.139 620 303.139 620 c 0
 359.139 620 392.98 576 380.052 520 c 0
EndSplineSet
EndChar

StartChar: less
Encoding: 60 60 182
Width: 600
VWidth: 0
Flags: W
HStem: 0 21G<509.062 544.617>
LayerCount: 2
Fore
SplineSet
122.334 270 m 1
 145.421 370 l 1
 687.756 640 l 1
 655.434 500 l 1
 283.878 320 l 1
 572.321 140 l 1
 540 0 l 1
 122.334 270 l 1
EndSplineSet
EndChar

StartChar: equal
Encoding: 61 61 183
Width: 560
VWidth: 0
Flags: W
HStem: 150 100<107.717 544.63> 390 100<163.125 600.039>
LayerCount: 2
Fore
SplineSet
107.717 250 m 1
 567.717 250 l 1
 544.63 150 l 1
 84.6299 150 l 1
 107.717 250 l 1
163.125 490 m 1
 623.125 490 l 1
 600.039 390 l 1
 140.039 390 l 1
 163.125 490 l 1
EndSplineSet
EndChar

StartChar: greater
Encoding: 62 62 184
Width: 600
VWidth: 0
Flags: W
HStem: 0 21G<64.6173 100.173>
LayerCount: 2
Fore
SplineSet
602.334 270 m 1
 60 0 l 1
 92.3213 140 l 1
 463.878 320 l 1
 175.435 500 l 1
 207.756 640 l 1
 625.421 370 l 1
 602.334 270 l 1
EndSplineSet
EndChar

StartChar: question
Encoding: 63 63 185
Width: 640
VWidth: 0
Flags: W
HStem: 0 200<292.843 393.331> 700 120<397.485 552.725>
VStem: 182.202 162.851<533 643.804> 243.087 200<47.3596 152.64>
LayerCount: 2
Fore
SplineSet
345.053 533 m 1xe0
 182.202 486 l 1
 175.897 515 178.594 557 186.212 590 c 0
 216.918 723 353.312 820 509.312 820 c 0
 665.312 820 756.918 723 726.212 590 c 0
 700.586 479 610.733 419 530.421 370 c 0
 481.495 340 472.031 312 460.025 260 c 1
 300.025 260 l 1
 321.496 353 338.193 395 422.736 445 c 0
 483.048 481 552.36 530 566.212 590 c 0
 581.449 656 557.607 700 481.607 700 c 0
 405.607 700 361.449 656 346.212 590 c 0
 341.364 569 341.67 553 345.053 533 c 1xe0
443.087 100 m 0xd0
 429.928 43 377 0 320 0 c 0
 263 0 229.928 43 243.087 100 c 0
 256.246 157 309.174 200 366.174 200 c 0
 423.174 200 456.246 157 443.087 100 c 0xd0
EndSplineSet
EndChar

StartChar: at
Encoding: 64 64 186
Width: 1140
VWidth: 0
Flags: W
HStem: -180 90<399.666 707.945> 70 115<482.161 647.385> 70 90<871.905 991.435> 474 116<597.927 743.591> 750 90<594.151 889.568>
LayerCount: 2
Fore
SplineSet
781.595 570 m 1xd8
 941.595 570 l 1
 867.717 250 l 2
 852.711 185 879.938 160 916.938 160 c 0
 961.938 160 1030.63 176 1066.19 330 c 0
 1123.67 579 992.151 750 743.151 750 c 0
 494.151 750 283.673 579 226.187 330 c 0
 168.7 81 289.222 -90 549.222 -90 c 0
 660.222 -90 739.687 -62 823.999 -13 c 1
 843.837 -96 l 1
 744.446 -154 629.443 -180 528.443 -180 c 0
 197.443 -180 59.9277 43 126.187 330 c 0
 192.445 617 476.93 840 763.93 840 c 0
 1050.93 840 1232.45 617 1166.19 330 c 0
 1120.71 133 999.161 70 896.161 70 c 0xb8
 796.161 70 738.701 94 714.859 138 c 1
 664.855 99 605.161 70 541.161 70 c 0
 423.161 70 332.553 141 366.952 290 c 2
 385.421 370 l 2
 418.436 513 543.212 590 651.212 590 c 0
 703.212 590 744.364 569 774.669 540 c 1
 781.595 570 l 1xd8
702.253 222 m 1
 703.33 231 705.408 240 707.717 250 c 2
 753.198 447 l 1
 732.892 463 703.432 474 669.432 474 c 0
 609.432 474 558.35 426 545.421 370 c 2
 526.952 290 l 2
 513.562 232 547.711 185 602.711 185 c 0xd8
 639.711 185 674.404 201 702.253 222 c 1
EndSplineSet
EndChar

StartChar: bracketleft
Encoding: 91 91 187
Width: 400
VWidth: 0
Flags: W
HStem: -180 90<159.222 318.443> 810 90<367.003 547.003>
LayerCount: 2
Fore
SplineSet
143.112 360 m 1
 267.781 900 l 1
 567.781 900 l 1
 547.003 810 l 1
 367.003 810 l 1
 263.112 360 l 1
 159.222 -90 l 1
 339.222 -90 l 1
 318.443 -180 l 1
 18.4434 -180 l 1
 143.112 360 l 1
EndSplineSet
EndChar

StartChar: bracketright
Encoding: 93 93 188
Width: 400
VWidth: 0
Flags: W
HStem: -180 90<19.2217 199.222> 810 90<247.781 407.003>
LayerCount: 2
Fore
SplineSet
423.112 360 m 1
 298.443 -180 l 1
 -1.55664 -180 l 1
 19.2217 -90 l 1
 199.222 -90 l 1
 303.112 360 l 1
 407.003 810 l 1
 227.003 810 l 1
 247.781 900 l 1
 547.781 900 l 1
 423.112 360 l 1
EndSplineSet
EndChar

StartChar: asciicircum
Encoding: 94 94 189
Width: 540
VWidth: 0
Flags: W
HStem: 560 240<379.286 404.694>
LayerCount: 2
Fore
SplineSet
429.299 690 m 1
 319.286 560 l 1
 169.286 560 l 1
 404.694 800 l 1
 504.694 800 l 1
 629.286 560 l 1
 479.286 560 l 1
 429.299 690 l 1
EndSplineSet
EndChar

StartChar: underscore
Encoding: 95 95 190
Width: 720
VWidth: 0
Flags: W
HStem: -100 100<60 636.913>
LayerCount: 2
Fore
SplineSet
60 0 m 1
 660 0 l 1
 636.913 -100 l 1
 36.9131 -100 l 1
 60 0 l 1
EndSplineSet
EndChar

StartChar: grave
Encoding: 96 96 191
Width: 420
VWidth: 0
Flags: W
HStem: 620 180
VStem: 214.694 318.444
LayerCount: 2
Fore
SplineSet
214.694 800 m 1
 404.694 800 l 1
 533.139 620 l 1
 423.139 620 l 1
 214.694 800 l 1
EndSplineSet
EndChar

StartChar: braceleft
Encoding: 123 123 192
Width: 400
VWidth: 0
Flags: W
HStem: -180 90<236.411 338.443> 810 90<432.456 567.003>
LayerCount: 2
Fore
SplineSet
103.112 360 m 1
 104.267 365 l 1
 147.884 385 229.735 432 250.052 520 c 2
 317.003 810 l 2
 329.932 866 380.781 900 437.781 900 c 2
 587.781 900 l 1
 567.003 810 l 1
 477.003 810 l 2
 449.003 810 434.464 799 427.769 770 c 2
 370.052 520 l 2
 340.731 393 253.112 360 253.112 360 c 1
 253.112 360 325.494 327 296.174 200 c 2
 238.457 -50 l 2
 231.762 -79 241.222 -90 269.222 -90 c 2
 359.222 -90 l 1
 338.443 -180 l 1
 188.443 -180 l 2
 131.443 -180 96.293 -146 109.222 -90 c 2
 176.174 200 l 2
 196.49 288 136.341 335 101.958 355 c 1
 103.112 360 l 1
EndSplineSet
EndChar

StartChar: braceright
Encoding: 125 125 193
Width: 400
VWidth: 0
Flags: W
HStem: -180 90<-0.77832 133.768> 810 90<227.781 329.815>
LayerCount: 2
Fore
SplineSet
463.112 360 m 1
 461.958 355 l 1
 418.341 335 336.49 288 316.174 200 c 2
 249.222 -90 l 2
 236.293 -146 185.443 -180 128.443 -180 c 2
 -21.5566 -180 l 1
 -0.77832 -90 l 1
 89.2217 -90 l 2
 117.222 -90 131.762 -79 138.457 -50 c 2
 196.174 200 l 2
 225.494 327 313.112 360 313.112 360 c 1
 313.112 360 240.731 393 270.052 520 c 2
 327.769 770 l 2
 334.464 799 325.003 810 297.003 810 c 2
 207.003 810 l 1
 227.781 900 l 1
 377.781 900 l 2
 434.781 900 469.932 866 457.003 810 c 2
 390.052 520 l 2
 369.735 432 429.884 385 464.267 365 c 1
 463.112 360 l 1
EndSplineSet
EndChar

StartChar: asciitilde
Encoding: 126 126 194
Width: 640
VWidth: 0
Flags: W
HStem: 220 120<433.66 559.291> 300 120<228.465 353.535>
LayerCount: 2
Fore
SplineSet
311.965 420 m 0x40
 357.965 420 384.194 408 417.729 380 c 0
 443.65 358 457.495 340 503.495 340 c 0
 547.495 340 597.345 374 619.656 410 c 1
 678.885 385 l 1
 651.107 308 560.791 220 475.791 220 c 0x80
 429.791 220 401.792 233 370.025 260 c 0
 342.336 283 330.261 300 284.261 300 c 0
 240.261 300 190.411 266 168.1 230 c 1
 108.871 255 l 1
 136.648 332 226.965 420 311.965 420 c 0x40
EndSplineSet
EndChar

StartChar: quotedblleft
Encoding: 8220 8220 195
Width: 520
VWidth: 0
Flags: W
HStem: 550 350
LayerCount: 2
Fore
SplineSet
271.978 550 m 0
 208.978 550 178.29 599 192.373 660 c 0
 217.999 771 308.854 857 377.781 900 c 1
 457.781 900 l 1
 396.314 846 342.153 776 328.303 729 c 1
 369.687 722 393.145 685 382.756 640 c 0
 370.981 589 322.978 550 271.978 550 c 0
511.978 550 m 0
 448.978 550 418.29 599 432.373 660 c 0
 457.999 771 548.854 857 617.781 900 c 1
 697.781 900 l 1
 636.314 846 582.153 776 568.303 729 c 1
 609.687 722 633.145 685 622.756 640 c 0
 610.981 589 562.978 550 511.978 550 c 0
EndSplineSet
EndChar

StartChar: quotedblright
Encoding: 8221 8221 196
Width: 520
VWidth: 0
Flags: W
HStem: 550 350
LayerCount: 2
Fore
SplineSet
582.781 900 m 0
 645.781 900 676.469 851 662.386 790 c 0
 636.76 679 545.905 593 476.978 550 c 1
 396.978 550 l 1
 458.444 604 512.605 674 526.456 721 c 1
 485.072 728 461.614 765 472.003 810 c 0
 483.777 861 531.781 900 582.781 900 c 0
342.781 900 m 0
 405.781 900 436.469 851 422.386 790 c 0
 396.76 679 305.905 593 236.978 550 c 1
 156.978 550 l 1
 218.444 604 272.605 674 286.456 721 c 1
 245.072 728 221.614 765 232.003 810 c 0
 243.777 861 291.781 900 342.781 900 c 0
EndSplineSet
EndChar

StartChar: quoteleft
Encoding: 8216 8216 197
Width: 320
VWidth: 0
Flags: W
HStem: 550 350
VStem: 207.373 265.408
LayerCount: 2
Fore
SplineSet
286.978 550 m 0
 223.978 550 193.29 599 207.373 660 c 0
 232.999 771 323.854 857 392.781 900 c 1
 472.781 900 l 1
 409.853 844 369.31 794 357.459 747 c 1
 398.919 736 421.146 698 410.064 650 c 0
 397.136 594 342.978 550 286.978 550 c 0
EndSplineSet
EndChar

StartChar: quoteright
Encoding: 8217 8217 198
Width: 320
VWidth: 0
Flags: W
HStem: 550 350
VStem: 181.978 265.408
LayerCount: 2
Fore
SplineSet
367.781 900 m 0
 430.781 900 461.469 851 447.386 790 c 0
 421.76 679 330.905 593 261.978 550 c 1
 181.978 550 l 1
 244.906 606 285.449 656 297.301 703 c 1
 255.84 714 233.613 752 244.694 800 c 0
 257.623 856 311.781 900 367.781 900 c 0
EndSplineSet
EndChar

StartChar: afii57929
Encoding: 700 700 199
Width: 280
VWidth: 0
Flags: W
HStem: 460 350
VStem: 136.199 265.408
LayerCount: 2
Fore
SplineSet
322.003 810 m 0
 385.003 810 415.69 761 401.607 700 c 0
 375.981 589 285.127 503 216.199 460 c 1
 136.199 460 l 1
 197.666 514 251.827 584 265.678 631 c 1
 224.294 638 200.836 675 211.225 720 c 0
 222.999 771 271.003 810 322.003 810 c 0
EndSplineSet
EndChar

StartChar: Euro
Encoding: 8364 8364 200
Width: 750
Flags: W
HStem: -20 120<414.263 632.32> 250 90<118.495 198.717 378.495 637.717> 460 90<166.978 246.199 429.978 686.199> 700 120<540.354 773.095>
VStem: 198.717 161<150.803 250>
LayerCount: 2
Fore
SplineSet
880.843 740 m 1
 799.064 650 l 1
 773.683 683 730.607 700 651.607 700 c 0
 548.607 700 466.91 645 429.978 550 c 1
 706.978 550 l 1
 686.199 460 l 1
 406.199 460 l 1
 378.495 340 l 1
 658.495 340 l 1
 637.717 250 l 1
 359.717 250 l 1
 350.246 157 407.087 100 513.087 100 c 0
 592.087 100 643.012 117 683.63 150 c 1
 723.853 60 l 1
 677.849 21 604.383 -20 485.383 -20 c 0
 290.383 -20 175.624 85 198.717 250 c 1
 97.7168 250 l 1
 118.495 340 l 1
 218.495 340 l 1
 246.199 460 l 1
 146.199 460 l 1
 166.978 550 l 1
 269.978 550 l 1
 324.993 706 488.312 820 679.312 820 c 0
 798.312 820 852.847 779 880.843 740 c 1
EndSplineSet
EndChar

StartChar: yen
Encoding: 165 165 201
Width: 700
VWidth: 0
Flags: W
HStem: 0 21G<270 434.617> 150 90<85.4082 304.63 485.408 704.63> 370 90<136.199 286.199 626.199 755.421> 780 20G<184.694 369.548 690.606 884.694>
LayerCount: 2
Fore
SplineSet
184.694 800 m 1
 364.694 800 l 1
 447.199 460 l 1
 465.199 460 l 1
 704.694 800 l 1
 884.694 800 l 1
 626.199 460 l 1
 776.199 460 l 1
 755.421 370 l 1
 557.421 370 l 1
 496.952 290 l 1
 485.408 240 l 1
 725.408 240 l 1
 704.63 150 l 1
 464.63 150 l 1
 430 0 l 1
 270 0 l 1
 304.63 150 l 1
 64.6299 150 l 1
 85.4082 240 l 1
 325.408 240 l 1
 336.952 290 l 1
 313.421 370 l 1
 115.421 370 l 1
 136.199 460 l 1
 286.199 460 l 1
 184.694 800 l 1
EndSplineSet
EndChar

StartChar: sterling
Encoding: 163 163 202
Width: 700
Flags: W
HStem: 0 120<247.704 670> 355 90<152.736 223.958 408.736 601.958> 700 120<485.957 584.938>
VStem: 586.212 160<590 697.757>
LayerCount: 2
Fore
SplineSet
569.312 820 m 0
 707.312 820 777.148 724 746.212 590 c 1
 586.212 590 l 1
 602.835 662 590.607 700 541.607 700 c 0
 492.607 700 462.835 662 446.212 590 c 0
 434.438 539 422.125 490 408.736 445 c 1
 622.736 445 l 1
 601.958 355 l 1
 380.958 355 l 1
 337.869 229 292.014 143 247.704 120 c 1
 697.704 120 l 1
 670 0 l 1
 50 0 l 1
 77.7041 120 l 1
 144.709 172 188.024 247 223.958 355 c 1
 131.958 355 l 1
 152.736 445 l 1
 250.736 445 l 1
 261.895 489 273.977 537 286.212 590 c 0
 317.148 724 431.312 820 569.312 820 c 0
EndSplineSet
EndChar

StartChar: cent
Encoding: 162 162 203
Width: 640
VWidth: 0
Flags: W
HStem: 84 116<414.393 467.233>
LayerCount: 2
Fore
SplineSet
440.07 715 m 1
 494.325 950 l 1
 614.325 950 l 1
 560.07 715 l 1
 681.453 695 751.061 611 725.434 500 c 1
 565.434 500 l 1
 580.21 564 539.521 600 473.521 600 c 0
 407.521 600 339.748 562 320.816 480 c 2
 279.261 300 l 2
 262.407 227 315.174 200 381.174 200 c 0
 447.174 200 503.33 231 519.261 300 c 1
 679.261 300 l 1
 651.787 181 542.779 103 414.393 84 c 1
 360.37 -150 l 1
 240.37 -150 l 1
 294.393 84 l 1
 171.317 101 89.709 172 119.261 300 c 2
 160.816 480 l 2
 190.599 609 307.453 695 440.07 715 c 1
EndSplineSet
EndChar

StartChar: copyright
Encoding: 169 169 204
Width: 940
Flags: W
HStem: -20 85<367.011 618.507> 190 85<477.602 612.455> 525 85<522.24 657.093> 735 85<506.188 757.684>
LayerCount: 2
Fore
SplineSet
639.688 735 m 0
 445.688 735 284.365 582 242.348 400 c 0
 200.329 218 291.007 65 485.007 65 c 0
 679.007 65 840.329 218 882.348 400 c 0
 924.365 582 833.688 735 639.688 735 c 0
659.312 820 m 0
 907.312 820 1035.91 632 982.348 400 c 0
 928.786 168 713.383 -20 465.383 -20 c 0
 217.383 -20 88.7861 168 142.348 400 c 0
 195.908 632 411.312 820 659.312 820 c 0
615.83 610 m 0
 727.83 610 791.054 546 771.199 460 c 1
 661.199 460 l 1
 671.127 503 648.206 525 596.206 525 c 0
 544.206 525 511.127 503 501.199 460 c 2
 473.495 340 l 2
 463.568 297 486.488 275 538.488 275 c 0
 590.488 275 623.568 297 633.495 340 c 1
 743.495 340 l 1
 723.641 254 630.865 190 518.865 190 c 0
 406.865 190 343.641 254 363.495 340 c 2
 391.199 460 l 2
 411.054 546 503.83 610 615.83 610 c 0
EndSplineSet
EndChar

StartChar: registered
Encoding: 174 174 205
Width: 940
Flags: W
HStem: -20 85<367.011 618.507> 330 75<508.502 551.187> 525 75<536.206 657.745> 735 85<506.188 757.684>
LayerCount: 2
Fore
SplineSet
606.206 525 m 2
 536.206 525 l 1
 508.502 405 l 1
 578.502 405 l 2
 627.502 405 654.273 430 662.354 465 c 0
 670.434 500 652.206 525 606.206 525 c 2
653.521 600 m 2
 744.521 600 778.745 536 762.354 465 c 0
 746.654 397 700.267 365 659.649 345 c 1
 731.174 200 l 1
 606.174 200 l 1
 551.187 330 l 1
 491.187 330 l 1
 461.174 200 l 1
 351.174 200 l 1
 443.521 600 l 1
 653.521 600 l 2
659.312 820 m 0
 907.312 820 1035.91 632 982.348 400 c 0
 928.786 168 713.383 -20 465.383 -20 c 0
 217.383 -20 88.7861 168 142.348 400 c 0
 195.908 632 411.312 820 659.312 820 c 0
639.688 735 m 0
 445.688 735 284.365 582 242.348 400 c 0
 200.329 218 291.007 65 485.007 65 c 0
 679.007 65 840.329 218 882.348 400 c 0
 924.365 582 833.688 735 639.688 735 c 0
EndSplineSet
EndChar

StartChar: guillemotleft
Encoding: 171 171 206
Width: 600
Flags: W
LayerCount: 2
Fore
SplineSet
273.878 320 m 1
 370.778 90 l 1
 250.778 90 l 1
 133.878 320 l 1
 356.978 550 l 1
 476.978 550 l 1
 273.878 320 l 1
483.878 320 m 1
 580.778 90 l 1
 460.778 90 l 1
 343.878 320 l 1
 566.978 550 l 1
 686.978 550 l 1
 483.878 320 l 1
EndSplineSet
EndChar

StartChar: guillemotright
Encoding: 187 187 207
Width: 600
Flags: W
LayerCount: 2
Fore
SplineSet
473.878 320 m 1
 376.978 550 l 1
 496.978 550 l 1
 613.878 320 l 1
 390.778 90 l 1
 270.778 90 l 1
 473.878 320 l 1
263.878 320 m 1
 166.978 550 l 1
 286.978 550 l 1
 403.878 320 l 1
 180.778 90 l 1
 60.7783 90 l 1
 263.878 320 l 1
EndSplineSet
EndChar

StartChar: acute
Encoding: 180 180 208
Width: 420
VWidth: 0
Flags: W
HStem: 620 180
LayerCount: 2
Fore
SplineSet
574.694 800 m 1
 283.139 620 l 1
 173.139 620 l 1
 384.694 800 l 1
 574.694 800 l 1
EndSplineSet
EndChar

StartChar: exclamdown
Encoding: 161 161 209
Width: 310
VWidth: 0
Flags: W
HStem: 430 200<232.117 332.604>
VStem: 182.36 200<477.36 582.64>
LayerCount: 2
Fore
SplineSet
382.36 530 m 0
 369.2 473 316.273 430 259.273 430 c 0
 202.273 430 169.2 473 182.36 530 c 0
 195.52 587 248.447 630 305.447 630 c 0
 362.447 630 395.52 587 382.36 530 c 0
17.666 -270 m 1
 142.334 270 l 1
 205.421 370 l 1
 285.421 370 l 1
 302.334 270 l 1
 177.666 -270 l 1
 17.666 -270 l 1
EndSplineSet
EndChar

StartChar: brokenbar
Encoding: 166 166 210
Width: 320
Flags: W
HStem: 880 20G<303.164 427.781>
VStem: 58.4434 369.338
LayerCount: 2
Fore
SplineSet
307.781 900 m 1
 427.781 900 l 1
 323.891 450 l 1
 203.891 450 l 1
 307.781 900 l 1
162.334 270 m 1
 282.334 270 l 1
 178.443 -180 l 1
 58.4434 -180 l 1
 162.334 270 l 1
EndSplineSet
EndChar

StartChar: section
Encoding: 167 167 211
Width: 680
Flags: W
HStem: -20 120<272.551 467.845> 700 120<412.052 579.095>
LayerCount: 2
Fore
SplineSet
653.875 294 m 1
 675.565 271 684.716 237 672.711 185 c 0
 648.47 80 529.383 -20 335.383 -20 c 0
 141.383 -20 68.4697 80 92.7109 185 c 1
 252.711 185 l 1
 240.013 130 286.087 100 363.087 100 c 0
 440.087 100 500.013 130 512.711 185 c 0
 522.407 227 473.64 241 397.717 250 c 0
 292.487 262 135.104 282 168.119 425 c 0
 176.661 462 208.818 493 245.358 517 c 1
 216.207 538 202.057 572 214.293 625 c 0
 235.532 717 350.312 820 529.312 820 c 0
 708.312 820 775.532 717 754.293 625 c 1
 594.293 625 l 1
 602.143 659 579.607 700 501.607 700 c 0
 423.607 700 382.143 659 374.293 625 c 0
 366.905 593 399.673 579 471.595 570 c 0
 591.132 555 756.516 548 718.885 385 c 0
 710.111 347 685.186 317 653.875 294 c 1
352.048 481 m 1
 331.046 468 313.66 449 308.119 425 c 0
 296.345 374 348.882 359 420.804 350 c 0
 459.649 345 504.188 343 544.803 337 c 1
 561.573 349 574.267 365 578.885 385 c 0
 594.583 453 524.431 461 448.508 470 c 0
 419.2 473 384.894 476 352.048 481 c 1
EndSplineSet
EndChar

StartChar: endash
Encoding: 8211 8211 213
Width: 670
VWidth: 0
Flags: W
HStem: 270 100<145.421 682.334>
LayerCount: 2
Fore
SplineSet
145.421 370 m 1
 705.421 370 l 1
 682.334 270 l 1
 122.334 270 l 1
 145.421 370 l 1
EndSplineSet
EndChar

StartChar: guilsinglleft
Encoding: 8249 8249 214
Width: 390
Flags: W
VStem: 133.878 343.1
LayerCount: 2
Fore
SplineSet
273.878 320 m 1
 370.778 90 l 1
 250.778 90 l 1
 133.878 320 l 1
 356.978 550 l 1
 476.978 550 l 1
 273.878 320 l 1
EndSplineSet
EndChar

StartChar: guilsinglright
Encoding: 8250 8250 215
Width: 390
Flags: W
VStem: 60.7783 343.1
LayerCount: 2
Fore
SplineSet
263.878 320 m 1
 166.978 550 l 1
 286.978 550 l 1
 403.878 320 l 1
 180.778 90 l 1
 60.7783 90 l 1
 263.878 320 l 1
EndSplineSet
EndChar

StartChar: ellipsis
Encoding: 8230 8230 216
Width: 860
VWidth: 0
Flags: W
HStem: 0 200<123.214 222.96 403.214 502.96 683.214 782.96>
VStem: 73.0869 200<47.8037 152.196> 353.087 200<47.8037 152.196> 633.087 200<47.8037 152.196>
CounterMasks: 1 70
LayerCount: 2
Fore
SplineSet
273.087 100 m 0
 260.158 44 206 0 150 0 c 0
 94 0 60.1582 44 73.0869 100 c 0
 86.0156 156 140.174 200 196.174 200 c 0
 252.174 200 286.016 156 273.087 100 c 0
553.087 100 m 0
 540.158 44 486 0 430 0 c 0
 374 0 340.158 44 353.087 100 c 0
 366.016 156 420.174 200 476.174 200 c 0
 532.174 200 566.016 156 553.087 100 c 0
833.087 100 m 0
 820.158 44 766 0 710 0 c 0
 654 0 620.158 44 633.087 100 c 0
 646.016 156 700.174 200 756.174 200 c 0
 812.174 200 846.016 156 833.087 100 c 0
EndSplineSet
LCarets2: 2 0 0 
Ligature2: "'liga' Latin Standard Ligatures-1" period period period
EndChar

StartChar: trademark
Encoding: 8482 8482 217
Width: 830
VWidth: 0
Flags: W
HStem: 900 60<271.634 347.781 427.781 517.781>
LayerCount: 2
Fore
SplineSet
257.781 900 m 1
 271.634 960 l 1
 376.634 960 l 1
 426.634 960 l 1
 531.634 960 l 1
 517.781 900 l 1
 427.781 900 l 1
 349.286 560 l 1
 269.286 560 l 1
 347.781 900 l 1
 257.781 900 l 1
909.286 560 m 1
 829.286 560 l 1
 894.853 844 l 1
 739.286 560 l 1
 704.286 560 l 1
 669.286 560 l 1
 644.853 844 l 1
 579.286 560 l 1
 499.286 560 l 1
 591.634 960 l 1
 661.634 960 l 1
 671.634 960 l 1
 696.634 960 l 1
 723.91 645 l 1
 896.634 960 l 1
 921.634 960 l 1
 931.634 960 l 1
 1001.63 960 l 1
 909.286 560 l 1
EndSplineSet
EndChar

StartChar: emdash
Encoding: 8212 8212 218
Width: 970
VWidth: 0
Flags: W
HStem: 270 100<145.421 982.334>
LayerCount: 2
Fore
SplineSet
145.421 370 m 1
 1005.42 370 l 1
 982.334 270 l 1
 122.334 270 l 1
 145.421 370 l 1
EndSplineSet
EndChar

StartChar: afii00208
Encoding: 8213 8213 219
Width: 970
VWidth: 0
Flags: W
HStem: 270 100<145.421 982.334>
LayerCount: 2
Fore
SplineSet
145.421 370 m 1
 1005.42 370 l 1
 982.334 270 l 1
 122.334 270 l 1
 145.421 370 l 1
EndSplineSet
EndChar

StartChar: ordfeminine
Encoding: 170 170 220
Width: 360
VWidth: 0
Flags: W
HStem: 550 60<264.371 370.612 463.687 468.132> 695 45<276.462 394.453> 810 60<309.737 410.021>
VStem: 184.526 306.088
LayerCount: 2
Fore
SplineSet
300.614 765 m 1
 220.614 765 l 1
 235.159 828 300.855 870 380.355 870 c 0
 459.855 870 505.159 828 490.614 765 c 2
 464.064 650 l 2
 457.831 623 462.984 615 481.984 615 c 1
 468.132 555 l 1
 420.132 555 390.979 563 380.596 583 c 1
 353.979 563 320.978 550 280.978 550 c 0
 206.978 550 172.06 598 184.526 652 c 0
 199.764 718 264.843 740 330.843 740 c 2
 404.843 740 l 1
 410.614 765 l 2
 418.926 801 391.003 810 366.503 810 c 0
 342.003 810 308.926 801 300.614 765 c 1
394.453 695 m 1
 324.453 695 l 2
 292.453 695 270.528 678 264.526 652 c 0
 259.908 632 270.83 610 310.83 610 c 0
 338.83 610 365.6 622 382.218 642 c 1
 394.453 695 l 1
EndSplineSet
EndChar

StartChar: uni00AD
Encoding: 173 173 221
Width: 560
VWidth: 0
Flags: W
HStem: 270 100<135.421 572.334>
LayerCount: 2
Fore
SplineSet
135.421 370 m 1
 595.421 370 l 1
 572.334 270 l 1
 112.334 270 l 1
 135.421 370 l 1
EndSplineSet
EndChar

StartChar: degree
Encoding: 176 176 222
Width: 380
VWidth: 0
Flags: W
HStem: 670 80<311.68 426.817> 910 80<336.425 451.561>
LayerCount: 2
Fore
SplineSet
418.56 990 m 0
 506.56 990 561.938 918 541.621 830 c 0
 521.305 742 432.682 670 344.682 670 c 0
 256.682 670 201.305 742 221.621 830 c 0
 241.937 918 330.56 990 418.56 990 c 0
400.09 910 m 0
 356.09 910 311.779 874 301.621 830 c 0
 291.463 786 319.151 750 363.151 750 c 0
 407.151 750 451.463 786 461.621 830 c 0
 471.779 874 444.09 910 400.09 910 c 0
EndSplineSet
EndChar

StartChar: plusminus
Encoding: 177 177 223
Width: 560
VWidth: 0
Flags: W
HStem: 40 100<82.3213 519.234> 350 100<153.891 300.804 443.891 590.804> 580 20G<353.903 478.521>
LayerCount: 2
Fore
SplineSet
82.3213 140 m 1
 542.321 140 l 1
 519.234 40 l 1
 59.2344 40 l 1
 82.3213 140 l 1
386.174 200 m 1
 266.174 200 l 1
 300.804 350 l 1
 130.804 350 l 1
 153.891 450 l 1
 323.891 450 l 1
 358.521 600 l 1
 478.521 600 l 1
 443.891 450 l 1
 613.891 450 l 1
 590.804 350 l 1
 420.804 350 l 1
 386.174 200 l 1
EndSplineSet
EndChar

StartChar: uni00B2
Encoding: 178 178 224
Width: 360
Flags: W
HStem: 560 60<263.139 449.286> 910 60<336.575 430.368>
VStem: 169.286 341.952
LayerCount: 2
Fore
SplineSet
431.238 850 m 0
 440.011 888 425.09 910 390.09 910 c 0
 355.09 910 330.011 888 321.238 850 c 1
 241.238 850 l 1
 255.552 912 322.942 970 403.942 970 c 0
 484.942 970 525.552 912 511.238 850 c 0
 498.31 794 450.998 758 397.38 725 c 0
 341.761 692 268.91 645 263.139 620 c 1
 463.139 620 l 1
 449.286 560 l 1
 169.286 560 l 1
 183.139 620 l 2
 196.528 678 285.148 724 340.46 760 c 0
 388.848 792 421.772 809 431.238 850 c 0
EndSplineSet
EndChar

StartChar: uni00B3
Encoding: 179 179 225
Width: 360
Flags: W
HStem: 550 60<277.871 385.449> 735 60<313.54 403.721> 910 60<341.575 435.368>
VStem: 195.144 321.095
LayerCount: 2
Fore
SplineSet
195.144 672 m 1
 275.144 672 l 1
 265.678 631 288.83 610 325.83 610 c 0
 362.83 610 395.678 631 405.259 672.5 c 0
 414.84 714 391.688 735 354.688 735 c 2
 299.688 735 l 1
 313.54 795 l 1
 368.54 795 l 2
 399.54 795 427.465 812 436.238 850 c 0
 445.011 888 430.09 910 395.09 910 c 0
 360.09 910 335.011 888 326.238 850 c 1
 246.238 850 l 1
 260.552 912 327.942 970 408.942 970 c 0
 489.942 970 530.552 912 516.238 850 c 0
 508.851 818 487.924 788 456.845 766 c 1
 482.766 744 493.916 710 485.144 672 c 0
 469.444 604 406.978 550 311.978 550 c 0
 216.978 550 179.444 604 195.144 672 c 1
EndSplineSet
EndChar

StartChar: periodcentered
Encoding: 183 183 226
Width: 320
VWidth: 0
Flags: W
HStem: 210 200<181.696 281.443>
VStem: 131.569 200<257.804 362.196>
LayerCount: 2
Fore
SplineSet
331.569 310 m 0
 318.641 254 264.482 210 208.482 210 c 0
 152.482 210 118.641 254 131.569 310 c 0
 144.498 366 198.656 410 254.656 410 c 0
 310.656 410 344.498 366 331.569 310 c 0
EndSplineSet
EndChar

StartChar: uni00B9
Encoding: 185 185 227
Width: 290
Flags: W
HStem: 808 62<230.855 321.181>
VStem: 216.541 245.093
LayerCount: 2
Fore
SplineSet
358.547 860 m 1
 331.159 828 266.541 808 216.541 808 c 1
 230.855 870 l 1
 288.855 870 370.782 913 381.634 960 c 1
 461.634 960 l 1
 369.286 560 l 1
 289.286 560 l 1
 358.547 860 l 1
EndSplineSet
EndChar

StartChar: ordmasculine
Encoding: 186 186 228
Width: 360
VWidth: 0
Flags: W
HStem: 550 60<267.026 377.182> 810 60<303.298 407.88>
VStem: 185.836 303.853
LayerCount: 2
Fore
SplineSet
375.855 870 m 0
 462.855 870 507.927 814 489.688 735 c 2
 475.836 675 l 2
 458.06 598 388.978 550 301.978 550 c 0
 214.978 550 168.06 598 185.836 675 c 2
 199.688 735 l 2
 217.927 814 288.855 870 375.855 870 c 0
362.003 810 m 0
 329.003 810 293.31 794 279.688 735 c 2
 265.836 675 l 2
 254.523 626 280.83 610 315.83 610 c 0
 350.83 610 384.523 626 395.836 675 c 2
 409.688 735 l 2
 423.31 794 395.003 810 362.003 810 c 0
EndSplineSet
EndChar

StartChar: questiondown
Encoding: 191 191 229
Width: 600
VWidth: 0
Flags: W
HStem: -20 120<231.969 387.21> 600 200<391.364 491.851>
VStem: 341.607 200<647.36 752.64> 438.482 160<150.63 267>
LayerCount: 2
Fore
SplineSet
439.642 267 m 1xd0
 602.492 314 l 1
 608.798 285 606.101 243 598.482 210 c 0
 567.777 77 431.383 -20 275.383 -20 c 0
 119.383 -20 27.7764 77 58.4824 210 c 0
 84.1084 321 173.961 381 254.273 430 c 0
 303.199 460 312.664 488 324.669 540 c 1
 484.669 540 l 1
 463.198 447 446.502 405 361.958 355 c 0
 301.646 319 232.334 270 218.482 210 c 0
 203.245 144 227.087 100 303.087 100 c 0
 379.087 100 423.245 144 438.482 210 c 0
 443.33 231 443.024 247 439.642 267 c 1xd0
341.607 700 m 0xe0
 354.768 757 407.694 800 464.694 800 c 0
 521.694 800 554.768 757 541.607 700 c 0
 528.448 643 475.521 600 418.521 600 c 0
 361.521 600 328.448 643 341.607 700 c 0xe0
EndSplineSet
EndChar

StartChar: dagger
Encoding: 8224 8224 230
Width: 580
VWidth: 0
Flags: W
HStem: 530 70<178.521 362.36 478.521 662.36> 880 20G<443.164 547.781>
LayerCount: 2
Fore
SplineSet
547.781 900 m 1
 478.521 600 l 1
 678.521 600 l 1
 662.36 530 l 1
 462.36 530 l 1
 277.666 -270 l 1
 177.666 -270 l 1
 362.36 530 l 1
 162.36 530 l 1
 178.521 600 l 1
 378.521 600 l 1
 447.781 900 l 1
 547.781 900 l 1
EndSplineSet
EndChar

StartChar: bullet
Encoding: 8226 8226 231
Width: 440
VWidth: 0
Flags: W
HStem: 150 320<238.523 344.615>
LayerCount: 2
Fore
SplineSet
451.569 310 m 0
 431.253 222 342.63 150 254.63 150 c 0
 166.63 150 111.253 222 131.569 310 c 0
 151.886 398 240.508 470 328.508 470 c 0
 416.508 470 471.886 398 451.569 310 c 0
EndSplineSet
EndChar

StartChar: uni2010
Encoding: 8208 8208 232
Width: 560
VWidth: 0
Flags: W
HStem: 270 100<135.421 572.334>
LayerCount: 2
Fore
SplineSet
135.421 370 m 1
 595.421 370 l 1
 572.334 270 l 1
 112.334 270 l 1
 135.421 370 l 1
EndSplineSet
EndChar

StartChar: uni2011
Encoding: 8209 8209 233
Width: 560
VWidth: 0
Flags: W
HStem: 270 100<135.421 572.334>
LayerCount: 2
Fore
SplineSet
135.421 370 m 1
 595.421 370 l 1
 572.334 270 l 1
 112.334 270 l 1
 135.421 370 l 1
EndSplineSet
EndChar

StartChar: perthousand
Encoding: 8240 8240 234
Width: 1170
VWidth: 0
Flags: W
HStem: -10 100<591.584 663.087 951.584 1023.09> 0 21G<70 228.617> 250 100<615.908 689.563 975.908 1049.56> 450 100<307.783 379.286> 710 100<332.107 405.762> 780 20G<796.077 954.694>
LayerCount: 2
Fore
SplineSet
814.694 800 m 1x74
 954.694 800 l 1
 210 0 l 1
 70 0 l 1
 814.694 800 l 1x74
397.003 810 m 0x38
 491.003 810 538.303 729 515.447 630 c 0
 492.591 531 407.891 450 313.891 450 c 0
 219.891 450 172.591 531 195.447 630 c 0
 218.303 729 303.003 810 397.003 810 c 0x38
374.916 710 m 0
 341.916 710 314.22 668 305.447 630 c 0
 296.674 592 304.978 550 337.978 550 c 0
 370.978 550 396.674 592 405.447 630 c 0
 414.22 668 407.916 710 374.916 710 c 0
680.804 350 m 0
 774.804 350 822.104 269 799.248 170 c 0
 776.392 71 691.691 -10 597.691 -10 c 0xb0
 503.691 -10 456.392 71 479.248 170 c 0
 502.104 269 586.804 350 680.804 350 c 0
658.717 250 m 0
 625.717 250 598.021 208 589.248 170 c 0
 580.475 132 588.778 90 621.778 90 c 0
 654.778 90 680.475 132 689.248 170 c 0
 698.021 208 691.717 250 658.717 250 c 0
1040.8 350 m 0
 1134.8 350 1182.1 269 1159.25 170 c 0
 1136.39 71 1051.69 -10 957.691 -10 c 0
 863.691 -10 816.392 71 839.248 170 c 0
 862.104 269 946.804 350 1040.8 350 c 0
1018.72 250 m 0
 985.717 250 958.021 208 949.248 170 c 0
 940.475 132 948.778 90 981.778 90 c 0
 1014.78 90 1040.47 132 1049.25 170 c 0
 1058.02 208 1051.72 250 1018.72 250 c 0
EndSplineSet
EndChar

StartChar: dotlessi
Encoding: 305 305 235
Width: 320
VWidth: 0
Flags: W
HStem: 0 21G<80 244.617> 580 20G<213.903 378.521>
VStem: 80 298.521
AnchorPoint: "hook_above" 316.99 680 basechar 0
AnchorPoint: "diac_top" 310.064 650 basechar 0
AnchorPoint: "ogonek" 179.234 40 basechar 0
AnchorPoint: "diac_bottom" 148.457 -50 basechar 0
LayerCount: 2
Fore
SplineSet
218.521 600 m 1
 378.521 600 l 1
 240 0 l 1
 80 0 l 1
 218.521 600 l 1
EndSplineSet
EndChar

StartChar: uni0237
Encoding: 567 567 236
Width: 340
VWidth: 0
Flags: W
HStem: -290 120<-69.248 38.1346> 580 20G<233.903 398.521>
AnchorPoint: "diac_top" 330.064 650 basechar 0
AnchorPoint: "diac_bottom" 347.2 -50 basechar 0
LayerCount: 2
Fore
SplineSet
241.53 -80 m 2
 211.056 -212 108.048 -290 -96.9521 -290 c 1
 -69.248 -170 l 1
 19.752 -170 67.4473 -141 81.5303 -80 c 2
 238.521 600 l 1
 398.521 600 l 1
 241.53 -80 l 2
EndSplineSet
EndChar

StartChar: ae
Encoding: 230 230 237
Width: 1060
VWidth: 0
Flags: W
HStem: -20 120<268.852 435.434 677.362 842.132> 270 90<292.968 512.334 693.112 938.027> 500 120<368.585 531.979 758.098 918.119>
AnchorPoint: "diac_top" 680.064 650 basechar 0
AnchorPoint: "diac_bottom" 518.457 -50 basechar 0
LayerCount: 2
Fore
SplineSet
483.139 620 m 0
 566.139 620 630.828 597 669.594 557 c 1
 724.366 595 792.139 620 873.139 620 c 0
 1063.14 620 1121.28 482 1093.11 360 c 2
 1072.33 270 l 1
 672.334 270 l 1
 656.174 200 l 2
 644.399 149 675.087 100 753.087 100 c 0
 831.087 100 884.399 149 896.174 200 c 1
 1056.17 200 l 1
 1030.55 89 904.383 -20 725.383 -20 c 0
 630.383 -20 564.539 11 526.929 56 c 1
 468.539 11 388.383 -20 285.383 -20 c 0
 135.383 -20 67.3154 75 92.7109 185 c 0
 122.954 316 253.112 360 383.112 360 c 2
 533.112 360 l 1
 544.656 410 l 2
 561.278 482 504.434 500 455.434 500 c 0
 406.434 500 341.278 482 324.656 410 c 1
 164.656 410 l 1
 193.977 537 324.139 620 483.139 620 c 0
845.434 500 m 0
 756.434 500 712.274 443 693.112 360 c 1
 933.112 360 l 1
 952.274 443 934.434 500 845.434 500 c 0
372.334 270 m 2
 306.334 270 264.716 237 252.711 185 c 0
 243.476 145 264.087 100 343.087 100 c 0
 399.087 100 452.396 123 487.862 164 c 1
 496.174 200 l 1
 512.334 270 l 1
 372.334 270 l 2
EndSplineSet
EndChar

StartChar: AE
Encoding: 198 198 238
Width: 1000
VWidth: 0
Flags: W
HStem: 0 120<637.704 960> 150 120<364.334 484.63> 340 120<716.199 998.495> 680 120<766.99 1106.99>
AnchorPoint: "diac_top" 836.238 850 basechar 0
AnchorPoint: "diac_bottom" 628.457 -50 basechar 0
LayerCount: 2
Fore
SplineSet
637.704 120 m 1
 987.704 120 l 1
 960 0 l 1
 450 0 l 1
 484.63 150 l 1
 277.63 150 l 1
 170 0 l 1
 0 0 l 1
 584.694 800 l 1
 634.694 800 l 1
 744.694 800 l 1
 1134.69 800 l 1
 1106.99 680 l 1
 766.99 680 l 1
 716.199 460 l 1
 1026.2 460 l 1
 998.495 340 l 1
 688.495 340 l 1
 637.704 120 l 1
512.334 270 m 1
 582.519 574 l 1
 364.334 270 l 1
 512.334 270 l 1
EndSplineSet
EndChar

StartChar: Aring
Encoding: 197 197 239
Width: 800
VWidth: 0
HStem: 0 21G<0 187.084 622.151 800> 150 120<338.334 586.334> 960 80<566.939 664.756>
AnchorPoint: "diac_top" 637.794 1030 basechar 0
LayerCount: 2
Fore
SplineSet
586.334 270 m 1
 538.521 600 l 1
 338.334 270 l 1
 586.334 270 l 1
640.103 1040 m 0
 718.103 1040 765.559 977 747.781 900 c 0
 737.393 855 705.927 814 666.924 788 c 1
 800 0 l 1
 625 0 l 1
 603.63 150 l 1
 265.63 150 l 1
 175 0 l 1
 0 0 l 1
 498.155 789 l 1
 470.157 815 457.393 855 467.781 900 c 0
 485.559 977 564.103 1040 640.103 1040 c 0
621.634 960 m 0
 589.634 960 555.4 933 547.781 900 c 0
 540.163 867 561.93 840 593.93 840 c 0
 627.93 840 660.163 867 667.781 900 c 0
 675.4 933 655.634 960 621.634 960 c 0
EndSplineSet
EndChar

StartChar: multiply
Encoding: 215 215 240
Width: 560
VWidth: 0
Flags: W
LayerCount: 2
Fore
SplineSet
155.662 475 m 1
 251.67 553 l 1
 370.654 397 l 1
 562.67 553 l 1
 622.662 475 l 1
 430.878 320 l 1
 550.862 164 l 1
 454.854 86 l 1
 334.87 242 l 1
 143.854 86 l 1
 83.8623 164 l 1
 275.878 320 l 1
 155.662 475 l 1
EndSplineSet
EndChar

StartChar: divide
Encoding: 247 247 241
Width: 560
VWidth: 0
Flags: W
HStem: 60 160<265.88 358.763> 270 100<135.421 572.334> 420 160<348.993 441.876>
CounterMasks: 1 e0
LayerCount: 2
Fore
SplineSet
135.421 370 m 1
 595.421 370 l 1
 572.334 270 l 1
 112.334 270 l 1
 135.421 370 l 1
392.321 140 m 0
 382.163 96 337.853 60 293.853 60 c 0
 249.853 60 222.163 96 232.321 140 c 0
 242.479 184 286.791 220 330.791 220 c 0
 374.791 220 402.479 184 392.321 140 c 0
475.434 500 m 0
 465.275 456 420.965 420 376.965 420 c 0
 332.965 420 305.275 456 315.434 500 c 0
 325.592 544 369.903 580 413.903 580 c 0
 457.903 580 485.592 544 475.434 500 c 0
EndSplineSet
EndChar

StartChar: thorn
Encoding: 254 254 242
Width: 710
VWidth: 0
Flags: W
HStem: -20 120<297.895 477.696> 500 120<441.571 561.691> 880 20G<273.164 437.781>
LayerCount: 2
Fore
SplineSet
167.666 -270 m 1
 7.66602 -270 l 1
 208.521 600 l 1
 277.781 900 l 1
 437.781 900 l 1
 368.521 600 l 1
 353.745 536 l 1
 407.827 584 476.139 620 553.139 620 c 0
 692.139 620 778.204 512 743.112 360 c 2
 720.025 260 l 2
 676.622 72 541.383 -20 385.383 -20 c 0
 317.383 -20 271.539 11 242.697 55 c 1
 167.666 -270 l 1
324.887 411 m 1
 270.633 176 l 1
 280.244 131 311.087 100 383.087 100 c 0
 485.087 100 538.094 165 560.025 260 c 2
 583.112 360 l 2
 602.274 443 577.434 500 475.434 500 c 0
 406.434 500 354.892 463 324.887 411 c 1
EndSplineSet
EndChar

StartChar: germandbls
Encoding: 223 223 243
Width: 850
VWidth: 0
Flags: W
HStem: -270 120<235.37 548.705> 0 21G<110 274.617> 480 120<148.521 220.816 408.521 720.816> 780 120<472.694 580.077>
LayerCount: 2
Fore
SplineSet
504.63 150 m 2
 404.63 150 l 1
 416.174 200 l 1
 720.816 480 l 1
 380.816 480 l 1
 270 0 l 1
 110 0 l 1
 220.816 480 l 1
 120.816 480 l 1
 148.521 600 l 1
 248.521 600 l 1
 269.299 690 l 2
 299.773 822 402.781 900 607.781 900 c 1
 580.077 780 l 1
 491.077 780 443.382 751 429.299 690 c 2
 408.521 600 l 1
 888.521 600 l 1
 860.816 480 l 1
 625.487 262 l 1
 766.716 237 844.169 148 810 0 c 0
 768.905 -178 606.666 -270 407.666 -270 c 2
 207.666 -270 l 1
 235.37 -150 l 1
 435.37 -150 l 2
 545.37 -150 627.605 -97 650 0 c 0
 672.395 97 614.63 150 504.63 150 c 2
EndSplineSet
EndChar

StartChar: Oslash
Encoding: 216 216 244
Width: 800
VWidth: 0
Flags: W
HStem: -20 120<321.766 535.234> 0 21G<50 169.881> 700 120<451.318 661.932> 780 20G<814.839 934.694>
AnchorPoint: "diac_top" 596.238 850 basechar 0
AnchorPoint: "diac_bottom" 388.457 -50 basechar 0
LayerCount: 2
Fore
SplineSet
268.483 223 m 1x20
 688.295 651 l 1
 662.683 683 619.607 700 561.607 700 c 0
 444.607 700 355.216 629 327.743 510 c 2
 274.644 280 l 2
 270.025 260 268.64 241 268.483 223 c 1x20
295.399 149 m 1
 321.012 117 365.087 100 423.087 100 c 0x80
 540.087 100 629.248 170 654.643 280 c 2
 707.743 510 l 2
 713.283 534 715.362 556 714.749 575 c 1
 295.399 149 l 1
834.694 800 m 1x10
 934.694 800 l 1
 841.762 705 l 1
 874.526 652 885.058 585 867.743 510 c 2
 814.643 280 l 2
 772.625 98 602.383 -20 395.383 -20 c 0x90
 308.383 -20 237.23 1 187.773 38 c 1
 150 0 l 1
 50 0 l 1
 139.009 91 l 1
 107.321 140 97.3281 205 114.644 280 c 2
 167.743 510 l 2
 208.376 686 382.312 820 589.312 820 c 0x60
 675.312 820 744.002 797 792.998 758 c 1
 834.694 800 l 1x10
EndSplineSet
EndChar

StartChar: Thorn
Encoding: 222 222 245
Width: 740
VWidth: 0
Flags: W
HStem: 0 21G<70 234.617> 200 120<303.878 573.211> 580 120<391.607 628.498> 780 20G<250.077 414.694>
LayerCount: 2
Fore
SplineSet
254.694 800 m 1
 414.694 800 l 1
 391.607 700 l 1
 601.607 700 l 2
 802.607 700 838.824 558 813.891 450 c 0
 788.957 342 687.174 200 486.174 200 c 2
 276.174 200 l 1
 230 0 l 1
 70 0 l 1
 254.694 800 l 1
363.903 580 m 1
 303.878 320 l 1
 463.878 320 l 1
 587.108 321 637.499 379 653.891 450 c 0
 670.282 521 646.903 580 523.903 580 c 2
 363.903 580 l 1
EndSplineSet
EndChar

StartChar: oslash
Encoding: 248 248 246
Width: 660
VWidth: 0
Flags: W
HStem: -20 120<270.3 447.93> 0 21G<40 156.139> 500 120<355.842 522.571> 580 20G<658.982 758.521>
AnchorPoint: "diac_top" 490.064 650 basechar 0
AnchorPoint: "diac_bottom" 307.2 -50 basechar 0
AnchorPoint: "cedilla" 366.238 40 basechar 0
AnchorPoint: "ogonek" 366.238 40 basechar 0
LayerCount: 2
Fore
SplineSet
547.654 397 m 1x80
 268.551 128 l 1
 287.934 108 318.087 100 353.087 100 c 0
 422.087 100 490.244 131 513.1 230 c 2
 540.804 350 l 2
 544.959 368 547.423 383 547.654 397 c 1x80
445.434 500 m 0x20
 380.434 500 308.277 469 280.804 350 c 2
 253.1 230 l 2
 250.561 219 249.482 210 248.174 200 c 1
 528.277 469 l 1
 508.587 492 478.434 500 445.434 500 c 0x20
663.521 600 m 1x10
 758.521 600 l 1
 680.206 525 l 1
 708.586 479 716.733 419 700.804 350 c 2
 673.1 230 l 2
 637.777 77 499.383 -20 325.383 -20 c 0x90
 256.383 -20 199.846 -5 159.31 23 c 1
 135 0 l 1
 40 0 l 1
 113.161 70 l 1
 85.8574 112 78.3242 166 93.0996 230 c 2
 120.804 350 l 2
 157.281 508 299.139 620 473.139 620 c 0x60
 541.139 620 596.214 603 635.287 573 c 1
 644.365 582 654.443 591 663.521 600 c 1x10
EndSplineSet
EndChar

StartChar: cedilla
Encoding: 184 184 247
Width: 560
VWidth: 0
Flags: W
HStem: -390 90<125.784 309.217> -180 90<195.222 321.117>
VStem: -5.4082 120<-285.923 -240>
LayerCount: 2
Fore
SplineSet
234.617 20 m 1
 324.617 20 l 1
 195.222 -90 l 1
 259.222 -90 l 2
 421.222 -90 472.6 -162 454.592 -240 c 0
 436.584 -318 351.961 -390 189.961 -390 c 0
 27.9609 -390 -23.416 -318 -5.4082 -240 c 1
 114.592 -240 l 1
 105.356 -280 153.739 -300 210.739 -300 c 0
 267.739 -300 325.356 -280 334.592 -240 c 0
 343.826 -200 295.443 -180 238.443 -180 c 2
 88.4434 -180 l 1
 72.2959 -120 l 1
 234.617 20 l 1
EndSplineSet
EndChar

StartChar: ampersand
Encoding: 38 38 248
Width: 800
VWidth: 0
Flags: W
HStem: -20 120<287.755 483.244> 0 21G<608.546 790> 700 120<469.607 590.017>
VStem: 687.729 150<305.44 380>
LayerCount: 2
Fore
SplineSet
569.312 820 m 0xb0
 712.312 820 769.688 735 745.447 630 c 0
 722.822 532 640.508 470 549.888 424 c 1
 640.949 264 l 1
 661.568 297 677.571 336 687.729 380 c 1
 837.729 380 l 1
 817.875 294 769.637 215 705.63 150 c 1
 790 0 l 1
 620 0 l 1x70
 587.929 56 l 1
 509.847 8 424.383 -20 345.383 -20 c 0
 165.383 -20 66.6221 72 98.4824 210 c 0
 126.648 332 238.04 403 356.507 457 c 1
 325.356 491 277.208 551 295.447 630 c 0
 319.688 735 426.312 820 569.312 820 c 0xb0
541.607 700 m 0
 494.607 700 456.298 677 445.447 630 c 0
 435.058 585 460.592 544 485.666 514 c 1
 541.131 542 583.211 577 595.447 630 c 0
 604.451 669 584.607 700 541.607 700 c 0
416.805 363 m 1
 310.8 311 271.18 265 258.482 210 c 0
 244.399 149 287.087 100 373.087 100 c 0xb0
 424.087 100 482.242 118 534.323 153 c 1
 416.805 363 l 1
EndSplineSet
EndChar

StartChar: currency
Encoding: 164 164 249
Width: 1040
VWidth: 0
Flags: W
HStem: -20 150<442.873 665.574> 670 150<557.206 781.843>
LayerCount: 2
Fore
SplineSet
355.395 881 m 1
 457.689 748 l 1
 535.31 794 622.312 820 709.312 820 c 0
 796.312 820 871.31 794 927.689 748 c 1
 1091.39 881 l 1
 1178.31 768 l 1
 1014.6 635 l 1
 1044.13 568 1052.43 487 1032.35 400 c 0
 1012.26 313 966.562 232 906.094 165 c 1
 1008.39 32 l 1
 869.3 -81 l 1
 767.005 52 l 1
 689.616 7 602.383 -20 515.383 -20 c 0
 428.383 -20 353.616 7 297.005 52 c 1
 133.3 -81 l 1
 46.3877 32 l 1
 210.093 165 l 1
 179.562 232 172.262 313 192.348 400 c 0
 212.433 487 257.133 568 318.602 635 c 1
 216.307 768 l 1
 355.395 881 l 1
674.682 670 m 0
 525.682 670 376.747 549 342.348 400 c 0
 307.948 251 401.013 130 550.013 130 c 0
 699.013 130 847.948 251 882.348 400 c 0
 916.747 549 823.682 670 674.682 670 c 0
EndSplineSet
EndChar

StartChar: uni00B5
Encoding: 181 181 250
Width: 680
VWidth: 0
Flags: W
HStem: -20 120<320.55 472.282> 580 20G<203.903 368.521 603.903 768.521>
LayerCount: 2
Fore
SplineSet
167.666 -270 m 1
 7.66602 -270 l 1
 70 0 l 1
 208.521 600 l 1
 368.521 600 l 1
 270.171 174 l 1
 286.475 132 321.087 100 383.087 100 c 0
 445.087 100 499.551 128 513.865 190 c 2
 608.521 600 l 1
 768.521 600 l 1
 673.865 190 l 2
 643.621 59 539.383 -20 415.383 -20 c 0
 328.383 -20 277.08 35 248.7 81 c 1
 230 0 l 1
 167.666 -270 l 1
EndSplineSet
EndChar

StartChar: paragraph
Encoding: 182 182 251
Width: 740
VWidth: 0
Flags: W
HStem: 0 21G<270 434.617 510 674.617> 680 120<586.99 666.99>
LayerCount: 2
Fore
SplineSet
586.99 680 m 1
 430 0 l 1
 270 0 l 1
 339.491 301 l 1
 164.724 315 133.198 447 156.978 550 c 0
 181.911 658 283.694 800 484.694 800 c 2
 854.694 800 l 1
 670 0 l 1
 510 0 l 1
 666.99 680 l 1
 586.99 680 l 1
369.504 431 m 1
 424.451 669 l 1
 359.603 648 328.982 602 316.978 550 c 0
 304.973 498 314.353 452 369.504 431 c 1
EndSplineSet
EndChar

StartChar: macron
Encoding: 175 175 252
Width: 560
VWidth: 0
Flags: W
HStem: 700 100<234.694 671.607>
LayerCount: 2
Fore
SplineSet
234.694 800 m 1
 694.694 800 l 1
 671.607 700 l 1
 211.607 700 l 1
 234.694 800 l 1
EndSplineSet
EndChar

StartChar: logicalnot
Encoding: 172 172 253
Width: 600
VWidth: 0
Flags: W
HStem: 410 190<547.743 644.656> 510 90<178.521 547.743>
LayerCount: 2
Fore
SplineSet
178.521 600 m 1x40
 688.521 600 l 1x40
 644.656 410 l 1
 524.656 410 l 1x80
 547.743 510 l 1
 157.743 510 l 1
 178.521 600 l 1x40
EndSplineSet
EndChar

StartChar: onequarter
Encoding: 188 188 254
Width: 780
VWidth: 0
Flags: W
HStem: 0 21G<40 159.617 620 704.617> 68 60<554.551 635.699 729.551 755.699> 646 63<203.686 294.012> 779 21G<349.039 434.464 805.077 924.694>
LayerCount: 2
Fore
SplineSet
331.377 699 m 1
 304.22 668 239.141 646 189.141 646 c 1
 203.686 709 l 1
 261.686 709 343.613 752 354.464 799 c 1
 434.464 799 l 1
 342.116 399 l 1
 262.116 399 l 1
 331.377 699 l 1
554.551 128 m 1
 649.551 128 l 1
 686.952 290 l 1
 554.551 128 l 1
479.551 128 m 1
 712.348 400 l 1
 792.348 400 l 1
 729.551 128 l 1
 769.551 128 l 1
 755.699 68 l 1
 715.699 68 l 1
 700 0 l 1
 620 0 l 1
 635.699 68 l 1
 465.699 68 l 1
 479.551 128 l 1
824.694 800 m 1
 924.694 800 l 1
 140 0 l 1
 40 0 l 1
 824.694 800 l 1
EndSplineSet
EndChar

StartChar: onehalf
Encoding: 189 189 255
Width: 780
VWidth: 0
Flags: W
HStem: 0 60<553.853 740> 350 60<627.289 721.082> 646 63<203.686 294.012> 779 21G<349.039 434.464 805.077 924.694>
LayerCount: 2
Fore
SplineSet
331.377 699 m 1
 304.22 668 239.141 646 189.141 646 c 1
 203.686 709 l 1
 261.686 709 343.613 752 354.464 799 c 1
 434.464 799 l 1
 342.116 399 l 1
 262.116 399 l 1
 331.377 699 l 1
721.952 290 m 0
 730.725 328 715.804 350 680.804 350 c 0
 645.804 350 620.725 328 611.952 290 c 1
 531.952 290 l 1
 546.266 352 613.656 410 694.656 410 c 0
 775.656 410 816.266 352 801.952 290 c 0
 789.023 234 741.712 198 688.094 165 c 0
 632.475 132 559.624 85 553.853 60 c 1
 753.853 60 l 1
 740 0 l 1
 460 0 l 1
 473.853 60 l 2
 487.242 118 575.862 164 631.174 200 c 0
 679.562 232 712.486 249 721.952 290 c 0
824.694 800 m 1
 924.694 800 l 1
 140 0 l 1
 40 0 l 1
 824.694 800 l 1
EndSplineSet
EndChar

StartChar: threequarters
Encoding: 190 190 256
Width: 780
VWidth: 0
Flags: W
HStem: 0 21G<40 159.617 620 704.617> 68 60<554.551 635.699 729.551 755.699> 390 60<240.933 348.511> 575 60<276.602 366.782> 750 60<304.636 398.429> 780 20G<805.077 924.694>
LayerCount: 2
Fore
SplineSet
158.204 512 m 1xf8
 238.204 512 l 1
 228.739 471 251.891 450 288.891 450 c 0
 325.891 450 358.739 471 368.32 512.5 c 0
 377.901 554 354.749 575 317.749 575 c 2
 262.749 575 l 1
 276.602 635 l 1
 331.602 635 l 2
 362.602 635 390.526 652 399.299 690 c 0
 408.072 728 393.151 750 358.151 750 c 0
 323.151 750 298.072 728 289.299 690 c 1
 209.299 690 l 1
 223.613 752 291.003 810 372.003 810 c 0
 453.003 810 493.613 752 479.299 690 c 0
 471.911 658 450.985 628 419.906 606 c 1
 445.827 584 456.978 550 448.204 512 c 0
 432.506 444 370.039 390 275.039 390 c 0
 180.039 390 142.506 444 158.204 512 c 1xf8
554.551 128 m 1
 649.551 128 l 1
 686.952 290 l 1
 554.551 128 l 1
479.551 128 m 1
 712.348 400 l 1
 792.348 400 l 1
 729.551 128 l 1
 769.551 128 l 1
 755.699 68 l 1
 715.699 68 l 1
 700 0 l 1
 620 0 l 1
 635.699 68 l 1
 465.699 68 l 1
 479.551 128 l 1
824.694 800 m 1xf4
 924.694 800 l 1
 140 0 l 1
 40 0 l 1
 824.694 800 l 1xf4
EndSplineSet
EndChar

